ISO-10303-21;
HEADER;
/* Generated by software containing ST-Developer
 * from STEP Tools, Inc. (www.steptools.com) 
 */

FILE_DESCRIPTION(
/* description */ (''),
/* implementation_level */ '2;1');

FILE_NAME(
/* name */ 'grasp_sensor_carrier.step',
/* time_stamp */ '2026-09-15T17:21:31+09:00',
/* author */ (''),
/* organization */ (''),
/* preprocessor_version */ 'ST-DEVELOPER v20.1',
/* originating_system */ 'Autodesk Translation Framework v15.8.0.0',
/* authorisation */ '');

FILE_SCHEMA (('AUTOMOTIVE_DESIGN { 1 0 10303 214 3 1 1 }'));
ENDSEC;

DATA;
#10=MECHANICAL_DESIGN_GEOMETRIC_PRESENTATION_REPRESENTATION('',(#13,#14,
#15),#388);
#11=SHAPE_REPRESENTATION_RELATIONSHIP('SRR','None',#395,#12);
#12=ADVANCED_BREP_SHAPE_REPRESENTATION('',(#16,#17,#18),#387);
#13=STYLED_ITEM('',(#405),#16);
#14=STYLED_ITEM('',(#406),#17);
#15=STYLED_ITEM('',(#407),#18);
#16=MANIFOLD_SOLID_BREP('MAGNET_D5x2',#230);
#17=MANIFOLD_SOLID_BREP('SENSOR_IC',#231);
#18=MANIFOLD_SOLID_BREP('SENSOR_PCB',#232);
#19=PLANE('',#249);
#20=PLANE('',#250);
#21=PLANE('',#251);
#22=PLANE('',#252);
#23=PLANE('',#253);
#24=PLANE('',#254);
#25=PLANE('',#255);
#26=PLANE('',#256);
#27=PLANE('',#257);
#28=PLANE('',#258);
#29=PLANE('',#259);
#30=PLANE('',#260);
#31=PLANE('',#261);
#32=PLANE('',#262);
#33=FACE_OUTER_BOUND('',#48,.T.);
#34=FACE_OUTER_BOUND('',#49,.T.);
#35=FACE_OUTER_BOUND('',#50,.T.);
#36=FACE_OUTER_BOUND('',#51,.T.);
#37=FACE_OUTER_BOUND('',#52,.T.);
#38=FACE_OUTER_BOUND('',#53,.T.);
#39=FACE_OUTER_BOUND('',#54,.T.);
#40=FACE_OUTER_BOUND('',#55,.T.);
#41=FACE_OUTER_BOUND('',#56,.T.);
#42=FACE_OUTER_BOUND('',#57,.T.);
#43=FACE_OUTER_BOUND('',#58,.T.);
#44=FACE_OUTER_BOUND('',#59,.T.);
#45=FACE_OUTER_BOUND('',#60,.T.);
#46=FACE_OUTER_BOUND('',#61,.T.);
#47=FACE_OUTER_BOUND('',#62,.T.);
#48=EDGE_LOOP('',(#160,#161,#162,#163));
#49=EDGE_LOOP('',(#164));
#50=EDGE_LOOP('',(#165));
#51=EDGE_LOOP('',(#166,#167,#168,#169));
#52=EDGE_LOOP('',(#170,#171,#172,#173));
#53=EDGE_LOOP('',(#174,#175,#176,#177));
#54=EDGE_LOOP('',(#178,#179,#180,#181));
#55=EDGE_LOOP('',(#182,#183,#184,#185));
#56=EDGE_LOOP('',(#186,#187,#188,#189));
#57=EDGE_LOOP('',(#190,#191,#192,#193));
#58=EDGE_LOOP('',(#194,#195,#196,#197));
#59=EDGE_LOOP('',(#198,#199,#200,#201));
#60=EDGE_LOOP('',(#202,#203,#204,#205));
#61=EDGE_LOOP('',(#206,#207,#208,#209));
#62=EDGE_LOOP('',(#210,#211,#212,#213));
#63=LINE('',#329,#88);
#64=LINE('',#336,#89);
#65=LINE('',#338,#90);
#66=LINE('',#340,#91);
#67=LINE('',#341,#92);
#68=LINE('',#345,#93);
#69=LINE('',#347,#94);
#70=LINE('',#349,#95);
#71=LINE('',#350,#96);
#72=LINE('',#352,#97);
#73=LINE('',#353,#98);
#74=LINE('',#355,#99);
#75=LINE('',#357,#100);
#76=LINE('',#362,#101);
#77=LINE('',#364,#102);
#78=LINE('',#366,#103);
#79=LINE('',#367,#104);
#80=LINE('',#371,#105);
#81=LINE('',#373,#106);
#82=LINE('',#375,#107);
#83=LINE('',#376,#108);
#84=LINE('',#378,#109);
#85=LINE('',#379,#110);
#86=LINE('',#381,#111);
#87=LINE('',#383,#112);
#88=VECTOR('',#269,2.5);
#89=VECTOR('',#278,10.);
#90=VECTOR('',#279,10.);
#91=VECTOR('',#280,10.);
#92=VECTOR('',#281,10.);
#93=VECTOR('',#284,10.);
#94=VECTOR('',#285,10.);
#95=VECTOR('',#286,10.);
#96=VECTOR('',#287,10.);
#97=VECTOR('',#290,10.);
#98=VECTOR('',#291,10.);
#99=VECTOR('',#294,10.);
#100=VECTOR('',#297,10.);
#101=VECTOR('',#302,10.);
#102=VECTOR('',#303,10.);
#103=VECTOR('',#304,10.);
#104=VECTOR('',#305,10.);
#105=VECTOR('',#308,10.);
#106=VECTOR('',#309,10.);
#107=VECTOR('',#310,10.);
#108=VECTOR('',#311,10.);
#109=VECTOR('',#314,10.);
#110=VECTOR('',#315,10.);
#111=VECTOR('',#318,10.);
#112=VECTOR('',#321,10.);
#113=CIRCLE('',#247,2.5);
#114=CIRCLE('',#248,2.5);
#115=VERTEX_POINT('',#326);
#116=VERTEX_POINT('',#328);
#117=VERTEX_POINT('',#334);
#118=VERTEX_POINT('',#335);
#119=VERTEX_POINT('',#337);
#120=VERTEX_POINT('',#339);
#121=VERTEX_POINT('',#343);
#122=VERTEX_POINT('',#344);
#123=VERTEX_POINT('',#346);
#124=VERTEX_POINT('',#348);
#125=VERTEX_POINT('',#360);
#126=VERTEX_POINT('',#361);
#127=VERTEX_POINT('',#363);
#128=VERTEX_POINT('',#365);
#129=VERTEX_POINT('',#369);
#130=VERTEX_POINT('',#370);
#131=VERTEX_POINT('',#372);
#132=VERTEX_POINT('',#374);
#133=EDGE_CURVE('',#115,#115,#113,.T.);
#134=EDGE_CURVE('',#115,#116,#63,.T.);
#135=EDGE_CURVE('',#116,#116,#114,.T.);
#136=EDGE_CURVE('',#117,#118,#64,.T.);
#137=EDGE_CURVE('',#118,#119,#65,.T.);
#138=EDGE_CURVE('',#119,#120,#66,.T.);
#139=EDGE_CURVE('',#120,#117,#67,.T.);
#140=EDGE_CURVE('',#121,#122,#68,.T.);
#141=EDGE_CURVE('',#122,#123,#69,.T.);
#142=EDGE_CURVE('',#123,#124,#70,.T.);
#143=EDGE_CURVE('',#124,#121,#71,.T.);
#144=EDGE_CURVE('',#120,#123,#72,.T.);
#145=EDGE_CURVE('',#117,#122,#73,.T.);
#146=EDGE_CURVE('',#119,#124,#74,.T.);
#147=EDGE_CURVE('',#118,#121,#75,.T.);
#148=EDGE_CURVE('',#125,#126,#76,.T.);
#149=EDGE_CURVE('',#126,#127,#77,.T.);
#150=EDGE_CURVE('',#127,#128,#78,.T.);
#151=EDGE_CURVE('',#128,#125,#79,.T.);
#152=EDGE_CURVE('',#129,#130,#80,.T.);
#153=EDGE_CURVE('',#130,#131,#81,.T.);
#154=EDGE_CURVE('',#131,#132,#82,.T.);
#155=EDGE_CURVE('',#132,#129,#83,.T.);
#156=EDGE_CURVE('',#128,#131,#84,.T.);
#157=EDGE_CURVE('',#125,#130,#85,.T.);
#158=EDGE_CURVE('',#127,#132,#86,.T.);
#159=EDGE_CURVE('',#126,#129,#87,.T.);
#160=ORIENTED_EDGE('',*,*,#133,.F.);
#161=ORIENTED_EDGE('',*,*,#134,.T.);
#162=ORIENTED_EDGE('',*,*,#135,.F.);
#163=ORIENTED_EDGE('',*,*,#134,.F.);
#164=ORIENTED_EDGE('',*,*,#135,.T.);
#165=ORIENTED_EDGE('',*,*,#133,.T.);
#166=ORIENTED_EDGE('',*,*,#136,.T.);
#167=ORIENTED_EDGE('',*,*,#137,.T.);
#168=ORIENTED_EDGE('',*,*,#138,.T.);
#169=ORIENTED_EDGE('',*,*,#139,.T.);
#170=ORIENTED_EDGE('',*,*,#140,.T.);
#171=ORIENTED_EDGE('',*,*,#141,.T.);
#172=ORIENTED_EDGE('',*,*,#142,.T.);
#173=ORIENTED_EDGE('',*,*,#143,.T.);
#174=ORIENTED_EDGE('',*,*,#144,.T.);
#175=ORIENTED_EDGE('',*,*,#141,.F.);
#176=ORIENTED_EDGE('',*,*,#145,.F.);
#177=ORIENTED_EDGE('',*,*,#139,.F.);
#178=ORIENTED_EDGE('',*,*,#146,.T.);
#179=ORIENTED_EDGE('',*,*,#142,.F.);
#180=ORIENTED_EDGE('',*,*,#144,.F.);
#181=ORIENTED_EDGE('',*,*,#138,.F.);
#182=ORIENTED_EDGE('',*,*,#147,.T.);
#183=ORIENTED_EDGE('',*,*,#143,.F.);
#184=ORIENTED_EDGE('',*,*,#146,.F.);
#185=ORIENTED_EDGE('',*,*,#137,.F.);
#186=ORIENTED_EDGE('',*,*,#145,.T.);
#187=ORIENTED_EDGE('',*,*,#140,.F.);
#188=ORIENTED_EDGE('',*,*,#147,.F.);
#189=ORIENTED_EDGE('',*,*,#136,.F.);
#190=ORIENTED_EDGE('',*,*,#148,.T.);
#191=ORIENTED_EDGE('',*,*,#149,.T.);
#192=ORIENTED_EDGE('',*,*,#150,.T.);
#193=ORIENTED_EDGE('',*,*,#151,.T.);
#194=ORIENTED_EDGE('',*,*,#152,.T.);
#195=ORIENTED_EDGE('',*,*,#153,.T.);
#196=ORIENTED_EDGE('',*,*,#154,.T.);
#197=ORIENTED_EDGE('',*,*,#155,.T.);
#198=ORIENTED_EDGE('',*,*,#156,.T.);
#199=ORIENTED_EDGE('',*,*,#153,.F.);
#200=ORIENTED_EDGE('',*,*,#157,.F.);
#201=ORIENTED_EDGE('',*,*,#151,.F.);
#202=ORIENTED_EDGE('',*,*,#158,.T.);
#203=ORIENTED_EDGE('',*,*,#154,.F.);
#204=ORIENTED_EDGE('',*,*,#156,.F.);
#205=ORIENTED_EDGE('',*,*,#150,.F.);
#206=ORIENTED_EDGE('',*,*,#159,.T.);
#207=ORIENTED_EDGE('',*,*,#155,.F.);
#208=ORIENTED_EDGE('',*,*,#158,.F.);
#209=ORIENTED_EDGE('',*,*,#149,.F.);
#210=ORIENTED_EDGE('',*,*,#157,.T.);
#211=ORIENTED_EDGE('',*,*,#152,.F.);
#212=ORIENTED_EDGE('',*,*,#159,.F.);
#213=ORIENTED_EDGE('',*,*,#148,.F.);
#214=CYLINDRICAL_SURFACE('',#246,2.5);
#215=ADVANCED_FACE('',(#33),#214,.T.);
#216=ADVANCED_FACE('',(#34),#19,.T.);
#217=ADVANCED_FACE('',(#35),#20,.T.);
#218=ADVANCED_FACE('',(#36),#21,.T.);
#219=ADVANCED_FACE('',(#37),#22,.F.);
#220=ADVANCED_FACE('',(#38),#23,.F.);
#221=ADVANCED_FACE('',(#39),#24,.F.);
#222=ADVANCED_FACE('',(#40),#25,.F.);
#223=ADVANCED_FACE('',(#41),#26,.F.);
#224=ADVANCED_FACE('',(#42),#27,.T.);
#225=ADVANCED_FACE('',(#43),#28,.F.);
#226=ADVANCED_FACE('',(#44),#29,.F.);
#227=ADVANCED_FACE('',(#45),#30,.F.);
#228=ADVANCED_FACE('',(#46),#31,.F.);
#229=ADVANCED_FACE('',(#47),#32,.F.);
#230=CLOSED_SHELL('',(#215,#216,#217));
#231=CLOSED_SHELL('',(#218,#219,#220,#221,#222,#223));
#232=CLOSED_SHELL('',(#224,#225,#226,#227,#228,#229));
#233=DERIVED_UNIT_ELEMENT(#235,1.);
#234=DERIVED_UNIT_ELEMENT(#390,-3.);
#235=(
MASS_UNIT()
NAMED_UNIT(*)
SI_UNIT(.KILO.,.GRAM.)
);
#236=DERIVED_UNIT((#233,#234));
#237=MEASURE_REPRESENTATION_ITEM('density measure',
POSITIVE_RATIO_MEASURE(7850.),#236);
#238=PROPERTY_DEFINITION_REPRESENTATION(#243,#240);
#239=PROPERTY_DEFINITION_REPRESENTATION(#244,#241);
#240=REPRESENTATION('material name',(#242),#387);
#241=REPRESENTATION('density',(#237),#387);
#242=DESCRIPTIVE_REPRESENTATION_ITEM('\X2\AC15CCA0\X0\','\X2\AC15CCA0\X0\');
#243=PROPERTY_DEFINITION('material property','material name',#397);
#244=PROPERTY_DEFINITION('material property','density of part',#397);
#245=AXIS2_PLACEMENT_3D('',#324,#263,#264);
#246=AXIS2_PLACEMENT_3D('',#325,#265,#266);
#247=AXIS2_PLACEMENT_3D('',#327,#267,#268);
#248=AXIS2_PLACEMENT_3D('',#330,#270,#271);
#249=AXIS2_PLACEMENT_3D('',#331,#272,#273);
#250=AXIS2_PLACEMENT_3D('',#332,#274,#275);
#251=AXIS2_PLACEMENT_3D('',#333,#276,#277);
#252=AXIS2_PLACEMENT_3D('',#342,#282,#283);
#253=AXIS2_PLACEMENT_3D('',#351,#288,#289);
#254=AXIS2_PLACEMENT_3D('',#354,#292,#293);
#255=AXIS2_PLACEMENT_3D('',#356,#295,#296);
#256=AXIS2_PLACEMENT_3D('',#358,#298,#299);
#257=AXIS2_PLACEMENT_3D('',#359,#300,#301);
#258=AXIS2_PLACEMENT_3D('',#368,#306,#307);
#259=AXIS2_PLACEMENT_3D('',#377,#312,#313);
#260=AXIS2_PLACEMENT_3D('',#380,#316,#317);
#261=AXIS2_PLACEMENT_3D('',#382,#319,#320);
#262=AXIS2_PLACEMENT_3D('',#384,#322,#323);
#263=DIRECTION('axis',(0.,0.,1.));
#264=DIRECTION('refdir',(1.,0.,0.));
#265=DIRECTION('center_axis',(0.00372543890222232,-0.0185140701020903,0.99982165925391));
#266=DIRECTION('ref_axis',(0.999993060528415,6.89735156365501E-5,-0.00372480035281519));
#267=DIRECTION('center_axis',(0.00372543890222232,-0.0185140701020903,0.99982165925391));
#268=DIRECTION('ref_axis',(0.999993060528415,6.89735156365501E-5,-0.00372480035281519));
#269=DIRECTION('',(-0.00372543890222232,0.0185140701020903,-0.999821659253909));
#270=DIRECTION('center_axis',(-0.00372543890222232,0.0185140701020903,-0.99982165925391));
#271=DIRECTION('ref_axis',(0.999993060528415,6.89735156365501E-5,-0.00372480035281519));
#272=DIRECTION('center_axis',(-0.00372543890222232,0.0185140701020903,-0.99982165925391));
#273=DIRECTION('ref_axis',(-0.999993060528415,-6.89735156365501E-5,0.00372480035281519));
#274=DIRECTION('center_axis',(0.00372543890222232,-0.0185140701020903,0.99982165925391));
#275=DIRECTION('ref_axis',(0.999993060528415,6.89735156365501E-5,-0.00372480035281519));
#276=DIRECTION('center_axis',(0.00372543890222233,-0.0185140701020906,0.99982165925391));
#277=DIRECTION('ref_axis',(0.999993060528415,6.89735156365518E-5,-0.00372480035281521));
#278=DIRECTION('',(-1.35524331086917E-20,0.999828597536052,0.0185141985808456));
#279=DIRECTION('',(-0.999993060528415,-6.89735156365518E-5,0.00372480035281521));
#280=DIRECTION('',(1.35524331086917E-20,-0.999828597536052,-0.0185141985808456));
#281=DIRECTION('',(0.999993060528415,6.89735156365518E-5,-0.00372480035281521));
#282=DIRECTION('center_axis',(0.00372543890222233,-0.0185140701020906,0.99982165925391));
#283=DIRECTION('ref_axis',(0.999993060528415,6.89735156365518E-5,-0.00372480035281521));
#284=DIRECTION('',(1.35524331086917E-20,-0.999828597536052,-0.0185141985808456));
#285=DIRECTION('',(-0.999993060528415,-6.89735156365518E-5,0.00372480035281521));
#286=DIRECTION('',(-1.35524331086917E-20,0.999828597536052,0.0185141985808456));
#287=DIRECTION('',(0.999993060528415,6.89735156365518E-5,-0.00372480035281521));
#288=DIRECTION('center_axis',(-1.35524331086917E-20,0.999828597536052,0.0185141985808456));
#289=DIRECTION('ref_axis',(0.00372543890222233,-0.0185140701020906,0.999821659253909));
#290=DIRECTION('',(-0.00372543890222233,0.0185140701020906,-0.999821659253909));
#291=DIRECTION('',(-0.00372543890222233,0.0185140701020906,-0.999821659253909));
#292=DIRECTION('center_axis',(0.999993060528415,6.89735156365518E-5,-0.00372480035281521));
#293=DIRECTION('ref_axis',(-0.00372543890222233,0.0185140701020906,-0.999821659253909));
#294=DIRECTION('',(-0.00372543890222233,0.0185140701020906,-0.999821659253909));
#295=DIRECTION('center_axis',(1.35524331086917E-20,-0.999828597536052,-0.0185141985808456));
#296=DIRECTION('ref_axis',(-0.00372543890222233,0.0185140701020906,-0.999821659253909));
#297=DIRECTION('',(-0.00372543890222233,0.0185140701020906,-0.999821659253909));
#298=DIRECTION('center_axis',(-0.999993060528415,-6.89735156365518E-5,0.00372480035281521));
#299=DIRECTION('ref_axis',(0.00372543890222233,-0.0185140701020906,0.999821659253909));
#300=DIRECTION('center_axis',(0.00372543890222233,-0.0185140701020906,0.99982165925391));
#301=DIRECTION('ref_axis',(0.999993060528415,6.89735156365518E-5,-0.00372480035281521));
#302=DIRECTION('',(-1.35524331086917E-20,0.999828597536052,0.0185141985808456));
#303=DIRECTION('',(-0.999993060528415,-6.89735156365518E-5,0.00372480035281521));
#304=DIRECTION('',(1.35524331086917E-20,-0.999828597536052,-0.0185141985808456));
#305=DIRECTION('',(0.999993060528415,6.89735156365518E-5,-0.00372480035281521));
#306=DIRECTION('center_axis',(0.00372543890222233,-0.0185140701020906,0.99982165925391));
#307=DIRECTION('ref_axis',(0.999993060528415,6.89735156365518E-5,-0.00372480035281521));
#308=DIRECTION('',(1.35524331086917E-20,-0.999828597536052,-0.0185141985808456));
#309=DIRECTION('',(-0.999993060528415,-6.89735156365518E-5,0.00372480035281521));
#310=DIRECTION('',(-1.35524331086917E-20,0.999828597536052,0.0185141985808456));
#311=DIRECTION('',(0.999993060528415,6.89735156365518E-5,-0.00372480035281521));
#312=DIRECTION('center_axis',(-1.35524331086917E-20,0.999828597536052,0.0185141985808456));
#313=DIRECTION('ref_axis',(0.00372543890222233,-0.0185140701020906,0.999821659253909));
#314=DIRECTION('',(-0.00372543890222233,0.0185140701020906,-0.999821659253909));
#315=DIRECTION('',(-0.00372543890222233,0.0185140701020906,-0.999821659253909));
#316=DIRECTION('center_axis',(0.999993060528415,6.89735156365518E-5,-0.00372480035281521));
#317=DIRECTION('ref_axis',(-0.00372543890222233,0.0185140701020906,-0.999821659253909));
#318=DIRECTION('',(-0.00372543890222233,0.0185140701020906,-0.999821659253909));
#319=DIRECTION('center_axis',(1.35524331086917E-20,-0.999828597536052,-0.0185141985808456));
#320=DIRECTION('ref_axis',(-0.00372543890222233,0.0185140701020906,-0.999821659253909));
#321=DIRECTION('',(-0.00372543890222233,0.0185140701020906,-0.999821659253909));
#322=DIRECTION('center_axis',(-0.999993060528415,-6.89735156365518E-5,0.00372480035281521));
#323=DIRECTION('ref_axis',(0.00372543890222233,-0.0185140701020906,0.999821659253909));
#324=CARTESIAN_POINT('',(0.,0.,0.));
#325=CARTESIAN_POINT('Origin',(-34.1933791250383,-12.5418139515993,19.360913245302));
#326=CARTESIAN_POINT('',(-36.6896363374571,-12.5605004554904,20.370046905438));
#327=CARTESIAN_POINT('Origin',(-34.1896536861361,-12.5603280217014,20.3607349045559));
#328=CARTESIAN_POINT('',(-36.6970872152616,-12.5234723152863,18.3704035869301));
#329=CARTESIAN_POINT('',(-36.6933617763593,-12.5419863853884,19.370225246184));
#330=CARTESIAN_POINT('Origin',(-34.1971045639405,-12.5232998814972,18.3610915860481));
#331=CARTESIAN_POINT('Origin',(-34.1971045639405,-12.5232998814972,18.3610915860481));
#332=CARTESIAN_POINT('Origin',(-34.1896536861361,-12.5603280217014,20.3607349045559));
#333=CARTESIAN_POINT('Origin',(-34.1775460097039,-12.6204987495331,23.6101552971311));
#334=CARTESIAN_POINT('',(-31.1775668281186,-15.1198633228264,23.5526953996206));
#335=CARTESIAN_POINT('',(-31.1775668281186,-10.1207203351461,23.6452663925248));
#336=CARTESIAN_POINT('',(-31.1775668281186,-12.6202918289862,23.5989808960727));
#337=CARTESIAN_POINT('',(-37.1775251912891,-10.1211341762399,23.6676151946417));
#338=CARTESIAN_POINT('',(-34.1775460097039,-10.120927255693,23.6564407935832));
#339=CARTESIAN_POINT('',(-37.1775251912891,-15.1202771639202,23.5750442017375));
#340=CARTESIAN_POINT('',(-37.1775251912891,-12.6207056700801,23.6213296981896));
#341=CARTESIAN_POINT('',(-34.1775460097039,-15.1200702433733,23.563869800679));
#342=CARTESIAN_POINT('Origin',(-34.1840655277827,-12.5880991268545,21.8604673934368));
#343=CARTESIAN_POINT('',(-31.1840863461975,-10.0883207124674,21.8955784888305));
#344=CARTESIAN_POINT('',(-31.1840863461975,-15.0874637001477,21.8030074959262));
#345=CARTESIAN_POINT('',(-31.1840863461975,-12.5878922063076,21.8492929923783));
#346=CARTESIAN_POINT('',(-37.184044709368,-15.0878775412415,21.8253562980431));
#347=CARTESIAN_POINT('',(-34.1840655277827,-15.0876706206946,21.8141818969847));
#348=CARTESIAN_POINT('',(-37.184044709368,-10.0887345535613,21.9179272909473));
#349=CARTESIAN_POINT('',(-37.184044709368,-12.5883060474014,21.8716417944952));
#350=CARTESIAN_POINT('',(-34.1840655277827,-10.0885276330144,21.9067528898889));
#351=CARTESIAN_POINT('Origin',(-34.1808057687433,-15.1038704320339,22.6890258488318));
#352=CARTESIAN_POINT('',(-37.1807849503286,-15.1040773525809,22.7002002498903));
#353=CARTESIAN_POINT('',(-31.1808265871581,-15.103663511487,22.6778514477734));
#354=CARTESIAN_POINT('Origin',(-37.1807849503286,-12.6045058587407,22.7464857463424));
#355=CARTESIAN_POINT('',(-37.1807849503286,-10.1049343649006,22.7927712427945));
#356=CARTESIAN_POINT('Origin',(-34.1808057687433,-10.1047274443537,22.7815968417361));
#357=CARTESIAN_POINT('',(-31.1808265871581,-10.1045205238068,22.7704224406776));
#358=CARTESIAN_POINT('Origin',(-31.1808265871581,-12.6040920176469,22.7241369442255));
#359=CARTESIAN_POINT('Origin',(-34.1715853074603,-12.6501212616965,25.2098699519374));
#360=CARTESIAN_POINT('',(-26.171640823233,-20.6481982538598,25.0319579604681));
#361=CARTESIAN_POINT('',(-26.171640823233,-4.65094069328298,25.3281851377616));
#362=CARTESIAN_POINT('',(-26.171640823233,-12.6495694735714,25.1800715491149));
#363=CARTESIAN_POINT('',(-42.1715297916876,-4.65204426953316,25.3877819434067));
#364=CARTESIAN_POINT('',(-34.1715853074603,-4.65149248140807,25.3579835405841));
#365=CARTESIAN_POINT('',(-42.1715297916876,-20.64930183011,25.0915547661131));
#366=CARTESIAN_POINT('',(-42.1715297916876,-12.6506730498216,25.2396683547599));
#367=CARTESIAN_POINT('',(-34.1715853074603,-20.6487500419849,25.0617563632906));
#368=CARTESIAN_POINT('Origin',(-34.1775460097039,-12.6204987495331,23.6101552971311));
#369=CARTESIAN_POINT('',(-26.1776015254765,-4.62131818111963,23.7284704829554));
#370=CARTESIAN_POINT('',(-26.1776015254765,-20.6185757416965,23.4322433056618));
#371=CARTESIAN_POINT('',(-26.1776015254765,-12.6199469614081,23.5803568943086));
#372=CARTESIAN_POINT('',(-42.1774904939312,-20.6196793179467,23.4918401113069));
#373=CARTESIAN_POINT('',(-34.1775460097039,-20.6191275298216,23.4620417084844));
#374=CARTESIAN_POINT('',(-42.1774904939312,-4.62242175736982,23.7880672886004));
#375=CARTESIAN_POINT('',(-42.1774904939312,-12.6210505376582,23.6399536999536));
#376=CARTESIAN_POINT('',(-34.1775460097039,-4.62186996924473,23.7582688857779));
#377=CARTESIAN_POINT('Origin',(-34.1745656585821,-20.6339387859032,24.2618990358875));
#378=CARTESIAN_POINT('',(-42.1745101428094,-20.6344905740283,24.29169743871));
#379=CARTESIAN_POINT('',(-26.1746211743548,-20.6333869977781,24.232100633065));
#380=CARTESIAN_POINT('Origin',(-42.1745101428094,-12.6358617937399,24.4398110273568));
#381=CARTESIAN_POINT('',(-42.1745101428094,-4.63723301345149,24.5879246160035));
#382=CARTESIAN_POINT('Origin',(-34.1745656585821,-4.6366812253264,24.558126213181));
#383=CARTESIAN_POINT('',(-26.1746211743548,-4.6361294372013,24.5283278103585));
#384=CARTESIAN_POINT('Origin',(-26.1746211743548,-12.6347582174897,24.3802142217117));
#385=UNCERTAINTY_MEASURE_WITH_UNIT(LENGTH_MEASURE(0.01),#389,
'DISTANCE_ACCURACY_VALUE',
'Maximum model space distance between geometric entities at asserted c
onnectivities');
#386=UNCERTAINTY_MEASURE_WITH_UNIT(LENGTH_MEASURE(0.01),#389,
'DISTANCE_ACCURACY_VALUE',
'Maximum model space distance between geometric entities at asserted c
onnectivities');
#387=(
GEOMETRIC_REPRESENTATION_CONTEXT(3)
GLOBAL_UNCERTAINTY_ASSIGNED_CONTEXT((#385))
GLOBAL_UNIT_ASSIGNED_CONTEXT((#389,#391,#392))
REPRESENTATION_CONTEXT('','3D')
);
#388=(
GEOMETRIC_REPRESENTATION_CONTEXT(3)
GLOBAL_UNCERTAINTY_ASSIGNED_CONTEXT((#386))
GLOBAL_UNIT_ASSIGNED_CONTEXT((#389,#391,#392))
REPRESENTATION_CONTEXT('','3D')
);
#389=(
LENGTH_UNIT()
NAMED_UNIT(*)
SI_UNIT(.MILLI.,.METRE.)
);
#390=(
LENGTH_UNIT()
NAMED_UNIT(*)
SI_UNIT($,.METRE.)
);
#391=(
NAMED_UNIT(*)
PLANE_ANGLE_UNIT()
SI_UNIT($,.RADIAN.)
);
#392=(
NAMED_UNIT(*)
SI_UNIT($,.STERADIAN.)
SOLID_ANGLE_UNIT()
);
#393=SHAPE_DEFINITION_REPRESENTATION(#394,#395);
#394=PRODUCT_DEFINITION_SHAPE('',$,#397);
#395=SHAPE_REPRESENTATION('',(#245),#387);
#396=PRODUCT_DEFINITION_CONTEXT('part definition',#401,'design');
#397=PRODUCT_DEFINITION('grasp_sensing_viz','grasp_sensing_viz',#398,#396);
#398=PRODUCT_DEFINITION_FORMATION('',$,#403);
#399=PRODUCT_RELATED_PRODUCT_CATEGORY('grasp_sensing_viz',
'grasp_sensing_viz',(#403));
#400=APPLICATION_PROTOCOL_DEFINITION('international standard',
'automotive_design',2009,#401);
#401=APPLICATION_CONTEXT(
'Core Data for Automotive Mechanical Design Process');
#402=PRODUCT_CONTEXT('part definition',#401,'mechanical');
#403=PRODUCT('grasp_sensing_viz','grasp_sensing_viz',$,(#402));
#404=PRESENTATION_STYLE_ASSIGNMENT((#408));
#405=PRESENTATION_STYLE_ASSIGNMENT((#409));
#406=PRESENTATION_STYLE_ASSIGNMENT((#410));
#407=PRESENTATION_STYLE_ASSIGNMENT((#411));
#408=SURFACE_STYLE_USAGE(.BOTH.,#412);
#409=SURFACE_STYLE_USAGE(.BOTH.,#413);
#410=SURFACE_STYLE_USAGE(.BOTH.,#414);
#411=SURFACE_STYLE_USAGE(.BOTH.,#415);
#412=SURFACE_SIDE_STYLE('',(#416));
#413=SURFACE_SIDE_STYLE('',(#417));
#414=SURFACE_SIDE_STYLE('',(#418));
#415=SURFACE_SIDE_STYLE('',(#419));
#416=SURFACE_STYLE_FILL_AREA(#420);
#417=SURFACE_STYLE_FILL_AREA(#421);
#418=SURFACE_STYLE_FILL_AREA(#422);
#419=SURFACE_STYLE_FILL_AREA(#423);
#420=FILL_AREA_STYLE('\X2\AC15CCA0\X0\ - \X2\C0C8D2F4\X0\',(#424));
#421=FILL_AREA_STYLE('Opaque(230,68,56)',(#425));
#422=FILL_AREA_STYLE('Opaque(26,26,26)',(#426));
#423=FILL_AREA_STYLE('Opaque(77,77,77)',(#427));
#424=FILL_AREA_STYLE_COLOUR('\X2\AC15CCA0\X0\ - \X2\C0C8D2F4\X0\',#428);
#425=FILL_AREA_STYLE_COLOUR('Opaque(230,68,56)',#429);
#426=FILL_AREA_STYLE_COLOUR('Opaque(26,26,26)',#430);
#427=FILL_AREA_STYLE_COLOUR('Opaque(77,77,77)',#431);
#428=COLOUR_RGB('\X2\AC15CCA0\X0\ - \X2\C0C8D2F4\X0\',0.627450980392157,
0.627450980392157,0.627450980392157);
#429=COLOUR_RGB('Opaque(230,68,56)',0.901960784313726,0.266666666666667,
0.219607843137255);
#430=COLOUR_RGB('Opaque(26,26,26)',0.101960784313725,0.101960784313725,
0.101960784313725);
#431=COLOUR_RGB('Opaque(77,77,77)',0.301960784313725,0.301960784313725,
0.301960784313725);
ENDSEC;
END-ISO-10303-21;
