ISO-10303-21;
HEADER;
/* Generated by software containing ST-Developer
 * from STEP Tools, Inc. (www.steptools.com) 
 */

FILE_DESCRIPTION(
/* description */ (''),
/* implementation_level */ '2;1');

FILE_NAME(
/* name */ 'flange_piper_mount.step',
/* time_stamp */ '2026-09-15T17:21:28+09:00',
/* author */ (''),
/* organization */ (''),
/* preprocessor_version */ 'ST-DEVELOPER v20.1',
/* originating_system */ 'Autodesk Translation Framework v15.8.0.0',
/* authorisation */ '');

FILE_SCHEMA (('AUTOMOTIVE_DESIGN { 1 0 10303 214 3 1 1 }'));
ENDSEC;

DATA;
#10=MECHANICAL_DESIGN_GEOMETRIC_PRESENTATION_REPRESENTATION('',(#13),#1211);
#11=SHAPE_REPRESENTATION_RELATIONSHIP('SRR','None',#1218,#12);
#12=ADVANCED_BREP_SHAPE_REPRESENTATION('',(#14),#1210);
#13=STYLED_ITEM('',(#1228),#14);
#14=MANIFOLD_SOLID_BREP('\X2\D30CC774D37C\X0\-1dof',#626);
#15=TOROIDAL_SURFACE('',#684,15.,10.);
#16=FACE_BOUND('',#185,.T.);
#17=FACE_BOUND('',#186,.T.);
#18=FACE_BOUND('',#187,.T.);
#19=FACE_BOUND('',#188,.T.);
#20=FACE_BOUND('',#208,.T.);
#21=B_SPLINE_CURVE_WITH_KNOTS('',3,(#1002,#1003,#1004,#1005,#1006,#1007,
#1008,#1009,#1010,#1011,#1012,#1013,#1014,#1015),.UNSPECIFIED.,.F.,.F.,
(4,2,2,2,2,2,4),(4.70817182850219,5.37317358454298,5.7358276791417,6.09848177374041,
6.46113586833912,6.82378996293784,7.48879171897864),.UNSPECIFIED.);
#22=B_SPLINE_CURVE_WITH_KNOTS('',3,(#1020,#1021,#1022,#1023,#1024,#1025,
#1026,#1027,#1028,#1029),.UNSPECIFIED.,.F.,.F.,(4,2,2,2,4),(-0.692457630426511,
-0.653916541860995,-0.591522419648609,-0.458975342062094,-0.00193646773683653),
 .UNSPECIFIED.);
#23=B_SPLINE_CURVE_WITH_KNOTS('',3,(#1031,#1032,#1033,#1034,#1035,#1036,
#1037,#1038),.UNSPECIFIED.,.F.,.F.,(4,2,2,4),(0.742220476071533,1.26336869264799,
1.89505303897198,2.52673738529597),.UNSPECIFIED.);
#24=B_SPLINE_CURVE_WITH_KNOTS('',3,(#1074,#1075,#1076,#1077,#1078,#1079,
#1080,#1081,#1082,#1083,#1084,#1085,#1086,#1087,#1088,#1089,#1090,#1091,
#1092,#1093,#1094,#1095,#1096,#1097,#1098,#1099,#1100,#1101,#1102,#1103,
#1104,#1105,#1106,#1107,#1108,#1109,#1110,#1111,#1112,#1113,#1114,#1115,
#1116,#1117,#1118,#1119,#1120,#1121,#1122,#1123,#1124,#1125,#1126,#1127,
#1128,#1129,#1130,#1131,#1132,#1133,#1134,#1135,#1136,#1137),
 .UNSPECIFIED.,.F.,.F.,(4,3,3,3,3,3,3,3,3,3,3,3,3,3,3,3,3,3,3,3,3,4),(0.,
0.0747882775539491,0.149576136295515,0.224363596658041,0.29915067907393,
0.373937403974371,0.448741303042428,0.523534271273308,0.598326054287546,
0.673116733864876,0.747906391772326,0.822695109765154,0.897482969587703,
0.972270052974549,1.04708626998564,1.12187805547133,1.19666771548258,1.27145557704802,
1.34629163005184,1.42108129254452,1.4959405408039,1.57079978906328),
 .UNSPECIFIED.);
#25=SPHERICAL_SURFACE('',#668,10.);
#26=(
BOUNDED_SURFACE()
B_SPLINE_SURFACE(2,2,((#947,#948,#949),(#950,#951,#952),(#953,#954,#955)),
 .UNSPECIFIED.,.F.,.F.,.F.)
B_SPLINE_SURFACE_WITH_KNOTS((3,3),(3,3),(-1.5707963267949,0.),(-3.14159265358979,
-1.5707963267949),.UNSPECIFIED.)
GEOMETRIC_REPRESENTATION_ITEM()
RATIONAL_B_SPLINE_SURFACE(((1.,0.707106781186548,1.),(0.707106781186547,
0.5,0.707106781186547),(1.,0.707106781186548,1.)))
REPRESENTATION_ITEM('')
SURFACE()
);
#27=(
BOUNDED_SURFACE()
B_SPLINE_SURFACE(2,2,((#967,#968,#969),(#970,#971,#972),(#973,#974,#975)),
 .UNSPECIFIED.,.F.,.F.,.F.)
B_SPLINE_SURFACE_WITH_KNOTS((3,3),(3,3),(-1.5707963267949,0.),(1.5707963267949,
3.14159265358979),.UNSPECIFIED.)
GEOMETRIC_REPRESENTATION_ITEM()
RATIONAL_B_SPLINE_SURFACE(((1.,0.707106781186548,1.),(0.707106781186547,
0.5,0.707106781186547),(1.,0.707106781186548,1.)))
REPRESENTATION_ITEM('')
SURFACE()
);
#28=ELLIPSE('',#653,14.142135623731,10.);
#29=LINE('',#939,#71);
#30=LINE('',#943,#72);
#31=LINE('',#946,#73);
#32=LINE('',#965,#74);
#33=LINE('',#966,#75);
#34=LINE('',#985,#76);
#35=LINE('',#986,#77);
#36=LINE('',#992,#78);
#37=LINE('',#995,#79);
#38=LINE('',#1016,#80);
#39=LINE('',#1018,#81);
#40=LINE('',#1039,#82);
#41=LINE('',#1041,#83);
#42=LINE('',#1054,#84);
#43=LINE('',#1063,#85);
#44=LINE('',#1064,#86);
#45=LINE('',#1068,#87);
#46=LINE('',#1142,#88);
#47=LINE('',#1144,#89);
#48=LINE('',#1145,#90);
#49=LINE('',#1148,#91);
#50=LINE('',#1153,#92);
#51=LINE('',#1156,#93);
#52=LINE('',#1157,#94);
#53=LINE('',#1160,#95);
#54=LINE('',#1164,#96);
#55=LINE('',#1165,#97);
#56=LINE('',#1168,#98);
#57=LINE('',#1171,#99);
#58=LINE('',#1173,#100);
#59=LINE('',#1175,#101);
#60=LINE('',#1177,#102);
#61=LINE('',#1180,#103);
#62=LINE('',#1184,#104);
#63=LINE('',#1185,#105);
#64=LINE('',#1187,#106);
#65=LINE('',#1189,#107);
#66=LINE('',#1192,#108);
#67=LINE('',#1195,#109);
#68=LINE('',#1198,#110);
#69=LINE('',#1199,#111);
#70=LINE('',#1203,#112);
#71=VECTOR('',#744,10.);
#72=VECTOR('',#747,10.);
#73=VECTOR('',#750,10.);
#74=VECTOR('',#761,10.);
#75=VECTOR('',#762,10.);
#76=VECTOR('',#773,10.);
#77=VECTOR('',#774,10.);
#78=VECTOR('',#779,10.);
#79=VECTOR('',#782,10.);
#80=VECTOR('',#791,10.);
#81=VECTOR('',#792,10.);
#82=VECTOR('',#793,10.);
#83=VECTOR('',#796,10.);
#84=VECTOR('',#809,10.);
#85=VECTOR('',#818,10.);
#86=VECTOR('',#819,10.);
#87=VECTOR('',#824,10.);
#88=VECTOR('',#837,10.);
#89=VECTOR('',#838,10.);
#90=VECTOR('',#839,10.);
#91=VECTOR('',#842,10.);
#92=VECTOR('',#849,10.);
#93=VECTOR('',#852,10.);
#94=VECTOR('',#853,10.);
#95=VECTOR('',#856,10.);
#96=VECTOR('',#861,10.);
#97=VECTOR('',#862,10.);
#98=VECTOR('',#865,10.);
#99=VECTOR('',#870,1.5);
#100=VECTOR('',#873,1.5);
#101=VECTOR('',#876,1.5);
#102=VECTOR('',#879,1.5);
#103=VECTOR('',#882,19.8);
#104=VECTOR('',#887,10.);
#105=VECTOR('',#888,10.);
#106=VECTOR('',#891,10.);
#107=VECTOR('',#894,10.);
#108=VECTOR('',#897,10.);
#109=VECTOR('',#900,10.);
#110=VECTOR('',#903,10.);
#111=VECTOR('',#904,10.);
#112=VECTOR('',#909,10.);
#113=CYLINDRICAL_SURFACE('',#650,10.);
#114=CYLINDRICAL_SURFACE('',#657,10.);
#115=CYLINDRICAL_SURFACE('',#662,10.);
#116=CYLINDRICAL_SURFACE('',#664,10.);
#117=CYLINDRICAL_SURFACE('',#670,10.);
#118=CYLINDRICAL_SURFACE('',#682,25.);
#119=CYLINDRICAL_SURFACE('',#687,10.);
#120=CYLINDRICAL_SURFACE('',#690,10.);
#121=CYLINDRICAL_SURFACE('',#692,10.);
#122=CYLINDRICAL_SURFACE('',#695,17.5);
#123=CYLINDRICAL_SURFACE('',#698,17.5);
#124=CYLINDRICAL_SURFACE('',#700,1.5);
#125=CYLINDRICAL_SURFACE('',#701,1.5);
#126=CYLINDRICAL_SURFACE('',#702,1.5);
#127=CYLINDRICAL_SURFACE('',#703,1.5);
#128=CYLINDRICAL_SURFACE('',#704,19.8);
#129=CYLINDRICAL_SURFACE('',#709,19.95);
#130=CYLINDRICAL_SURFACE('',#712,0.200000000000001);
#131=CYLINDRICAL_SURFACE('',#716,19.95);
#132=FACE_OUTER_BOUND('',#171,.T.);
#133=FACE_OUTER_BOUND('',#172,.T.);
#134=FACE_OUTER_BOUND('',#173,.T.);
#135=FACE_OUTER_BOUND('',#174,.T.);
#136=FACE_OUTER_BOUND('',#175,.T.);
#137=FACE_OUTER_BOUND('',#176,.T.);
#138=FACE_OUTER_BOUND('',#177,.T.);
#139=FACE_OUTER_BOUND('',#178,.T.);
#140=FACE_OUTER_BOUND('',#179,.T.);
#141=FACE_OUTER_BOUND('',#180,.T.);
#142=FACE_OUTER_BOUND('',#181,.T.);
#143=FACE_OUTER_BOUND('',#182,.T.);
#144=FACE_OUTER_BOUND('',#183,.T.);
#145=FACE_OUTER_BOUND('',#184,.T.);
#146=FACE_OUTER_BOUND('',#189,.T.);
#147=FACE_OUTER_BOUND('',#190,.T.);
#148=FACE_OUTER_BOUND('',#191,.T.);
#149=FACE_OUTER_BOUND('',#192,.T.);
#150=FACE_OUTER_BOUND('',#193,.T.);
#151=FACE_OUTER_BOUND('',#194,.T.);
#152=FACE_OUTER_BOUND('',#195,.T.);
#153=FACE_OUTER_BOUND('',#196,.T.);
#154=FACE_OUTER_BOUND('',#197,.T.);
#155=FACE_OUTER_BOUND('',#198,.T.);
#156=FACE_OUTER_BOUND('',#199,.T.);
#157=FACE_OUTER_BOUND('',#200,.T.);
#158=FACE_OUTER_BOUND('',#201,.T.);
#159=FACE_OUTER_BOUND('',#202,.T.);
#160=FACE_OUTER_BOUND('',#203,.T.);
#161=FACE_OUTER_BOUND('',#204,.T.);
#162=FACE_OUTER_BOUND('',#205,.T.);
#163=FACE_OUTER_BOUND('',#206,.T.);
#164=FACE_OUTER_BOUND('',#207,.T.);
#165=FACE_OUTER_BOUND('',#209,.T.);
#166=FACE_OUTER_BOUND('',#210,.T.);
#167=FACE_OUTER_BOUND('',#211,.T.);
#168=FACE_OUTER_BOUND('',#212,.T.);
#169=FACE_OUTER_BOUND('',#213,.T.);
#170=FACE_OUTER_BOUND('',#214,.T.);
#171=EDGE_LOOP('',(#397));
#172=EDGE_LOOP('',(#398));
#173=EDGE_LOOP('',(#399));
#174=EDGE_LOOP('',(#400));
#175=EDGE_LOOP('',(#401));
#176=EDGE_LOOP('',(#402,#403,#404,#405,#406,#407));
#177=EDGE_LOOP('',(#408,#409,#410,#411));
#178=EDGE_LOOP('',(#412,#413,#414,#415));
#179=EDGE_LOOP('',(#416,#417,#418,#419));
#180=EDGE_LOOP('',(#420,#421,#422,#423));
#181=EDGE_LOOP('',(#424,#425,#426,#427,#428));
#182=EDGE_LOOP('',(#429,#430,#431));
#183=EDGE_LOOP('',(#432,#433,#434,#435,#436,#437,#438));
#184=EDGE_LOOP('',(#439,#440,#441,#442,#443,#444));
#185=EDGE_LOOP('',(#445));
#186=EDGE_LOOP('',(#446));
#187=EDGE_LOOP('',(#447));
#188=EDGE_LOOP('',(#448));
#189=EDGE_LOOP('',(#449,#450,#451,#452,#453,#454,#455,#456,#457,#458,#459));
#190=EDGE_LOOP('',(#460,#461,#462,#463));
#191=EDGE_LOOP('',(#464,#465,#466,#467,#468));
#192=EDGE_LOOP('',(#469,#470,#471,#472,#473));
#193=EDGE_LOOP('',(#474,#475,#476,#477,#478,#479,#480));
#194=EDGE_LOOP('',(#481,#482,#483,#484));
#195=EDGE_LOOP('',(#485,#486,#487,#488));
#196=EDGE_LOOP('',(#489,#490,#491,#492));
#197=EDGE_LOOP('',(#493,#494,#495,#496));
#198=EDGE_LOOP('',(#497,#498,#499,#500));
#199=EDGE_LOOP('',(#501,#502,#503,#504));
#200=EDGE_LOOP('',(#505,#506,#507,#508));
#201=EDGE_LOOP('',(#509,#510,#511,#512));
#202=EDGE_LOOP('',(#513,#514,#515,#516));
#203=EDGE_LOOP('',(#517,#518,#519,#520));
#204=EDGE_LOOP('',(#521,#522,#523,#524));
#205=EDGE_LOOP('',(#525,#526,#527,#528));
#206=EDGE_LOOP('',(#529,#530,#531,#532));
#207=EDGE_LOOP('',(#533,#534,#535,#536,#537,#538,#539,#540,#541,#542,#543));
#208=EDGE_LOOP('',(#544));
#209=EDGE_LOOP('',(#545,#546,#547,#548));
#210=EDGE_LOOP('',(#549,#550,#551,#552));
#211=EDGE_LOOP('',(#553,#554,#555,#556));
#212=EDGE_LOOP('',(#557,#558,#559,#560));
#213=EDGE_LOOP('',(#561,#562,#563,#564,#565,#566));
#214=EDGE_LOOP('',(#567,#568,#569,#570));
#215=CIRCLE('',#641,19.8);
#216=CIRCLE('',#643,1.5);
#217=CIRCLE('',#645,1.5);
#218=CIRCLE('',#647,1.5);
#219=CIRCLE('',#649,1.5);
#220=CIRCLE('',#651,10.);
#221=CIRCLE('',#652,10.);
#222=CIRCLE('',#654,10.);
#223=CIRCLE('',#655,7.5);
#224=CIRCLE('',#656,17.5);
#225=CIRCLE('',#658,10.);
#226=CIRCLE('',#659,10.);
#227=CIRCLE('',#660,7.5);
#228=CIRCLE('',#661,17.5);
#229=CIRCLE('',#663,10.);
#230=CIRCLE('',#665,10.);
#231=CIRCLE('',#666,10.);
#232=CIRCLE('',#667,10.);
#233=CIRCLE('',#669,10.);
#234=CIRCLE('',#672,1.5);
#235=CIRCLE('',#673,1.5);
#236=CIRCLE('',#674,1.5);
#237=CIRCLE('',#675,1.5);
#238=CIRCLE('',#677,19.95);
#239=CIRCLE('',#678,19.95);
#240=CIRCLE('',#679,0.200000000000001);
#241=CIRCLE('',#680,19.95);
#242=CIRCLE('',#681,25.);
#243=CIRCLE('',#683,25.);
#244=CIRCLE('',#685,10.);
#245=CIRCLE('',#686,15.);
#246=CIRCLE('',#688,10.);
#247=CIRCLE('',#691,10.);
#248=CIRCLE('',#693,10.);
#249=CIRCLE('',#696,17.5);
#250=CIRCLE('',#699,17.5);
#251=CIRCLE('',#705,19.8);
#252=CIRCLE('',#710,19.95);
#253=CIRCLE('',#713,0.200000000000001);
#254=CIRCLE('',#715,19.95);
#255=VERTEX_POINT('',#920);
#256=VERTEX_POINT('',#923);
#257=VERTEX_POINT('',#926);
#258=VERTEX_POINT('',#929);
#259=VERTEX_POINT('',#932);
#260=VERTEX_POINT('',#935);
#261=VERTEX_POINT('',#936);
#262=VERTEX_POINT('',#938);
#263=VERTEX_POINT('',#940);
#264=VERTEX_POINT('',#942);
#265=VERTEX_POINT('',#944);
#266=VERTEX_POINT('',#956);
#267=VERTEX_POINT('',#957);
#268=VERTEX_POINT('',#962);
#269=VERTEX_POINT('',#963);
#270=VERTEX_POINT('',#976);
#271=VERTEX_POINT('',#977);
#272=VERTEX_POINT('',#982);
#273=VERTEX_POINT('',#983);
#274=VERTEX_POINT('',#988);
#275=VERTEX_POINT('',#989);
#276=VERTEX_POINT('',#991);
#277=VERTEX_POINT('',#994);
#278=VERTEX_POINT('',#1000);
#279=VERTEX_POINT('',#1001);
#280=VERTEX_POINT('',#1017);
#281=VERTEX_POINT('',#1019);
#282=VERTEX_POINT('',#1030);
#283=VERTEX_POINT('',#1042);
#284=VERTEX_POINT('',#1044);
#285=VERTEX_POINT('',#1046);
#286=VERTEX_POINT('',#1048);
#287=VERTEX_POINT('',#1051);
#288=VERTEX_POINT('',#1053);
#289=VERTEX_POINT('',#1055);
#290=VERTEX_POINT('',#1057);
#291=VERTEX_POINT('',#1060);
#292=VERTEX_POINT('',#1062);
#293=VERTEX_POINT('',#1066);
#294=VERTEX_POINT('',#1070);
#295=VERTEX_POINT('',#1072);
#296=VERTEX_POINT('',#1141);
#297=VERTEX_POINT('',#1143);
#298=VERTEX_POINT('',#1147);
#299=VERTEX_POINT('',#1151);
#300=VERTEX_POINT('',#1155);
#301=VERTEX_POINT('',#1159);
#302=VERTEX_POINT('',#1163);
#303=VERTEX_POINT('',#1167);
#304=VERTEX_POINT('',#1179);
#305=VERTEX_POINT('',#1183);
#306=VERTEX_POINT('',#1191);
#307=VERTEX_POINT('',#1193);
#308=VERTEX_POINT('',#1197);
#309=VERTEX_POINT('',#1201);
#310=EDGE_CURVE('',#255,#255,#215,.T.);
#311=EDGE_CURVE('',#256,#256,#216,.T.);
#312=EDGE_CURVE('',#257,#257,#217,.T.);
#313=EDGE_CURVE('',#258,#258,#218,.T.);
#314=EDGE_CURVE('',#259,#259,#219,.T.);
#315=EDGE_CURVE('',#260,#261,#220,.T.);
#316=EDGE_CURVE('',#261,#262,#29,.T.);
#317=EDGE_CURVE('',#262,#263,#221,.T.);
#318=EDGE_CURVE('',#263,#264,#30,.T.);
#319=EDGE_CURVE('',#264,#265,#28,.T.);
#320=EDGE_CURVE('',#265,#260,#31,.T.);
#321=EDGE_CURVE('',#266,#267,#222,.T.);
#322=EDGE_CURVE('',#267,#263,#223,.T.);
#323=EDGE_CURVE('',#262,#266,#224,.T.);
#324=EDGE_CURVE('',#268,#269,#225,.T.);
#325=EDGE_CURVE('',#269,#267,#32,.T.);
#326=EDGE_CURVE('',#266,#268,#33,.T.);
#327=EDGE_CURVE('',#270,#271,#226,.T.);
#328=EDGE_CURVE('',#271,#269,#227,.T.);
#329=EDGE_CURVE('',#268,#270,#228,.T.);
#330=EDGE_CURVE('',#272,#273,#229,.T.);
#331=EDGE_CURVE('',#273,#271,#34,.T.);
#332=EDGE_CURVE('',#270,#272,#35,.T.);
#333=EDGE_CURVE('',#274,#275,#230,.T.);
#334=EDGE_CURVE('',#275,#276,#36,.T.);
#335=EDGE_CURVE('',#276,#272,#231,.T.);
#336=EDGE_CURVE('',#272,#277,#37,.T.);
#337=EDGE_CURVE('',#277,#274,#232,.T.);
#338=EDGE_CURVE('',#276,#273,#233,.T.);
#339=EDGE_CURVE('',#278,#279,#21,.T.);
#340=EDGE_CURVE('',#278,#275,#38,.T.);
#341=EDGE_CURVE('',#274,#280,#39,.T.);
#342=EDGE_CURVE('',#280,#281,#22,.T.);
#343=EDGE_CURVE('',#281,#282,#23,.T.);
#344=EDGE_CURVE('',#282,#279,#40,.T.);
#345=EDGE_CURVE('',#264,#273,#41,.T.);
#346=EDGE_CURVE('',#283,#283,#234,.T.);
#347=EDGE_CURVE('',#284,#284,#235,.T.);
#348=EDGE_CURVE('',#285,#285,#236,.T.);
#349=EDGE_CURVE('',#286,#286,#237,.T.);
#350=EDGE_CURVE('',#287,#278,#238,.T.);
#351=EDGE_CURVE('',#287,#288,#42,.T.);
#352=EDGE_CURVE('',#289,#288,#239,.T.);
#353=EDGE_CURVE('',#289,#290,#240,.T.);
#354=EDGE_CURVE('',#279,#290,#241,.T.);
#355=EDGE_CURVE('',#282,#291,#242,.T.);
#356=EDGE_CURVE('',#292,#291,#43,.T.);
#357=EDGE_CURVE('',#276,#292,#44,.T.);
#358=EDGE_CURVE('',#293,#281,#243,.T.);
#359=EDGE_CURVE('',#293,#291,#45,.T.);
#360=EDGE_CURVE('',#280,#294,#244,.T.);
#361=EDGE_CURVE('',#294,#295,#245,.T.);
#362=EDGE_CURVE('',#293,#295,#24,.T.);
#363=EDGE_CURVE('',#292,#265,#246,.T.);
#364=EDGE_CURVE('',#296,#293,#46,.T.);
#365=EDGE_CURVE('',#297,#296,#47,.T.);
#366=EDGE_CURVE('',#260,#297,#48,.T.);
#367=EDGE_CURVE('',#295,#298,#49,.T.);
#368=EDGE_CURVE('',#296,#298,#247,.T.);
#369=EDGE_CURVE('',#274,#299,#248,.F.);
#370=EDGE_CURVE('',#299,#294,#50,.T.);
#371=EDGE_CURVE('',#300,#270,#51,.T.);
#372=EDGE_CURVE('',#277,#300,#52,.T.);
#373=EDGE_CURVE('',#268,#301,#53,.T.);
#374=EDGE_CURVE('',#301,#300,#249,.T.);
#375=EDGE_CURVE('',#302,#266,#54,.T.);
#376=EDGE_CURVE('',#301,#302,#55,.T.);
#377=EDGE_CURVE('',#262,#303,#56,.T.);
#378=EDGE_CURVE('',#303,#302,#250,.T.);
#379=EDGE_CURVE('',#257,#283,#57,.T.);
#380=EDGE_CURVE('',#256,#284,#58,.T.);
#381=EDGE_CURVE('',#259,#285,#59,.T.);
#382=EDGE_CURVE('',#258,#286,#60,.T.);
#383=EDGE_CURVE('',#255,#304,#61,.T.);
#384=EDGE_CURVE('',#304,#304,#251,.T.);
#385=EDGE_CURVE('',#305,#297,#62,.T.);
#386=EDGE_CURVE('',#261,#305,#63,.T.);
#387=EDGE_CURVE('',#303,#305,#64,.T.);
#388=EDGE_CURVE('',#299,#298,#65,.T.);
#389=EDGE_CURVE('',#306,#288,#66,.T.);
#390=EDGE_CURVE('',#307,#306,#252,.T.);
#391=EDGE_CURVE('',#289,#307,#67,.T.);
#392=EDGE_CURVE('',#308,#287,#68,.T.);
#393=EDGE_CURVE('',#306,#308,#69,.T.);
#394=EDGE_CURVE('',#309,#307,#253,.T.);
#395=EDGE_CURVE('',#290,#309,#70,.T.);
#396=EDGE_CURVE('',#308,#309,#254,.T.);
#397=ORIENTED_EDGE('',*,*,#310,.F.);
#398=ORIENTED_EDGE('',*,*,#311,.F.);
#399=ORIENTED_EDGE('',*,*,#312,.F.);
#400=ORIENTED_EDGE('',*,*,#313,.F.);
#401=ORIENTED_EDGE('',*,*,#314,.F.);
#402=ORIENTED_EDGE('',*,*,#315,.T.);
#403=ORIENTED_EDGE('',*,*,#316,.T.);
#404=ORIENTED_EDGE('',*,*,#317,.T.);
#405=ORIENTED_EDGE('',*,*,#318,.T.);
#406=ORIENTED_EDGE('',*,*,#319,.T.);
#407=ORIENTED_EDGE('',*,*,#320,.T.);
#408=ORIENTED_EDGE('',*,*,#321,.T.);
#409=ORIENTED_EDGE('',*,*,#322,.T.);
#410=ORIENTED_EDGE('',*,*,#317,.F.);
#411=ORIENTED_EDGE('',*,*,#323,.T.);
#412=ORIENTED_EDGE('',*,*,#324,.T.);
#413=ORIENTED_EDGE('',*,*,#325,.T.);
#414=ORIENTED_EDGE('',*,*,#321,.F.);
#415=ORIENTED_EDGE('',*,*,#326,.T.);
#416=ORIENTED_EDGE('',*,*,#327,.T.);
#417=ORIENTED_EDGE('',*,*,#328,.T.);
#418=ORIENTED_EDGE('',*,*,#324,.F.);
#419=ORIENTED_EDGE('',*,*,#329,.T.);
#420=ORIENTED_EDGE('',*,*,#330,.T.);
#421=ORIENTED_EDGE('',*,*,#331,.T.);
#422=ORIENTED_EDGE('',*,*,#327,.F.);
#423=ORIENTED_EDGE('',*,*,#332,.T.);
#424=ORIENTED_EDGE('',*,*,#333,.T.);
#425=ORIENTED_EDGE('',*,*,#334,.T.);
#426=ORIENTED_EDGE('',*,*,#335,.T.);
#427=ORIENTED_EDGE('',*,*,#336,.T.);
#428=ORIENTED_EDGE('',*,*,#337,.T.);
#429=ORIENTED_EDGE('',*,*,#335,.F.);
#430=ORIENTED_EDGE('',*,*,#338,.T.);
#431=ORIENTED_EDGE('',*,*,#330,.F.);
#432=ORIENTED_EDGE('',*,*,#339,.F.);
#433=ORIENTED_EDGE('',*,*,#340,.T.);
#434=ORIENTED_EDGE('',*,*,#333,.F.);
#435=ORIENTED_EDGE('',*,*,#341,.T.);
#436=ORIENTED_EDGE('',*,*,#342,.T.);
#437=ORIENTED_EDGE('',*,*,#343,.T.);
#438=ORIENTED_EDGE('',*,*,#344,.T.);
#439=ORIENTED_EDGE('',*,*,#318,.F.);
#440=ORIENTED_EDGE('',*,*,#322,.F.);
#441=ORIENTED_EDGE('',*,*,#325,.F.);
#442=ORIENTED_EDGE('',*,*,#328,.F.);
#443=ORIENTED_EDGE('',*,*,#331,.F.);
#444=ORIENTED_EDGE('',*,*,#345,.F.);
#445=ORIENTED_EDGE('',*,*,#346,.T.);
#446=ORIENTED_EDGE('',*,*,#347,.T.);
#447=ORIENTED_EDGE('',*,*,#348,.T.);
#448=ORIENTED_EDGE('',*,*,#349,.T.);
#449=ORIENTED_EDGE('',*,*,#334,.F.);
#450=ORIENTED_EDGE('',*,*,#340,.F.);
#451=ORIENTED_EDGE('',*,*,#350,.F.);
#452=ORIENTED_EDGE('',*,*,#351,.T.);
#453=ORIENTED_EDGE('',*,*,#352,.F.);
#454=ORIENTED_EDGE('',*,*,#353,.T.);
#455=ORIENTED_EDGE('',*,*,#354,.F.);
#456=ORIENTED_EDGE('',*,*,#344,.F.);
#457=ORIENTED_EDGE('',*,*,#355,.T.);
#458=ORIENTED_EDGE('',*,*,#356,.F.);
#459=ORIENTED_EDGE('',*,*,#357,.F.);
#460=ORIENTED_EDGE('',*,*,#343,.F.);
#461=ORIENTED_EDGE('',*,*,#358,.F.);
#462=ORIENTED_EDGE('',*,*,#359,.T.);
#463=ORIENTED_EDGE('',*,*,#355,.F.);
#464=ORIENTED_EDGE('',*,*,#342,.F.);
#465=ORIENTED_EDGE('',*,*,#360,.T.);
#466=ORIENTED_EDGE('',*,*,#361,.T.);
#467=ORIENTED_EDGE('',*,*,#362,.F.);
#468=ORIENTED_EDGE('',*,*,#358,.T.);
#469=ORIENTED_EDGE('',*,*,#319,.F.);
#470=ORIENTED_EDGE('',*,*,#345,.T.);
#471=ORIENTED_EDGE('',*,*,#338,.F.);
#472=ORIENTED_EDGE('',*,*,#357,.T.);
#473=ORIENTED_EDGE('',*,*,#363,.T.);
#474=ORIENTED_EDGE('',*,*,#320,.F.);
#475=ORIENTED_EDGE('',*,*,#363,.F.);
#476=ORIENTED_EDGE('',*,*,#356,.T.);
#477=ORIENTED_EDGE('',*,*,#359,.F.);
#478=ORIENTED_EDGE('',*,*,#364,.F.);
#479=ORIENTED_EDGE('',*,*,#365,.F.);
#480=ORIENTED_EDGE('',*,*,#366,.F.);
#481=ORIENTED_EDGE('',*,*,#362,.T.);
#482=ORIENTED_EDGE('',*,*,#367,.T.);
#483=ORIENTED_EDGE('',*,*,#368,.F.);
#484=ORIENTED_EDGE('',*,*,#364,.T.);
#485=ORIENTED_EDGE('',*,*,#341,.F.);
#486=ORIENTED_EDGE('',*,*,#369,.T.);
#487=ORIENTED_EDGE('',*,*,#370,.T.);
#488=ORIENTED_EDGE('',*,*,#360,.F.);
#489=ORIENTED_EDGE('',*,*,#332,.F.);
#490=ORIENTED_EDGE('',*,*,#371,.F.);
#491=ORIENTED_EDGE('',*,*,#372,.F.);
#492=ORIENTED_EDGE('',*,*,#336,.F.);
#493=ORIENTED_EDGE('',*,*,#329,.F.);
#494=ORIENTED_EDGE('',*,*,#373,.T.);
#495=ORIENTED_EDGE('',*,*,#374,.T.);
#496=ORIENTED_EDGE('',*,*,#371,.T.);
#497=ORIENTED_EDGE('',*,*,#326,.F.);
#498=ORIENTED_EDGE('',*,*,#375,.F.);
#499=ORIENTED_EDGE('',*,*,#376,.F.);
#500=ORIENTED_EDGE('',*,*,#373,.F.);
#501=ORIENTED_EDGE('',*,*,#323,.F.);
#502=ORIENTED_EDGE('',*,*,#377,.T.);
#503=ORIENTED_EDGE('',*,*,#378,.T.);
#504=ORIENTED_EDGE('',*,*,#375,.T.);
#505=ORIENTED_EDGE('',*,*,#312,.T.);
#506=ORIENTED_EDGE('',*,*,#379,.T.);
#507=ORIENTED_EDGE('',*,*,#346,.F.);
#508=ORIENTED_EDGE('',*,*,#379,.F.);
#509=ORIENTED_EDGE('',*,*,#311,.T.);
#510=ORIENTED_EDGE('',*,*,#380,.T.);
#511=ORIENTED_EDGE('',*,*,#347,.F.);
#512=ORIENTED_EDGE('',*,*,#380,.F.);
#513=ORIENTED_EDGE('',*,*,#314,.T.);
#514=ORIENTED_EDGE('',*,*,#381,.T.);
#515=ORIENTED_EDGE('',*,*,#348,.F.);
#516=ORIENTED_EDGE('',*,*,#381,.F.);
#517=ORIENTED_EDGE('',*,*,#313,.T.);
#518=ORIENTED_EDGE('',*,*,#382,.T.);
#519=ORIENTED_EDGE('',*,*,#349,.F.);
#520=ORIENTED_EDGE('',*,*,#382,.F.);
#521=ORIENTED_EDGE('',*,*,#310,.T.);
#522=ORIENTED_EDGE('',*,*,#383,.T.);
#523=ORIENTED_EDGE('',*,*,#384,.F.);
#524=ORIENTED_EDGE('',*,*,#383,.F.);
#525=ORIENTED_EDGE('',*,*,#315,.F.);
#526=ORIENTED_EDGE('',*,*,#366,.T.);
#527=ORIENTED_EDGE('',*,*,#385,.F.);
#528=ORIENTED_EDGE('',*,*,#386,.F.);
#529=ORIENTED_EDGE('',*,*,#316,.F.);
#530=ORIENTED_EDGE('',*,*,#386,.T.);
#531=ORIENTED_EDGE('',*,*,#387,.F.);
#532=ORIENTED_EDGE('',*,*,#377,.F.);
#533=ORIENTED_EDGE('',*,*,#337,.F.);
#534=ORIENTED_EDGE('',*,*,#372,.T.);
#535=ORIENTED_EDGE('',*,*,#374,.F.);
#536=ORIENTED_EDGE('',*,*,#376,.T.);
#537=ORIENTED_EDGE('',*,*,#378,.F.);
#538=ORIENTED_EDGE('',*,*,#387,.T.);
#539=ORIENTED_EDGE('',*,*,#385,.T.);
#540=ORIENTED_EDGE('',*,*,#365,.T.);
#541=ORIENTED_EDGE('',*,*,#368,.T.);
#542=ORIENTED_EDGE('',*,*,#388,.F.);
#543=ORIENTED_EDGE('',*,*,#369,.F.);
#544=ORIENTED_EDGE('',*,*,#384,.T.);
#545=ORIENTED_EDGE('',*,*,#352,.T.);
#546=ORIENTED_EDGE('',*,*,#389,.F.);
#547=ORIENTED_EDGE('',*,*,#390,.F.);
#548=ORIENTED_EDGE('',*,*,#391,.F.);
#549=ORIENTED_EDGE('',*,*,#351,.F.);
#550=ORIENTED_EDGE('',*,*,#392,.F.);
#551=ORIENTED_EDGE('',*,*,#393,.F.);
#552=ORIENTED_EDGE('',*,*,#389,.T.);
#553=ORIENTED_EDGE('',*,*,#353,.F.);
#554=ORIENTED_EDGE('',*,*,#391,.T.);
#555=ORIENTED_EDGE('',*,*,#394,.F.);
#556=ORIENTED_EDGE('',*,*,#395,.F.);
#557=ORIENTED_EDGE('',*,*,#390,.T.);
#558=ORIENTED_EDGE('',*,*,#393,.T.);
#559=ORIENTED_EDGE('',*,*,#396,.T.);
#560=ORIENTED_EDGE('',*,*,#394,.T.);
#561=ORIENTED_EDGE('',*,*,#350,.T.);
#562=ORIENTED_EDGE('',*,*,#339,.T.);
#563=ORIENTED_EDGE('',*,*,#354,.T.);
#564=ORIENTED_EDGE('',*,*,#395,.T.);
#565=ORIENTED_EDGE('',*,*,#396,.F.);
#566=ORIENTED_EDGE('',*,*,#392,.T.);
#567=ORIENTED_EDGE('',*,*,#370,.F.);
#568=ORIENTED_EDGE('',*,*,#388,.T.);
#569=ORIENTED_EDGE('',*,*,#367,.F.);
#570=ORIENTED_EDGE('',*,*,#361,.F.);
#571=PLANE('',#640);
#572=PLANE('',#642);
#573=PLANE('',#644);
#574=PLANE('',#646);
#575=PLANE('',#648);
#576=PLANE('',#671);
#577=PLANE('',#676);
#578=PLANE('',#689);
#579=PLANE('',#694);
#580=PLANE('',#697);
#581=PLANE('',#706);
#582=PLANE('',#707);
#583=PLANE('',#708);
#584=PLANE('',#711);
#585=PLANE('',#714);
#586=PLANE('',#717);
#587=ADVANCED_FACE('',(#132),#571,.F.);
#588=ADVANCED_FACE('',(#133),#572,.T.);
#589=ADVANCED_FACE('',(#134),#573,.T.);
#590=ADVANCED_FACE('',(#135),#574,.T.);
#591=ADVANCED_FACE('',(#136),#575,.T.);
#592=ADVANCED_FACE('',(#137),#113,.T.);
#593=ADVANCED_FACE('',(#138),#26,.F.);
#594=ADVANCED_FACE('',(#139),#114,.T.);
#595=ADVANCED_FACE('',(#140),#27,.F.);
#596=ADVANCED_FACE('',(#141),#115,.T.);
#597=ADVANCED_FACE('',(#142),#116,.T.);
#598=ADVANCED_FACE('',(#143),#25,.T.);
#599=ADVANCED_FACE('',(#144),#117,.T.);
#600=ADVANCED_FACE('',(#145,#16,#17,#18,#19),#576,.T.);
#601=ADVANCED_FACE('',(#146),#577,.T.);
#602=ADVANCED_FACE('',(#147),#118,.T.);
#603=ADVANCED_FACE('',(#148),#15,.T.);
#604=ADVANCED_FACE('',(#149),#119,.T.);
#605=ADVANCED_FACE('',(#150),#578,.T.);
#606=ADVANCED_FACE('',(#151),#120,.T.);
#607=ADVANCED_FACE('',(#152),#121,.T.);
#608=ADVANCED_FACE('',(#153),#579,.T.);
#609=ADVANCED_FACE('',(#154),#122,.T.);
#610=ADVANCED_FACE('',(#155),#580,.T.);
#611=ADVANCED_FACE('',(#156),#123,.T.);
#612=ADVANCED_FACE('',(#157),#124,.F.);
#613=ADVANCED_FACE('',(#158),#125,.F.);
#614=ADVANCED_FACE('',(#159),#126,.F.);
#615=ADVANCED_FACE('',(#160),#127,.F.);
#616=ADVANCED_FACE('',(#161),#128,.F.);
#617=ADVANCED_FACE('',(#162),#581,.T.);
#618=ADVANCED_FACE('',(#163),#582,.T.);
#619=ADVANCED_FACE('',(#164,#20),#583,.T.);
#620=ADVANCED_FACE('',(#165),#129,.T.);
#621=ADVANCED_FACE('',(#166),#584,.T.);
#622=ADVANCED_FACE('',(#167),#130,.T.);
#623=ADVANCED_FACE('',(#168),#585,.F.);
#624=ADVANCED_FACE('',(#169),#131,.T.);
#625=ADVANCED_FACE('',(#170),#586,.F.);
#626=CLOSED_SHELL('',(#587,#588,#589,#590,#591,#592,#593,#594,#595,#596,
#597,#598,#599,#600,#601,#602,#603,#604,#605,#606,#607,#608,#609,#610,#611,
#612,#613,#614,#615,#616,#617,#618,#619,#620,#621,#622,#623,#624,#625));
#627=DERIVED_UNIT_ELEMENT(#629,1.);
#628=DERIVED_UNIT_ELEMENT(#1213,-3.);
#629=(
MASS_UNIT()
NAMED_UNIT(*)
SI_UNIT(.KILO.,.GRAM.)
);
#630=DERIVED_UNIT((#627,#628));
#631=MEASURE_REPRESENTATION_ITEM('density measure',
POSITIVE_RATIO_MEASURE(7850.),#630);
#632=PROPERTY_DEFINITION_REPRESENTATION(#637,#634);
#633=PROPERTY_DEFINITION_REPRESENTATION(#638,#635);
#634=REPRESENTATION('material name',(#636),#1210);
#635=REPRESENTATION('density',(#631),#1210);
#636=DESCRIPTIVE_REPRESENTATION_ITEM('\X2\AC15CCA0\X0\','\X2\AC15CCA0\X0\');
#637=PROPERTY_DEFINITION('material property','material name',#1220);
#638=PROPERTY_DEFINITION('material property','density of part',#1220);
#639=AXIS2_PLACEMENT_3D('',#918,#718,#719);
#640=AXIS2_PLACEMENT_3D('',#919,#720,#721);
#641=AXIS2_PLACEMENT_3D('',#921,#722,#723);
#642=AXIS2_PLACEMENT_3D('',#922,#724,#725);
#643=AXIS2_PLACEMENT_3D('',#924,#726,#727);
#644=AXIS2_PLACEMENT_3D('',#925,#728,#729);
#645=AXIS2_PLACEMENT_3D('',#927,#730,#731);
#646=AXIS2_PLACEMENT_3D('',#928,#732,#733);
#647=AXIS2_PLACEMENT_3D('',#930,#734,#735);
#648=AXIS2_PLACEMENT_3D('',#931,#736,#737);
#649=AXIS2_PLACEMENT_3D('',#933,#738,#739);
#650=AXIS2_PLACEMENT_3D('',#934,#740,#741);
#651=AXIS2_PLACEMENT_3D('',#937,#742,#743);
#652=AXIS2_PLACEMENT_3D('',#941,#745,#746);
#653=AXIS2_PLACEMENT_3D('',#945,#748,#749);
#654=AXIS2_PLACEMENT_3D('',#958,#751,#752);
#655=AXIS2_PLACEMENT_3D('',#959,#753,#754);
#656=AXIS2_PLACEMENT_3D('',#960,#755,#756);
#657=AXIS2_PLACEMENT_3D('',#961,#757,#758);
#658=AXIS2_PLACEMENT_3D('',#964,#759,#760);
#659=AXIS2_PLACEMENT_3D('',#978,#763,#764);
#660=AXIS2_PLACEMENT_3D('',#979,#765,#766);
#661=AXIS2_PLACEMENT_3D('',#980,#767,#768);
#662=AXIS2_PLACEMENT_3D('',#981,#769,#770);
#663=AXIS2_PLACEMENT_3D('',#984,#771,#772);
#664=AXIS2_PLACEMENT_3D('',#987,#775,#776);
#665=AXIS2_PLACEMENT_3D('',#990,#777,#778);
#666=AXIS2_PLACEMENT_3D('',#993,#780,#781);
#667=AXIS2_PLACEMENT_3D('',#996,#783,#784);
#668=AXIS2_PLACEMENT_3D('',#997,#785,#786);
#669=AXIS2_PLACEMENT_3D('',#998,#787,#788);
#670=AXIS2_PLACEMENT_3D('',#999,#789,#790);
#671=AXIS2_PLACEMENT_3D('',#1040,#794,#795);
#672=AXIS2_PLACEMENT_3D('',#1043,#797,#798);
#673=AXIS2_PLACEMENT_3D('',#1045,#799,#800);
#674=AXIS2_PLACEMENT_3D('',#1047,#801,#802);
#675=AXIS2_PLACEMENT_3D('',#1049,#803,#804);
#676=AXIS2_PLACEMENT_3D('',#1050,#805,#806);
#677=AXIS2_PLACEMENT_3D('',#1052,#807,#808);
#678=AXIS2_PLACEMENT_3D('',#1056,#810,#811);
#679=AXIS2_PLACEMENT_3D('',#1058,#812,#813);
#680=AXIS2_PLACEMENT_3D('',#1059,#814,#815);
#681=AXIS2_PLACEMENT_3D('',#1061,#816,#817);
#682=AXIS2_PLACEMENT_3D('',#1065,#820,#821);
#683=AXIS2_PLACEMENT_3D('',#1067,#822,#823);
#684=AXIS2_PLACEMENT_3D('',#1069,#825,#826);
#685=AXIS2_PLACEMENT_3D('',#1071,#827,#828);
#686=AXIS2_PLACEMENT_3D('',#1073,#829,#830);
#687=AXIS2_PLACEMENT_3D('',#1138,#831,#832);
#688=AXIS2_PLACEMENT_3D('',#1139,#833,#834);
#689=AXIS2_PLACEMENT_3D('',#1140,#835,#836);
#690=AXIS2_PLACEMENT_3D('',#1146,#840,#841);
#691=AXIS2_PLACEMENT_3D('',#1149,#843,#844);
#692=AXIS2_PLACEMENT_3D('',#1150,#845,#846);
#693=AXIS2_PLACEMENT_3D('',#1152,#847,#848);
#694=AXIS2_PLACEMENT_3D('',#1154,#850,#851);
#695=AXIS2_PLACEMENT_3D('',#1158,#854,#855);
#696=AXIS2_PLACEMENT_3D('',#1161,#857,#858);
#697=AXIS2_PLACEMENT_3D('',#1162,#859,#860);
#698=AXIS2_PLACEMENT_3D('',#1166,#863,#864);
#699=AXIS2_PLACEMENT_3D('',#1169,#866,#867);
#700=AXIS2_PLACEMENT_3D('',#1170,#868,#869);
#701=AXIS2_PLACEMENT_3D('',#1172,#871,#872);
#702=AXIS2_PLACEMENT_3D('',#1174,#874,#875);
#703=AXIS2_PLACEMENT_3D('',#1176,#877,#878);
#704=AXIS2_PLACEMENT_3D('',#1178,#880,#881);
#705=AXIS2_PLACEMENT_3D('',#1181,#883,#884);
#706=AXIS2_PLACEMENT_3D('',#1182,#885,#886);
#707=AXIS2_PLACEMENT_3D('',#1186,#889,#890);
#708=AXIS2_PLACEMENT_3D('',#1188,#892,#893);
#709=AXIS2_PLACEMENT_3D('',#1190,#895,#896);
#710=AXIS2_PLACEMENT_3D('',#1194,#898,#899);
#711=AXIS2_PLACEMENT_3D('',#1196,#901,#902);
#712=AXIS2_PLACEMENT_3D('',#1200,#905,#906);
#713=AXIS2_PLACEMENT_3D('',#1202,#907,#908);
#714=AXIS2_PLACEMENT_3D('',#1204,#910,#911);
#715=AXIS2_PLACEMENT_3D('',#1205,#912,#913);
#716=AXIS2_PLACEMENT_3D('',#1206,#914,#915);
#717=AXIS2_PLACEMENT_3D('',#1207,#916,#917);
#718=DIRECTION('axis',(0.,0.,1.));
#719=DIRECTION('refdir',(1.,0.,0.));
#720=DIRECTION('center_axis',(5.42482725407467E-14,2.77555756156295E-17,
-1.));
#721=DIRECTION('ref_axis',(-1.,5.55111512312563E-17,-5.42482725407467E-14));
#722=DIRECTION('center_axis',(5.42482725407467E-14,2.77555756156295E-17,
-1.));
#723=DIRECTION('ref_axis',(1.,0.,0.));
#724=DIRECTION('center_axis',(5.42482725407467E-14,2.77555756156295E-17,
-1.));
#725=DIRECTION('ref_axis',(1.,-5.55111512312563E-17,5.42482725407467E-14));
#726=DIRECTION('center_axis',(-5.42482725407467E-14,-2.77555756156295E-17,
1.));
#727=DIRECTION('ref_axis',(1.,-5.55111512312563E-17,5.42482725407467E-14));
#728=DIRECTION('center_axis',(5.42482725407467E-14,2.77555756156295E-17,
-1.));
#729=DIRECTION('ref_axis',(1.,-5.55111512312563E-17,5.42482725407467E-14));
#730=DIRECTION('center_axis',(-5.42482725407467E-14,-2.77555756156295E-17,
1.));
#731=DIRECTION('ref_axis',(1.,-5.55111512312563E-17,5.42482725407467E-14));
#732=DIRECTION('center_axis',(5.42482725407467E-14,2.77555756156295E-17,
-1.));
#733=DIRECTION('ref_axis',(1.,-5.55111512312563E-17,5.42482725407467E-14));
#734=DIRECTION('center_axis',(-5.42482725407467E-14,-2.77555756156295E-17,
1.));
#735=DIRECTION('ref_axis',(1.,-5.55111512312563E-17,5.42482725407467E-14));
#736=DIRECTION('center_axis',(5.42482725407467E-14,2.77555756156295E-17,
-1.));
#737=DIRECTION('ref_axis',(1.,-5.55111512312563E-17,5.42482725407467E-14));
#738=DIRECTION('center_axis',(-5.42482725407467E-14,-2.77555756156295E-17,
1.));
#739=DIRECTION('ref_axis',(1.,-5.55111512312563E-17,5.42482725407467E-14));
#740=DIRECTION('center_axis',(-1.,0.,0.));
#741=DIRECTION('ref_axis',(0.,-0.707106781186547,-0.707106781186547));
#742=DIRECTION('center_axis',(-1.,1.77635685276948E-16,0.));
#743=DIRECTION('ref_axis',(0.,-0.707106781186547,-0.707106781186547));
#744=DIRECTION('',(-1.,0.,0.));
#745=DIRECTION('center_axis',(1.,0.,0.));
#746=DIRECTION('ref_axis',(0.,-1.,0.));
#747=DIRECTION('',(1.,0.,0.));
#748=DIRECTION('center_axis',(-0.707106781186548,-0.707106781186548,0.));
#749=DIRECTION('ref_axis',(0.707106781186547,-0.707106781186547,0.));
#750=DIRECTION('',(-1.,0.,0.));
#751=DIRECTION('center_axis',(0.,-1.,0.));
#752=DIRECTION('ref_axis',(-1.,0.,0.));
#753=DIRECTION('center_axis',(0.,0.,1.));
#754=DIRECTION('ref_axis',(-0.707106781186547,-0.707106781186548,0.));
#755=DIRECTION('center_axis',(0.,0.,-1.));
#756=DIRECTION('ref_axis',(-0.707106781186547,-0.707106781186548,0.));
#757=DIRECTION('center_axis',(0.,1.,0.));
#758=DIRECTION('ref_axis',(-0.707106781186547,0.,-0.707106781186547));
#759=DIRECTION('center_axis',(0.,-1.,0.));
#760=DIRECTION('ref_axis',(-1.,0.,0.));
#761=DIRECTION('',(0.,-1.,0.));
#762=DIRECTION('',(0.,1.,0.));
#763=DIRECTION('center_axis',(-1.,0.,0.));
#764=DIRECTION('ref_axis',(0.,1.,0.));
#765=DIRECTION('center_axis',(0.,0.,1.));
#766=DIRECTION('ref_axis',(-0.707106781186547,0.707106781186547,0.));
#767=DIRECTION('center_axis',(0.,0.,-1.));
#768=DIRECTION('ref_axis',(-0.707106781186547,0.707106781186547,0.));
#769=DIRECTION('center_axis',(1.,0.,0.));
#770=DIRECTION('ref_axis',(0.,0.707106781186547,-0.707106781186547));
#771=DIRECTION('center_axis',(-1.,0.,0.));
#772=DIRECTION('ref_axis',(0.,1.,0.));
#773=DIRECTION('',(-1.,0.,0.));
#774=DIRECTION('',(1.,0.,0.));
#775=DIRECTION('center_axis',(0.,0.,-1.));
#776=DIRECTION('ref_axis',(0.707106781186547,0.707106781186547,0.));
#777=DIRECTION('center_axis',(0.,0.,-1.));
#778=DIRECTION('ref_axis',(0.,1.,0.));
#779=DIRECTION('',(0.,0.,-1.));
#780=DIRECTION('center_axis',(0.,0.,1.));
#781=DIRECTION('ref_axis',(1.,0.,0.));
#782=DIRECTION('',(0.,0.,1.));
#783=DIRECTION('center_axis',(0.,0.,-1.));
#784=DIRECTION('ref_axis',(0.707106781186547,0.707106781186547,0.));
#785=DIRECTION('center_axis',(0.408248290463863,-0.816496580927726,-0.408248290463863));
#786=DIRECTION('ref_axis',(0.577350269189626,0.577350269189626,-0.577350269189626));
#787=DIRECTION('center_axis',(0.,1.,0.));
#788=DIRECTION('ref_axis',(0.707106781186548,0.,-0.707106781186548));
#789=DIRECTION('center_axis',(0.,0.,1.));
#790=DIRECTION('ref_axis',(0.707106781186547,0.707106781186547,0.));
#791=DIRECTION('',(0.,0.,-1.));
#792=DIRECTION('',(0.,0.,1.));
#793=DIRECTION('',(0.,0.,-1.));
#794=DIRECTION('center_axis',(0.,0.,-1.));
#795=DIRECTION('ref_axis',(0.,1.,0.));
#796=DIRECTION('',(0.,1.,0.));
#797=DIRECTION('center_axis',(0.,0.,1.));
#798=DIRECTION('ref_axis',(-1.,0.,0.));
#799=DIRECTION('center_axis',(0.,0.,1.));
#800=DIRECTION('ref_axis',(-1.,0.,0.));
#801=DIRECTION('center_axis',(0.,0.,1.));
#802=DIRECTION('ref_axis',(-1.,0.,0.));
#803=DIRECTION('center_axis',(0.,0.,1.));
#804=DIRECTION('ref_axis',(-1.,0.,0.));
#805=DIRECTION('center_axis',(1.,0.,0.));
#806=DIRECTION('ref_axis',(0.,1.,0.));
#807=DIRECTION('center_axis',(1.,-1.04124530410896E-33,-1.30453206193506E-33));
#808=DIRECTION('ref_axis',(-7.5761553326773E-34,0.413262072359582,-0.910612134527683));
#809=DIRECTION('',(9.54097911787244E-18,-1.,-1.34660983055675E-16));
#810=DIRECTION('center_axis',(1.,-3.18365520014737E-34,-6.337545766623E-34));
#811=DIRECTION('ref_axis',(-5.68407937073042E-34,-0.894185179497096,-0.447697291445622));
#812=DIRECTION('center_axis',(-1.,0.,0.));
#813=DIRECTION('ref_axis',(0.,-0.173648177650864,-0.984807753015041));
#814=DIRECTION('center_axis',(1.,-1.04124530410896E-33,-1.30453206193506E-33));
#815=DIRECTION('ref_axis',(-7.5761553326773E-34,0.413262072359582,-0.910612134527683));
#816=DIRECTION('center_axis',(1.,0.,0.));
#817=DIRECTION('ref_axis',(0.,1.,0.));
#818=DIRECTION('',(0.,0.,1.));
#819=DIRECTION('',(0.,-1.,0.));
#820=DIRECTION('center_axis',(-1.,0.,0.));
#821=DIRECTION('ref_axis',(0.,-0.132486481594021,0.991184812330595));
#822=DIRECTION('center_axis',(-1.,0.,0.));
#823=DIRECTION('ref_axis',(0.,-0.00323671125615679,0.999994761836403));
#824=DIRECTION('',(1.,0.,0.));
#825=DIRECTION('center_axis',(-1.,0.,0.));
#826=DIRECTION('ref_axis',(0.,0.,1.));
#827=DIRECTION('center_axis',(0.,0.000122688268803905,0.999999992473794));
#828=DIRECTION('ref_axis',(0.,0.999999992473794,-0.000122688268803905));
#829=DIRECTION('center_axis',(1.,0.,0.));
#830=DIRECTION('ref_axis',(0.,-0.00323671125615679,0.999994761836403));
#831=DIRECTION('center_axis',(0.,-1.,0.));
#832=DIRECTION('ref_axis',(0.707106781186547,0.,-0.707106781186547));
#833=DIRECTION('center_axis',(0.,1.,0.));
#834=DIRECTION('ref_axis',(0.707106781186547,0.,-0.707106781186547));
#835=DIRECTION('center_axis',(0.,-1.,0.));
#836=DIRECTION('ref_axis',(0.,0.,-1.));
#837=DIRECTION('',(0.,0.,1.));
#838=DIRECTION('',(1.,0.,0.));
#839=DIRECTION('',(0.,0.,1.));
#840=DIRECTION('center_axis',(0.,0.,1.));
#841=DIRECTION('ref_axis',(-0.707106781186547,-0.707106781186547,0.));
#842=DIRECTION('',(0.,0.,-1.));
#843=DIRECTION('center_axis',(0.,0.,-1.));
#844=DIRECTION('ref_axis',(-0.707106781186547,-0.707106781186547,0.));
#845=DIRECTION('center_axis',(0.,0.,1.));
#846=DIRECTION('ref_axis',(-0.707106781186547,0.707106781186547,0.));
#847=DIRECTION('center_axis',(0.,0.,-1.));
#848=DIRECTION('ref_axis',(-0.707106781186547,0.707106781186547,0.));
#849=DIRECTION('',(0.,0.,1.));
#850=DIRECTION('center_axis',(0.,1.,0.));
#851=DIRECTION('ref_axis',(0.,0.,1.));
#852=DIRECTION('',(0.,0.,-1.));
#853=DIRECTION('',(-1.,0.,0.));
#854=DIRECTION('center_axis',(0.,0.,1.));
#855=DIRECTION('ref_axis',(-0.707106781186548,0.707106781186548,0.));
#856=DIRECTION('',(0.,0.,1.));
#857=DIRECTION('center_axis',(0.,0.,-1.));
#858=DIRECTION('ref_axis',(-0.707106781186548,0.707106781186548,0.));
#859=DIRECTION('center_axis',(-1.,0.,0.));
#860=DIRECTION('ref_axis',(0.,-1.,0.));
#861=DIRECTION('',(0.,0.,-1.));
#862=DIRECTION('',(0.,-1.,0.));
#863=DIRECTION('center_axis',(0.,0.,1.));
#864=DIRECTION('ref_axis',(-0.707106781186548,-0.707106781186548,0.));
#865=DIRECTION('',(0.,0.,1.));
#866=DIRECTION('center_axis',(0.,0.,-1.));
#867=DIRECTION('ref_axis',(-0.707106781186548,-0.707106781186548,0.));
#868=DIRECTION('center_axis',(0.,0.,-1.));
#869=DIRECTION('ref_axis',(-1.,0.,0.));
#870=DIRECTION('',(0.,0.,-1.));
#871=DIRECTION('center_axis',(0.,0.,-1.));
#872=DIRECTION('ref_axis',(-1.,0.,0.));
#873=DIRECTION('',(0.,0.,-1.));
#874=DIRECTION('center_axis',(0.,0.,-1.));
#875=DIRECTION('ref_axis',(-1.,0.,0.));
#876=DIRECTION('',(0.,0.,-1.));
#877=DIRECTION('center_axis',(0.,0.,-1.));
#878=DIRECTION('ref_axis',(-1.,0.,0.));
#879=DIRECTION('',(0.,0.,-1.));
#880=DIRECTION('center_axis',(0.,0.,1.));
#881=DIRECTION('ref_axis',(1.,0.,0.));
#882=DIRECTION('',(0.,0.,1.));
#883=DIRECTION('center_axis',(0.,0.,-1.));
#884=DIRECTION('ref_axis',(1.,0.,0.));
#885=DIRECTION('center_axis',(1.,-1.77635685276948E-16,0.));
#886=DIRECTION('ref_axis',(1.77635685276948E-16,1.,0.));
#887=DIRECTION('',(1.77635685276948E-16,1.,0.));
#888=DIRECTION('',(0.,0.,1.));
#889=DIRECTION('center_axis',(0.,-1.,0.));
#890=DIRECTION('ref_axis',(1.,0.,0.));
#891=DIRECTION('',(1.,0.,0.));
#892=DIRECTION('center_axis',(0.,0.,1.));
#893=DIRECTION('ref_axis',(1.,0.,0.));
#894=DIRECTION('',(0.,-1.,0.));
#895=DIRECTION('center_axis',(-1.,0.,0.));
#896=DIRECTION('ref_axis',(0.,-0.413262072359582,-0.910612134527683));
#897=DIRECTION('',(-1.,0.,0.));
#898=DIRECTION('center_axis',(1.,-9.54097911787244E-18,-6.77554943813967E-35));
#899=DIRECTION('ref_axis',(-3.94292480259146E-18,-0.413262072359582,-0.910612134527683));
#900=DIRECTION('',(1.,0.,0.));
#901=DIRECTION('center_axis',(0.,1.29890493496739E-16,-1.));
#902=DIRECTION('ref_axis',(-9.54097911787244E-18,-1.,-1.29890493496739E-16));
#903=DIRECTION('',(-1.,0.,0.));
#904=DIRECTION('',(9.54097911787244E-18,1.,1.29890493496739E-16));
#905=DIRECTION('center_axis',(1.,0.,0.));
#906=DIRECTION('ref_axis',(0.,-0.173648177650864,-0.984807753015041));
#907=DIRECTION('center_axis',(1.,-9.54097911787244E-18,-6.77554943813967E-35));
#908=DIRECTION('ref_axis',(-1.6567736368235E-18,-0.173648177650864,-0.984807753015041));
#909=DIRECTION('',(1.,0.,0.));
#910=DIRECTION('center_axis',(-1.,9.54097911787244E-18,6.77554943813967E-35));
#911=DIRECTION('ref_axis',(-9.54097911787244E-18,-1.,4.77048955893622E-18));
#912=DIRECTION('center_axis',(1.,-9.54097911787244E-18,-6.77554943813967E-35));
#913=DIRECTION('ref_axis',(-3.94292480259146E-18,-0.413262072359582,-0.910612134527683));
#914=DIRECTION('center_axis',(-1.,0.,0.));
#915=DIRECTION('ref_axis',(0.,0.336644394421426,0.941631855718906));
#916=DIRECTION('center_axis',(1.,0.,0.));
#917=DIRECTION('ref_axis',(0.,1.,0.));
#918=CARTESIAN_POINT('',(0.,0.,0.));
#919=CARTESIAN_POINT('Origin',(-43.6826753121248,-19.03465189463,-125.));
#920=CARTESIAN_POINT('',(-63.4826753121243,-19.03465189463,-125.));
#921=CARTESIAN_POINT('Origin',(-43.6826753121243,-19.03465189463,-125.));
#922=CARTESIAN_POINT('Origin',(-33.6826751631131,-19.03465189463,-125.999999999999));
#923=CARTESIAN_POINT('',(-32.1826751631126,-19.03465189463,-125.999999999999));
#924=CARTESIAN_POINT('Origin',(-33.6826751631131,-19.03465189463,-125.999999999999));
#925=CARTESIAN_POINT('Origin',(-43.6826753121248,-29.0346520436416,-126.));
#926=CARTESIAN_POINT('',(-42.1826753121243,-29.0346520436416,-126.));
#927=CARTESIAN_POINT('Origin',(-43.6826753121248,-29.0346520436416,-126.));
#928=CARTESIAN_POINT('Origin',(-43.6826753121248,-9.03465174561834,-126.));
#929=CARTESIAN_POINT('',(-42.1826753121243,-9.03465174561834,-126.));
#930=CARTESIAN_POINT('Origin',(-43.6826753121248,-9.03465174561834,-126.));
#931=CARTESIAN_POINT('Origin',(-53.6826754611364,-19.03465189463,-126.000000000001));
#932=CARTESIAN_POINT('',(-52.1826754611359,-19.03465189463,-126.));
#933=CARTESIAN_POINT('Origin',(-53.6826754611364,-19.03465189463,-126.000000000001));
#934=CARTESIAN_POINT('Origin',(-22.7846981263858,-33.8811044622181,-130.546057718891));
#935=CARTESIAN_POINT('',(27.2153018736142,-43.8805606038567,-130.650349959471));
#936=CARTESIAN_POINT('',(27.2153018736142,-43.8811044622181,-130.546057718891));
#937=CARTESIAN_POINT('Origin',(27.2153018736142,-33.8811044622181,-130.546057718891));
#938=CARTESIAN_POINT('',(-55.2846981263858,-43.8811044622181,-130.546057718891));
#939=CARTESIAN_POINT('',(-22.7846981263858,-43.8811044622181,-130.546057718891));
#940=CARTESIAN_POINT('',(-55.2846981263858,-33.8811044622181,-140.546057718891));
#941=CARTESIAN_POINT('Origin',(-55.2846981263858,-33.8811044622181,-130.546057718891));
#942=CARTESIAN_POINT('',(33.2153018736142,-33.8811044622181,-140.546057718891));
#943=CARTESIAN_POINT('',(-22.7846981263858,-33.8811044622181,-140.546057718891));
#944=CARTESIAN_POINT('',(43.2147580152529,-43.8805606038567,-130.650349959471));
#945=CARTESIAN_POINT('Origin',(33.2153018736142,-33.8811044622181,-130.546057718891));
#946=CARTESIAN_POINT('',(-22.7846981263858,-43.8805606038567,-130.650349959471));
#947=CARTESIAN_POINT('Ctrl Pts',(-62.7846981263858,-26.3811044622181,-140.546057718891));
#948=CARTESIAN_POINT('Ctrl Pts',(-62.7846981263858,-33.8811044622181,-140.546057718891));
#949=CARTESIAN_POINT('Ctrl Pts',(-55.2846981263858,-33.8811044622181,-140.546057718891));
#950=CARTESIAN_POINT('Ctrl Pts',(-72.7846981263858,-26.3811044622181,-140.546057718891));
#951=CARTESIAN_POINT('Ctrl Pts',(-72.7846981263858,-43.8811044622181,-140.546057718891));
#952=CARTESIAN_POINT('Ctrl Pts',(-55.2846981263858,-43.8811044622181,-140.546057718891));
#953=CARTESIAN_POINT('Ctrl Pts',(-72.7846981263858,-26.3811044622181,-130.546057718891));
#954=CARTESIAN_POINT('Ctrl Pts',(-72.7846981263858,-43.8811044622181,-130.546057718891));
#955=CARTESIAN_POINT('Ctrl Pts',(-55.2846981263858,-43.8811044622181,-130.546057718891));
#956=CARTESIAN_POINT('',(-72.7846981263858,-26.3811044622181,-130.546057718891));
#957=CARTESIAN_POINT('',(-62.7846981263858,-26.3811044622181,-140.546057718891));
#958=CARTESIAN_POINT('Origin',(-62.7846981263858,-26.3811044622181,-130.546057718891));
#959=CARTESIAN_POINT('Origin',(-55.2846981263858,-26.3811044622181,-140.546057718891));
#960=CARTESIAN_POINT('Origin',(-55.2846981263858,-26.3811044622181,-130.546057718891));
#961=CARTESIAN_POINT('Origin',(-62.7846981263858,-18.8808326271149,-130.546057718891));
#962=CARTESIAN_POINT('',(-72.7846981263858,-11.3811046503732,-130.546057718891));
#963=CARTESIAN_POINT('',(-62.7846981263858,-11.3811046503732,-140.546057718891));
#964=CARTESIAN_POINT('Origin',(-62.7846981263858,-11.3811046503732,-130.546057718891));
#965=CARTESIAN_POINT('',(-62.7846981263858,-18.8808326271149,-140.546057718891));
#966=CARTESIAN_POINT('',(-72.7846981263858,-18.8808326271149,-130.546057718891));
#967=CARTESIAN_POINT('Ctrl Pts',(-55.2846981263858,-3.88110465037319,-140.546057718891));
#968=CARTESIAN_POINT('Ctrl Pts',(-62.7846981263858,-3.8811046503732,-140.546057718891));
#969=CARTESIAN_POINT('Ctrl Pts',(-62.7846981263858,-11.3811046503732,-140.546057718891));
#970=CARTESIAN_POINT('Ctrl Pts',(-55.2846981263858,6.11889534962681,-140.546057718891));
#971=CARTESIAN_POINT('Ctrl Pts',(-72.7846981263858,6.1188953496268,-140.546057718891));
#972=CARTESIAN_POINT('Ctrl Pts',(-72.7846981263858,-11.3811046503732,-140.546057718891));
#973=CARTESIAN_POINT('Ctrl Pts',(-55.2846981263858,6.11889534962681,-130.546057718891));
#974=CARTESIAN_POINT('Ctrl Pts',(-72.7846981263858,6.1188953496268,-130.546057718891));
#975=CARTESIAN_POINT('Ctrl Pts',(-72.7846981263858,-11.3811046503732,-130.546057718891));
#976=CARTESIAN_POINT('',(-55.2846981263858,6.11889534962681,-130.546057718891));
#977=CARTESIAN_POINT('',(-55.2846981263858,-3.88110465037319,-140.546057718891));
#978=CARTESIAN_POINT('Origin',(-55.2846981263858,-3.88110465037319,-130.546057718891));
#979=CARTESIAN_POINT('Origin',(-55.2846981263858,-11.3811046503732,-140.546057718891));
#980=CARTESIAN_POINT('Origin',(-55.2846981263858,-11.3811046503732,-130.546057718891));
#981=CARTESIAN_POINT('Origin',(27.2153018736142,-3.88110465037319,-130.546057718891));
#982=CARTESIAN_POINT('',(33.2153018736142,6.11889534962681,-130.546057718891));
#983=CARTESIAN_POINT('',(33.2153018736142,-3.88110465037319,-140.546057718891));
#984=CARTESIAN_POINT('Origin',(33.2153018736142,-3.88110465037319,-130.546057718891));
#985=CARTESIAN_POINT('',(27.2153018736142,-3.88110465037319,-140.546057718891));
#986=CARTESIAN_POINT('',(27.2153018736142,6.11889534962681,-130.546057718891));
#987=CARTESIAN_POINT('Origin',(33.2153018736142,-3.88110465037319,-90.546057718891));
#988=CARTESIAN_POINT('',(35.2153018736142,5.91685432075952,-124.546057718891));
#989=CARTESIAN_POINT('',(43.2153018736142,-3.88110465037319,-124.546057718891));
#990=CARTESIAN_POINT('Origin',(33.2153018736142,-3.88110465037319,-124.546057718891));
#991=CARTESIAN_POINT('',(43.2153018736142,-3.88110465037319,-130.546057718891));
#992=CARTESIAN_POINT('',(43.2153018736142,-3.88110465037319,-90.546057718891));
#993=CARTESIAN_POINT('Origin',(33.2153018736142,-3.88110465037319,-130.546057718891));
#994=CARTESIAN_POINT('',(33.2153018736142,6.11889534962681,-124.546057718891));
#995=CARTESIAN_POINT('',(33.2153018736142,6.11889534962681,-90.546057718891));
#996=CARTESIAN_POINT('Origin',(33.2153018736142,-3.88110465037319,-124.546057718891));
#997=CARTESIAN_POINT('Origin',(33.2153018736142,-3.88110465037319,-130.546057718891));
#998=CARTESIAN_POINT('Origin',(33.2153018736142,-3.88110465037319,-130.546057718891));
#999=CARTESIAN_POINT('Origin',(33.2153018736142,-3.88110465037319,-90.546057718891));
#1000=CARTESIAN_POINT('',(43.2153018736142,-3.88110465037319,-53.6990994068297));
#1001=CARTESIAN_POINT('',(43.2153018736142,-3.88110465037319,-27.3930160309522));
#1002=CARTESIAN_POINT('Ctrl Pts',(43.2153018736142,-3.88110465037357,-53.6990994068302));
#1003=CARTESIAN_POINT('Ctrl Pts',(43.2153018736143,-2.40904496299891,-52.0203322016832));
#1004=CARTESIAN_POINT('Ctrl Pts',(42.8839353753252,-1.17093939217341,-50.0185025457995));
#1005=CARTESIAN_POINT('Ctrl Pts',(42.383429165868,0.142778299289094,-46.6854943292275));
#1006=CARTESIAN_POINT('Ctrl Pts',(42.2111120504531,0.494221964061278,-45.4625762005611));
#1007=CARTESIAN_POINT('Ctrl Pts',(41.9706955006846,0.95740417501254,-42.9973842146782));
#1008=CARTESIAN_POINT('Ctrl Pts',(41.9042315048901,1.06889553778196,-41.7549047008867));
#1009=CARTESIAN_POINT('Ctrl Pts',(41.9042315048901,1.06889553778196,-39.3372107368953));
#1010=CARTESIAN_POINT('Ctrl Pts',(41.9706955006846,0.957404175012538,-38.0947312231038));
#1011=CARTESIAN_POINT('Ctrl Pts',(42.2111120504531,0.494221964061274,-35.6295392372209));
#1012=CARTESIAN_POINT('Ctrl Pts',(42.383429165868,0.142778299289092,-34.4066211085544));
#1013=CARTESIAN_POINT('Ctrl Pts',(42.8839353753252,-1.17093939217341,-31.0736128919825));
#1014=CARTESIAN_POINT('Ctrl Pts',(43.2153018736143,-2.40904496299892,-29.0717832360988));
#1015=CARTESIAN_POINT('Ctrl Pts',(43.2153018736142,-3.88110465037358,-27.3930160309518));
#1016=CARTESIAN_POINT('',(43.2153018736142,-3.88110465037319,-90.546057718891));
#1017=CARTESIAN_POINT('',(35.2153018698895,5.91685432151982,-40.5491001375469));
#1018=CARTESIAN_POINT('',(35.2153018736142,5.91685432075952,-90.546057718891));
#1019=CARTESIAN_POINT('',(37.2153018736142,5.28404673953848,-34.139384058071));
#1020=CARTESIAN_POINT('Ctrl Pts',(35.2153018698895,5.91685432151982,-40.5491001375469));
#1021=CARTESIAN_POINT('Ctrl Pts',(35.2152633901589,5.91686217616192,-40.4210578697382));
#1022=CARTESIAN_POINT('Ctrl Pts',(35.217654271323,5.91637507910113,-40.2930373368984));
#1023=CARTESIAN_POINT('Ctrl Pts',(35.2302686171945,5.91379057002428,-39.9578596739268));
#1024=CARTESIAN_POINT('Ctrl Pts',(35.244412404544,5.91088927203789,-39.7510865597237));
#1025=CARTESIAN_POINT('Ctrl Pts',(35.3081576919703,5.89754124111808,-39.1065475285673));
#1026=CARTESIAN_POINT('Ctrl Pts',(35.3795356678413,5.88240425574809,-38.6727800112849));
#1027=CARTESIAN_POINT('Ctrl Pts',(35.8131268295994,5.78172974261872,-36.7648240451135));
#1028=CARTESIAN_POINT('Ctrl Pts',(36.4440675588933,5.62064098961049,-35.4089743910974));
#1029=CARTESIAN_POINT('Ctrl Pts',(37.2153018736142,5.28404673953848,-34.139384058071));
#1030=CARTESIAN_POINT('',(43.2153018736142,-3.88110465037319,-20.5460575777746));
#1031=CARTESIAN_POINT('Ctrl Pts',(37.2153018736142,5.28404673953848,-34.139384058071));
#1032=CARTESIAN_POINT('Ctrl Pts',(38.1286895828101,4.88541166180205,-32.6357836816798));
#1033=CARTESIAN_POINT('Ctrl Pts',(39.0046448678572,4.33995860605758,-31.1480788532933));
#1034=CARTESIAN_POINT('Ctrl Pts',(40.7532603095484,2.81200099696848,-27.9705980282567));
#1035=CARTESIAN_POINT('Ctrl Pts',(41.5864847553581,1.76421560476447,-26.3082711636331));
#1036=CARTESIAN_POINT('Ctrl Pts',(42.811943144398,-0.742502363511324,-23.2274284218098));
#1037=CARTESIAN_POINT('Ctrl Pts',(43.2153018736142,-2.19661304829041,-21.8094262545753));
#1038=CARTESIAN_POINT('Ctrl Pts',(43.2153018736142,-3.88110465037319,-20.5460575777746));
#1039=CARTESIAN_POINT('',(43.2153018736142,-3.88110465037319,-90.546057718891));
#1040=CARTESIAN_POINT('Origin',(27.2153018736142,-43.8805606038567,-140.546057718891));
#1041=CARTESIAN_POINT('',(33.2153018736142,-31.3808325330374,-140.546057718891));
#1042=CARTESIAN_POINT('',(-42.1826753121243,-29.0346520436416,-140.546057718891));
#1043=CARTESIAN_POINT('Origin',(-43.6826753121243,-29.0346520436416,-140.546057718891));
#1044=CARTESIAN_POINT('',(-32.1826751631126,-19.03465189463,-140.546057718891));
#1045=CARTESIAN_POINT('Origin',(-33.6826751631126,-19.03465189463,-140.546057718891));
#1046=CARTESIAN_POINT('',(-52.1826754611359,-19.03465189463,-140.546057718891));
#1047=CARTESIAN_POINT('Origin',(-53.6826754611359,-19.03465189463,-140.546057718891));
#1048=CARTESIAN_POINT('',(-42.1826753121243,-9.03465174561834,-140.546057718891));
#1049=CARTESIAN_POINT('Origin',(-43.6826753121243,-9.03465174561834,-140.546057718891));
#1050=CARTESIAN_POINT('Origin',(43.2153018736142,-18.8811044622181,-40.546057718891));
#1051=CARTESIAN_POINT('',(43.2153018736142,-10.6365261186444,-58.7127698027183));
#1052=CARTESIAN_POINT('Origin',(43.2153018736142,-18.8811044622181,-40.546057718891));
#1053=CARTESIAN_POINT('',(43.2153018736142,-27.1256828057917,-58.7127698027183));
#1054=CARTESIAN_POINT('',(43.2153018736142,-10.6365261186444,-58.7127698027183));
#1055=CARTESIAN_POINT('',(43.2153018736142,-36.7200987931851,-49.4776186832312));
#1056=CARTESIAN_POINT('Origin',(43.2153018736142,-18.8811044622181,-40.546057718891));
#1057=CARTESIAN_POINT('',(43.2153018736142,-36.774492688338,-49.368141247704));
#1058=CARTESIAN_POINT('Origin',(43.2153018736142,-36.5767546785729,-49.3381465899435));
#1059=CARTESIAN_POINT('Origin',(43.2153018736142,-18.8811044622181,-40.546057718891));
#1060=CARTESIAN_POINT('',(43.2153018736142,-43.8805606038567,-40.7109595752138));
#1061=CARTESIAN_POINT('Origin',(43.2153018736142,-18.8811044622181,-40.546057718891));
#1062=CARTESIAN_POINT('',(43.2153018736142,-43.8805606038567,-130.546057718891));
#1063=CARTESIAN_POINT('',(43.2153018736142,-43.8805606038567,-65.6292754487324));
#1064=CARTESIAN_POINT('',(43.2153018736142,-31.3808325330374,-130.546057718891));
#1065=CARTESIAN_POINT('Origin',(43.2153018736142,-18.8811044622181,-40.546057718891));
#1066=CARTESIAN_POINT('',(37.2153018736142,-43.8805606038567,-40.7109595754181));
#1067=CARTESIAN_POINT('Origin',(37.2153018736142,-18.8811044622181,-40.546057718891));
#1068=CARTESIAN_POINT('',(43.2153018736142,-43.8805606038567,-40.7109595754181));
#1069=CARTESIAN_POINT('Origin',(37.2153018736142,-18.8811044622181,-40.546057718891));
#1070=CARTESIAN_POINT('',(27.2153018736142,-3.88110457511114,-40.547898042923));
#1071=CARTESIAN_POINT('Origin',(37.2153018736142,-3.88110457511114,-40.547898042923));
#1072=CARTESIAN_POINT('',(27.2153018736142,-33.8805606038567,-40.6779792041127));
#1073=CARTESIAN_POINT('Origin',(27.2153018736142,-18.8811044622181,-40.546057718891));
#1074=CARTESIAN_POINT('Ctrl Pts',(37.2153018736142,-43.8805606038567,-40.7109595754181));
#1075=CARTESIAN_POINT('Ctrl Pts',(36.9660081645814,-43.8805606038567,-40.7104361594317));
#1076=CARTESIAN_POINT('Ctrl Pts',(36.7167145854981,-43.8712341582019,-40.7099127434453));
#1077=CARTESIAN_POINT('Ctrl Pts',(36.4681177340558,-43.8526073276538,-40.7093893274589));
#1078=CARTESIAN_POINT('Ctrl Pts',(36.2195222747492,-43.8339806014154,-40.7088659144036));
#1079=CARTESIAN_POINT('Ctrl Pts',(35.9716237944441,-43.8060536139147,-40.7083425013484));
#1080=CARTESIAN_POINT('Ctrl Pts',(35.7251149847744,-43.7689044002834,-40.7078190882931));
#1081=CARTESIAN_POINT('Ctrl Pts',(35.4786074882047,-43.731755384538,-40.707295678026));
#1082=CARTESIAN_POINT('Ctrl Pts',(35.2334899044438,-43.6853842796853,-40.7067722677588));
#1083=CARTESIAN_POINT('Ctrl Pts',(34.9904471473001,-43.6299206570498,-40.7062488574916));
#1084=CARTESIAN_POINT('Ctrl Pts',(34.7474056183996,-43.5744573147058,-40.7057254498696));
#1085=CARTESIAN_POINT('Ctrl Pts',(34.5064391485025,-43.5099016043413,-40.7052020422475));
#1086=CARTESIAN_POINT('Ctrl Pts',(34.2682210454692,-43.4364339073481,-40.7046786346255));
#1087=CARTESIAN_POINT('Ctrl Pts',(34.0300040812242,-43.3629665615631,-40.7041552295056));
#1088=CARTESIAN_POINT('Ctrl Pts',(33.7945357058864,-43.2805873909823,-40.7036318243856));
#1089=CARTESIAN_POINT('Ctrl Pts',(33.5624738582699,-43.1895265770631,-40.7031084192657));
#1090=CARTESIAN_POINT('Ctrl Pts',(33.3303587195236,-43.0984448517632,-40.70258489395));
#1091=CARTESIAN_POINT('Ctrl Pts',(33.1016519160785,-42.998677588475,-40.7020613686343));
#1092=CARTESIAN_POINT('Ctrl Pts',(32.8769927870544,-42.890503681894,-40.7015378433186));
#1093=CARTESIAN_POINT('Ctrl Pts',(32.6523664866982,-42.7823455823949,-40.7010143945039));
#1094=CARTESIAN_POINT('Ctrl Pts',(32.4317869116458,-42.6657834102471,-40.7004909456892));
#1095=CARTESIAN_POINT('Ctrl Pts',(32.2158705016869,-42.5411429143823,-40.6999674968744));
#1096=CARTESIAN_POINT('Ctrl Pts',(31.9999575132759,-42.4165043936495,-40.6994440563546));
#1097=CARTESIAN_POINT('Ctrl Pts',(31.7887077672459,-42.2837879353135,-40.6989206158348));
#1098=CARTESIAN_POINT('Ctrl Pts',(31.5827116112086,-42.1433644219232,-40.698397175315));
#1099=CARTESIAN_POINT('Ctrl Pts',(31.3767184943256,-42.0029429802642,-40.6978737425177));
#1100=CARTESIAN_POINT('Ctrl Pts',(31.175979027136,-41.8548148574836,-40.6973503097204));
#1101=CARTESIAN_POINT('Ctrl Pts',(30.9810541692315,-41.6993939925662,-40.6968268769231));
#1102=CARTESIAN_POINT('Ctrl Pts',(30.7861319740766,-41.5439752507585,-40.6963034512762));
#1103=CARTESIAN_POINT('Ctrl Pts',(30.5970244325081,-41.3812641281946,-40.6957800256292));
#1104=CARTESIAN_POINT('Ctrl Pts',(30.4142599846727,-41.2117153031426,-40.6952565999822));
#1105=CARTESIAN_POINT('Ctrl Pts',(30.2314978337187,-41.0421686088856,-40.6947331809133));
#1106=CARTESIAN_POINT('Ctrl Pts',(30.055078807537,-40.8657845608512,-40.6942097618445));
#1107=CARTESIAN_POINT('Ctrl Pts',(29.8854958772384,-40.6830560324103,-40.6936863427756));
#1108=CARTESIAN_POINT('Ctrl Pts',(29.7159148928353,-40.5003296007054,-40.6931629297128));
#1109=CARTESIAN_POINT('Ctrl Pts',(29.5531700241548,-40.3112590247604,-40.69263951665));
#1110=CARTESIAN_POINT('Ctrl Pts',(29.3977160219161,-40.1163726160432,-40.6921161035871));
#1111=CARTESIAN_POINT('Ctrl Pts',(29.2422636335762,-39.9214882306057,-40.6915926959583));
#1112=CARTESIAN_POINT('Ctrl Pts',(29.0941021222811,-39.7207883363749,-40.6910692883294));
#1113=CARTESIAN_POINT('Ctrl Pts',(28.9536454805368,-39.5148337284685,-40.6905458807006));
#1114=CARTESIAN_POINT('Ctrl Pts',(28.8131341233145,-39.3087988900747,-40.6900222691761));
#1115=CARTESIAN_POINT('Ctrl Pts',(28.6803337891597,-39.0975054563047,-40.6894986576516));
#1116=CARTESIAN_POINT('Ctrl Pts',(28.5556158373356,-38.8815442824025,-40.6889750461271));
#1117=CARTESIAN_POINT('Ctrl Pts',(28.4309386126417,-38.6656536314579,-40.68845160559));
#1118=CARTESIAN_POINT('Ctrl Pts',(28.3143386200867,-38.4450985150668,-40.6879281650528));
#1119=CARTESIAN_POINT('Ctrl Pts',(28.2061417039994,-38.2204952851884,-40.6874047245157));
#1120=CARTESIAN_POINT('Ctrl Pts',(28.0979478627121,-37.995898438209,-40.686881298854));
#1121=CARTESIAN_POINT('Ctrl Pts',(27.9981567328802,-37.7672539421081,-40.6863578731923));
#1122=CARTESIAN_POINT('Ctrl Pts',(27.9070471698144,-37.5352007187227,-40.6858344475306));
#1123=CARTESIAN_POINT('Ctrl Pts',(27.8159397976345,-37.3031530754556,-40.6853110344556));
#1124=CARTESIAN_POINT('Ctrl Pts',(27.7335136694897,-37.0676971108385,-40.6847876213805));
#1125=CARTESIAN_POINT('Ctrl Pts',(27.6599991050399,-36.8294907489901,-40.6842642083055));
#1126=CARTESIAN_POINT('Ctrl Pts',(27.5864371696328,-36.5911308928851,-40.6837404579561));
#1127=CARTESIAN_POINT('Ctrl Pts',(27.5217983685675,-36.3500173410745,-40.6832167076067));
#1128=CARTESIAN_POINT('Ctrl Pts',(27.4662635518182,-36.1068246942452,-40.6826929572573));
#1129=CARTESIAN_POINT('Ctrl Pts',(27.4107631608361,-35.8637828013738,-40.6821695315782));
#1130=CARTESIAN_POINT('Ctrl Pts',(27.3643555233041,-35.6186646451619,-40.6816461058992));
#1131=CARTESIAN_POINT('Ctrl Pts',(27.3271703202577,-35.3721551813191,-40.6811226802201));
#1132=CARTESIAN_POINT('Ctrl Pts',(27.2899505193702,-35.1254163602434,-40.6805987675355));
#1133=CARTESIAN_POINT('Ctrl Pts',(27.2619703693209,-34.8772838979786,-40.6800748548509));
#1134=CARTESIAN_POINT('Ctrl Pts',(27.2433082029994,-34.6284524631635,-40.6795509421664));
#1135=CARTESIAN_POINT('Ctrl Pts',(27.2246460366779,-34.3796210283484,-40.6790270294818));
#1136=CARTESIAN_POINT('Ctrl Pts',(27.2153018736142,-34.1300908813862,-40.6785031167972));
#1137=CARTESIAN_POINT('Ctrl Pts',(27.2153018736142,-33.8805606038567,-40.6779792041127));
#1138=CARTESIAN_POINT('Origin',(33.2153018736142,-31.3808325330374,-130.546057718891));
#1139=CARTESIAN_POINT('Origin',(33.2153018736142,-43.8805606038567,-130.546057718891));
#1140=CARTESIAN_POINT('Origin',(27.2153018736142,-43.8805606038567,-40.7109595752138));
#1141=CARTESIAN_POINT('',(37.2153018736142,-43.8805606038567,-124.546057718891));
#1142=CARTESIAN_POINT('',(37.2153018736142,-43.8805606038567,-40.6285086470524));
#1143=CARTESIAN_POINT('',(27.2153018736142,-43.8805606038567,-124.546057718891));
#1144=CARTESIAN_POINT('',(7.81530187361423,-43.8805606038567,-124.546057718891));
#1145=CARTESIAN_POINT('',(27.2153018736142,-43.8805606038567,-140.546057718891));
#1146=CARTESIAN_POINT('Origin',(37.2153018736142,-33.8805606038567,-40.6285086470524));
#1147=CARTESIAN_POINT('',(27.2153018736142,-33.8805606038567,-124.546057718891));
#1148=CARTESIAN_POINT('',(27.2153018736142,-33.8805606038567,-40.6285086470524));
#1149=CARTESIAN_POINT('Origin',(37.2153018736142,-33.8805606038567,-124.546057718891));
#1150=CARTESIAN_POINT('Origin',(37.2153018736142,-3.88110465037319,-90.546057718891));
#1151=CARTESIAN_POINT('',(27.2153018736142,-3.88110465037319,-124.546057718891));
#1152=CARTESIAN_POINT('Origin',(37.2153018736142,-3.88110465037319,-124.546057718891));
#1153=CARTESIAN_POINT('',(27.2153018736142,-3.88110465037319,-90.546057718891));
#1154=CARTESIAN_POINT('Origin',(27.2153018736142,6.11889534962681,-140.546057718891));
#1155=CARTESIAN_POINT('',(-55.2846981263858,6.11889534962681,-124.546057718891));
#1156=CARTESIAN_POINT('',(-55.2846981263858,6.11889534962681,-140.546057718891));
#1157=CARTESIAN_POINT('',(27.2153018736142,6.11889534962681,-124.546057718891));
#1158=CARTESIAN_POINT('Origin',(-55.2846981263858,-11.3811046503732,-140.546057718891));
#1159=CARTESIAN_POINT('',(-72.7846981263858,-11.3811046503732,-124.546057718891));
#1160=CARTESIAN_POINT('',(-72.7846981263858,-11.3811046503732,-140.546057718891));
#1161=CARTESIAN_POINT('Origin',(-55.2846981263858,-11.3811046503732,-124.546057718891));
#1162=CARTESIAN_POINT('Origin',(-72.7846981263858,6.1188953496268,-140.546057718891));
#1163=CARTESIAN_POINT('',(-72.7846981263858,-26.3811044622181,-124.546057718891));
#1164=CARTESIAN_POINT('',(-72.7846981263858,-26.3811044622181,-140.546057718891));
#1165=CARTESIAN_POINT('',(-72.7846981263858,-43.8811044622181,-124.546057718891));
#1166=CARTESIAN_POINT('Origin',(-55.2846981263858,-26.3811044622181,-140.546057718891));
#1167=CARTESIAN_POINT('',(-55.2846981263858,-43.8811044622181,-124.546057718891));
#1168=CARTESIAN_POINT('',(-55.2846981263858,-43.8811044622181,-140.546057718891));
#1169=CARTESIAN_POINT('Origin',(-55.2846981263858,-26.3811044622181,-124.546057718891));
#1170=CARTESIAN_POINT('Origin',(-43.6826753121243,-29.0346520436416,-135.));
#1171=CARTESIAN_POINT('',(-42.1826753121243,-29.0346520436416,-135.));
#1172=CARTESIAN_POINT('Origin',(-33.6826751631126,-19.03465189463,-135.));
#1173=CARTESIAN_POINT('',(-32.1826751631126,-19.03465189463,-135.));
#1174=CARTESIAN_POINT('Origin',(-53.6826754611359,-19.03465189463,-135.));
#1175=CARTESIAN_POINT('',(-52.1826754611359,-19.03465189463,-135.));
#1176=CARTESIAN_POINT('Origin',(-43.6826753121243,-9.03465174561834,-135.));
#1177=CARTESIAN_POINT('',(-42.1826753121243,-9.03465174561834,-135.));
#1178=CARTESIAN_POINT('Origin',(-43.6826753121243,-19.03465189463,-135.));
#1179=CARTESIAN_POINT('',(-63.4826753121243,-19.03465189463,-124.546057718891));
#1180=CARTESIAN_POINT('',(-63.4826753121243,-19.03465189463,-135.));
#1181=CARTESIAN_POINT('Origin',(-43.6826753121243,-19.03465189463,-124.546057718891));
#1182=CARTESIAN_POINT('Origin',(27.2153018736142,-43.8811044622181,-140.546057718891));
#1183=CARTESIAN_POINT('',(27.2153018736142,-43.8811044622181,-124.546057718891));
#1184=CARTESIAN_POINT('',(27.2153018736142,-18.8811044622181,-124.546057718891));
#1185=CARTESIAN_POINT('',(27.2153018736142,-43.8811044622181,-140.546057718891));
#1186=CARTESIAN_POINT('Origin',(-72.7846981263858,-43.8811044622181,-140.546057718891));
#1187=CARTESIAN_POINT('',(27.2153018736142,-43.8811044622181,-124.546057718891));
#1188=CARTESIAN_POINT('Origin',(-11.5846981263858,-18.8811045562956,-124.546057718891));
#1189=CARTESIAN_POINT('',(27.2153018736142,-18.8811045092568,-124.546057718891));
#1190=CARTESIAN_POINT('Origin',(43.2153018736142,-18.8811044622181,-40.546057718891));
#1191=CARTESIAN_POINT('',(49.6153018736142,-27.1256828057917,-58.7127698027183));
#1192=CARTESIAN_POINT('',(43.2153018736142,-27.1256828057917,-58.7127698027183));
#1193=CARTESIAN_POINT('',(49.6153018736142,-36.7200987931851,-49.4776186832312));
#1194=CARTESIAN_POINT('Origin',(49.6153018736142,-18.8811044622181,-40.546057718891));
#1195=CARTESIAN_POINT('',(43.2153018736142,-36.7200987931851,-49.4776186832312));
#1196=CARTESIAN_POINT('Origin',(43.2153018736142,-10.6365261186444,-58.7127698027183));
#1197=CARTESIAN_POINT('',(49.6153018736142,-10.6365261186444,-58.7127698027183));
#1198=CARTESIAN_POINT('',(43.2153018736142,-10.6365261186444,-58.7127698027183));
#1199=CARTESIAN_POINT('',(49.6153018736142,-10.6365261186444,-58.7127698027183));
#1200=CARTESIAN_POINT('Origin',(43.2153018736142,-36.5767546785729,-49.3381465899435));
#1201=CARTESIAN_POINT('',(49.6153018736142,-36.774492688338,-49.368141247704));
#1202=CARTESIAN_POINT('Origin',(49.6153018736142,-36.5767546785729,-49.3381465899435));
#1203=CARTESIAN_POINT('',(43.2153018736142,-36.774492688338,-49.368141247704));
#1204=CARTESIAN_POINT('Origin',(49.6153018736142,-18.8811044622181,-39.6544137608046));
#1205=CARTESIAN_POINT('Origin',(49.6153018736142,-18.8811044622181,-40.546057718891));
#1206=CARTESIAN_POINT('Origin',(43.2153018736142,-18.8811044622181,-40.546057718891));
#1207=CARTESIAN_POINT('Origin',(27.2153018736142,-18.8811044622181,-40.546057718891));
#1208=UNCERTAINTY_MEASURE_WITH_UNIT(LENGTH_MEASURE(0.01),#1212,
'DISTANCE_ACCURACY_VALUE',
'Maximum model space distance between geometric entities at asserted c
onnectivities');
#1209=UNCERTAINTY_MEASURE_WITH_UNIT(LENGTH_MEASURE(0.01),#1212,
'DISTANCE_ACCURACY_VALUE',
'Maximum model space distance between geometric entities at asserted c
onnectivities');
#1210=(
GEOMETRIC_REPRESENTATION_CONTEXT(3)
GLOBAL_UNCERTAINTY_ASSIGNED_CONTEXT((#1208))
GLOBAL_UNIT_ASSIGNED_CONTEXT((#1212,#1214,#1215))
REPRESENTATION_CONTEXT('','3D')
);
#1211=(
GEOMETRIC_REPRESENTATION_CONTEXT(3)
GLOBAL_UNCERTAINTY_ASSIGNED_CONTEXT((#1209))
GLOBAL_UNIT_ASSIGNED_CONTEXT((#1212,#1214,#1215))
REPRESENTATION_CONTEXT('','3D')
);
#1212=(
LENGTH_UNIT()
NAMED_UNIT(*)
SI_UNIT(.MILLI.,.METRE.)
);
#1213=(
LENGTH_UNIT()
NAMED_UNIT(*)
SI_UNIT($,.METRE.)
);
#1214=(
NAMED_UNIT(*)
PLANE_ANGLE_UNIT()
SI_UNIT($,.RADIAN.)
);
#1215=(
NAMED_UNIT(*)
SI_UNIT($,.STERADIAN.)
SOLID_ANGLE_UNIT()
);
#1216=SHAPE_DEFINITION_REPRESENTATION(#1217,#1218);
#1217=PRODUCT_DEFINITION_SHAPE('',$,#1220);
#1218=SHAPE_REPRESENTATION('',(#639),#1210);
#1219=PRODUCT_DEFINITION_CONTEXT('part definition',#1224,'design');
#1220=PRODUCT_DEFINITION('link_1dof','link_1dof',#1221,#1219);
#1221=PRODUCT_DEFINITION_FORMATION('',$,#1226);
#1222=PRODUCT_RELATED_PRODUCT_CATEGORY('link_1dof','link_1dof',(#1226));
#1223=APPLICATION_PROTOCOL_DEFINITION('international standard',
'automotive_design',2009,#1224);
#1224=APPLICATION_CONTEXT(
'Core Data for Automotive Mechanical Design Process');
#1225=PRODUCT_CONTEXT('part definition',#1224,'mechanical');
#1226=PRODUCT('link_1dof','link_1dof',$,(#1225));
#1227=PRESENTATION_STYLE_ASSIGNMENT((#1229));
#1228=PRESENTATION_STYLE_ASSIGNMENT((#1230));
#1229=SURFACE_STYLE_USAGE(.BOTH.,#1231);
#1230=SURFACE_STYLE_USAGE(.BOTH.,#1232);
#1231=SURFACE_SIDE_STYLE('',(#1233));
#1232=SURFACE_SIDE_STYLE('',(#1234));
#1233=SURFACE_STYLE_FILL_AREA(#1235);
#1234=SURFACE_STYLE_FILL_AREA(#1236);
#1235=FILL_AREA_STYLE('\X2\AC15CCA0\X0\ - \X2\C0C8D2F4\X0\',(#1237));
#1236=FILL_AREA_STYLE('ABS(\X2\D770C0C9\X0\)',(#1238));
#1237=FILL_AREA_STYLE_COLOUR('\X2\AC15CCA0\X0\ - \X2\C0C8D2F4\X0\',#1239);
#1238=FILL_AREA_STYLE_COLOUR('ABS(\X2\D770C0C9\X0\)',#1240);
#1239=COLOUR_RGB('\X2\AC15CCA0\X0\ - \X2\C0C8D2F4\X0\',0.627450980392157,
0.627450980392157,0.627450980392157);
#1240=COLOUR_RGB('ABS(\X2\D770C0C9\X0\)',0.964705882352941,0.964705882352941,
0.952941176470588);
ENDSEC;
END-ISO-10303-21;
