ISO-10303-21;
HEADER;
/* Generated by software containing ST-Developer
 * from STEP Tools, Inc. (www.steptools.com) 
 */

FILE_DESCRIPTION(
/* description */ (''),
/* implementation_level */ '2;1');

FILE_NAME(
/* name */ 'wrist_axis1_yoke.step',
/* time_stamp */ '2026-09-15T17:21:28+09:00',
/* author */ (''),
/* organization */ (''),
/* preprocessor_version */ 'ST-DEVELOPER v20.1',
/* originating_system */ 'Autodesk Translation Framework v15.8.0.0',
/* authorisation */ '');

FILE_SCHEMA (('AUTOMOTIVE_DESIGN { 1 0 10303 214 3 1 1 }'));
ENDSEC;

DATA;
#10=MECHANICAL_DESIGN_GEOMETRIC_PRESENTATION_REPRESENTATION('',(#13),#1497);
#11=SHAPE_REPRESENTATION_RELATIONSHIP('SRR','None',#1504,#12);
#12=ADVANCED_BREP_SHAPE_REPRESENTATION('',(#14),#1496);
#13=STYLED_ITEM('',(#1514),#14);
#14=MANIFOLD_SOLID_BREP('1dof-2dof',#803);
#15=FACE_BOUND('',#229,.T.);
#16=FACE_BOUND('',#230,.T.);
#17=FACE_BOUND('',#251,.T.);
#18=FACE_BOUND('',#252,.T.);
#19=FACE_BOUND('',#253,.T.);
#20=FACE_BOUND('',#254,.T.);
#21=(
BOUNDED_SURFACE()
B_SPLINE_SURFACE(2,2,((#1278,#1279,#1280),(#1281,#1282,#1283),(#1284,#1285,
#1286)),.UNSPECIFIED.,.F.,.F.,.F.)
B_SPLINE_SURFACE_WITH_KNOTS((3,3),(3,3),(-1.5707963267949,0.),(-3.14159265358979,
-1.5707963267949),.UNSPECIFIED.)
GEOMETRIC_REPRESENTATION_ITEM()
RATIONAL_B_SPLINE_SURFACE(((1.,0.707106781186547,1.),(0.707106781186546,
0.499999999999999,0.707106781186546),(1.,0.707106781186547,1.)))
REPRESENTATION_ITEM('')
SURFACE()
);
#22=(
BOUNDED_SURFACE()
B_SPLINE_SURFACE(2,2,((#1412,#1413,#1414),(#1415,#1416,#1417),(#1418,#1419,
#1420)),.UNSPECIFIED.,.F.,.F.,.F.)
B_SPLINE_SURFACE_WITH_KNOTS((3,3),(3,3),(-1.57079632679523,0.),(1.5707963267949,
3.14159265358979),.UNSPECIFIED.)
GEOMETRIC_REPRESENTATION_ITEM()
RATIONAL_B_SPLINE_SURFACE(((1.,0.707106781186548,1.),(0.707106781186429,
0.499999999999916,0.707106781186429),(1.,0.707106781186548,1.)))
REPRESENTATION_ITEM('')
SURFACE()
);
#23=(
BOUNDED_SURFACE()
B_SPLINE_SURFACE(2,2,((#1430,#1431,#1432),(#1433,#1434,#1435),(#1436,#1437,
#1438)),.UNSPECIFIED.,.F.,.F.,.F.)
B_SPLINE_SURFACE_WITH_KNOTS((3,3),(3,3),(-1.5707963267949,3.26136303318541E-16),
(-1.5707963267949,-4.02314221599022E-18),.UNSPECIFIED.)
GEOMETRIC_REPRESENTATION_ITEM()
RATIONAL_B_SPLINE_SURFACE(((1.,0.707106781186547,1.),(0.707106781186545,
0.499999999999998,0.707106781186545),(1.,0.707106781186547,1.)))
REPRESENTATION_ITEM('')
SURFACE()
);
#24=(
BOUNDED_SURFACE()
B_SPLINE_SURFACE(2,2,((#1448,#1449,#1450),(#1451,#1452,#1453),(#1454,#1455,
#1456)),.UNSPECIFIED.,.F.,.F.,.F.)
B_SPLINE_SURFACE_WITH_KNOTS((3,3),(3,3),(-1.5707963267949,5.40401057236295E-14),
(-3.14159265358979,-1.5707963267949),.UNSPECIFIED.)
GEOMETRIC_REPRESENTATION_ITEM()
RATIONAL_B_SPLINE_SURFACE(((1.,0.707106781186548,1.),(0.707106781186529,
0.499999999999987,0.707106781186529),(1.,0.707106781186548,1.)))
REPRESENTATION_ITEM('')
SURFACE()
);
#25=B_SPLINE_CURVE_WITH_KNOTS('',3,(#1239,#1240,#1241,#1242,#1243,#1244),
 .UNSPECIFIED.,.F.,.F.,(4,2,4),(2.64606848871439,2.84972425980417,3.12439720460534),
 .UNSPECIFIED.);
#26=B_SPLINE_CURVE_WITH_KNOTS('',3,(#1295,#1296,#1297,#1298,#1299,#1300,
#1301,#1302,#1303,#1304,#1305,#1306,#1307,#1308,#1309,#1310,#1311,#1312,
#1313,#1314,#1315,#1316,#1317,#1318),.UNSPECIFIED.,.F.,.F.,(4,2,2,2,2,2,
2,2,2,2,2,4),(-0.787482300416389,-0.777975232921855,-0.7411582029122,-0.696949363975087,
-0.647917249951345,-0.598361739026475,-0.550579049429482,-0.505122466786342,
-0.462611621406332,-0.424406101183646,-0.396339767375467,-0.383866215689152),
 .UNSPECIFIED.);
#27=B_SPLINE_CURVE_WITH_KNOTS('',3,(#1333,#1334,#1335,#1336,#1337,#1338,
#1339,#1340),.UNSPECIFIED.,.F.,.F.,(4,2,2,4),(-0.373121562363631,-0.351073844085975,
-0.307542774340959,-0.276469019495213),.UNSPECIFIED.);
#28=B_SPLINE_CURVE_WITH_KNOTS('',3,(#1343,#1344,#1345,#1346,#1347,#1348,
#1349,#1350,#1351,#1352,#1353,#1354,#1355,#1356,#1357,#1358),
 .UNSPECIFIED.,.F.,.F.,(4,2,2,2,2,2,2,4),(-0.276469019495213,-0.258858021164152,
-0.209316244946857,-0.161034421388283,-0.115064075348395,-0.0718643073155004,
-0.0326160340665275,0.),.UNSPECIFIED.);
#29=B_SPLINE_CURVE_WITH_KNOTS('',3,(#1375,#1376,#1377,#1378,#1379,#1380),
 .UNSPECIFIED.,.F.,.F.,(4,2,4),(2.09026783435601,2.09615025167306,2.32740830926157),
 .UNSPECIFIED.);
#30=LINE('',#1187,#84);
#31=LINE('',#1191,#85);
#32=LINE('',#1195,#86);
#33=LINE('',#1214,#87);
#34=LINE('',#1218,#88);
#35=LINE('',#1222,#89);
#36=LINE('',#1227,#90);
#37=LINE('',#1231,#91);
#38=LINE('',#1232,#92);
#39=LINE('',#1235,#93);
#40=LINE('',#1237,#94);
#41=LINE('',#1245,#95);
#42=LINE('',#1248,#96);
#43=LINE('',#1250,#97);
#44=LINE('',#1252,#98);
#45=LINE('',#1254,#99);
#46=LINE('',#1255,#100);
#47=LINE('',#1258,#101);
#48=LINE('',#1262,#102);
#49=LINE('',#1268,#103);
#50=LINE('',#1272,#104);
#51=LINE('',#1276,#105);
#52=LINE('',#1322,#106);
#53=LINE('',#1327,#107);
#54=LINE('',#1331,#108);
#55=LINE('',#1361,#109);
#56=LINE('',#1365,#110);
#57=LINE('',#1370,#111);
#58=LINE('',#1371,#112);
#59=LINE('',#1381,#113);
#60=LINE('',#1383,#114);
#61=LINE('',#1384,#115);
#62=LINE('',#1388,#116);
#63=LINE('',#1389,#117);
#64=LINE('',#1394,#118);
#65=LINE('',#1399,#119);
#66=LINE('',#1404,#120);
#67=LINE('',#1407,#121);
#68=LINE('',#1411,#122);
#69=LINE('',#1425,#123);
#70=LINE('',#1429,#124);
#71=LINE('',#1446,#125);
#72=LINE('',#1447,#126);
#73=LINE('',#1463,#127);
#74=LINE('',#1464,#128);
#75=LINE('',#1466,#129);
#76=LINE('',#1467,#130);
#77=LINE('',#1469,#131);
#78=LINE('',#1472,#132);
#79=LINE('',#1474,#133);
#80=LINE('',#1487,#134);
#81=LINE('',#1489,#135);
#82=LINE('',#1491,#136);
#83=LINE('',#1493,#137);
#84=VECTOR('',#938,19.8);
#85=VECTOR('',#941,10.);
#86=VECTOR('',#944,10.);
#87=VECTOR('',#969,19.8);
#88=VECTOR('',#972,10.);
#89=VECTOR('',#975,10.);
#90=VECTOR('',#982,10.);
#91=VECTOR('',#985,10.);
#92=VECTOR('',#986,10.);
#93=VECTOR('',#989,10.);
#94=VECTOR('',#990,10.);
#95=VECTOR('',#991,10.);
#96=VECTOR('',#994,10.);
#97=VECTOR('',#995,10.);
#98=VECTOR('',#996,10.);
#99=VECTOR('',#997,10.);
#100=VECTOR('',#998,10.);
#101=VECTOR('',#1001,10.);
#102=VECTOR('',#1004,10.);
#103=VECTOR('',#1011,10.);
#104=VECTOR('',#1014,10.);
#105=VECTOR('',#1017,10.);
#106=VECTOR('',#1032,1.25);
#107=VECTOR('',#1039,1.25);
#108=VECTOR('',#1044,1.25);
#109=VECTOR('',#1049,1.25);
#110=VECTOR('',#1054,10.);
#111=VECTOR('',#1059,10.);
#112=VECTOR('',#1060,10.);
#113=VECTOR('',#1063,10.);
#114=VECTOR('',#1064,10.);
#115=VECTOR('',#1065,10.);
#116=VECTOR('',#1070,10.);
#117=VECTOR('',#1071,10.);
#118=VECTOR('',#1076,10.);
#119=VECTOR('',#1083,10.);
#120=VECTOR('',#1088,10.);
#121=VECTOR('',#1091,10.);
#122=VECTOR('',#1096,10.);
#123=VECTOR('',#1103,10.);
#124=VECTOR('',#1108,10.);
#125=VECTOR('',#1117,10.);
#126=VECTOR('',#1118,10.);
#127=VECTOR('',#1127,10.);
#128=VECTOR('',#1128,10.);
#129=VECTOR('',#1131,10.);
#130=VECTOR('',#1132,10.);
#131=VECTOR('',#1135,10.);
#132=VECTOR('',#1140,10.);
#133=VECTOR('',#1143,10.);
#134=VECTOR('',#1160,1.25);
#135=VECTOR('',#1163,1.25);
#136=VECTOR('',#1166,1.25);
#137=VECTOR('',#1169,1.25);
#138=CYLINDRICAL_SURFACE('',#825,19.8);
#139=CYLINDRICAL_SURFACE('',#839,19.8);
#140=CYLINDRICAL_SURFACE('',#849,15.);
#141=CYLINDRICAL_SURFACE('',#862,1.25);
#142=CYLINDRICAL_SURFACE('',#865,1.25);
#143=CYLINDRICAL_SURFACE('',#867,1.25);
#144=CYLINDRICAL_SURFACE('',#869,1.25);
#145=CYLINDRICAL_SURFACE('',#877,17.5);
#146=CYLINDRICAL_SURFACE('',#885,15.);
#147=CYLINDRICAL_SURFACE('',#889,15.);
#148=CYLINDRICAL_SURFACE('',#890,12.5);
#149=CYLINDRICAL_SURFACE('',#894,12.5);
#150=CYLINDRICAL_SURFACE('',#899,12.5);
#151=CYLINDRICAL_SURFACE('',#901,17.5);
#152=CYLINDRICAL_SURFACE('',#903,25.);
#153=CYLINDRICAL_SURFACE('',#905,25.);
#154=CYLINDRICAL_SURFACE('',#912,1.25);
#155=CYLINDRICAL_SURFACE('',#913,1.25);
#156=CYLINDRICAL_SURFACE('',#914,1.25);
#157=CYLINDRICAL_SURFACE('',#915,1.25);
#158=FACE_OUTER_BOUND('',#206,.T.);
#159=FACE_OUTER_BOUND('',#207,.T.);
#160=FACE_OUTER_BOUND('',#208,.T.);
#161=FACE_OUTER_BOUND('',#209,.T.);
#162=FACE_OUTER_BOUND('',#210,.T.);
#163=FACE_OUTER_BOUND('',#211,.T.);
#164=FACE_OUTER_BOUND('',#212,.T.);
#165=FACE_OUTER_BOUND('',#213,.T.);
#166=FACE_OUTER_BOUND('',#214,.T.);
#167=FACE_OUTER_BOUND('',#215,.T.);
#168=FACE_OUTER_BOUND('',#216,.T.);
#169=FACE_OUTER_BOUND('',#217,.T.);
#170=FACE_OUTER_BOUND('',#218,.T.);
#171=FACE_OUTER_BOUND('',#219,.T.);
#172=FACE_OUTER_BOUND('',#220,.T.);
#173=FACE_OUTER_BOUND('',#221,.T.);
#174=FACE_OUTER_BOUND('',#222,.T.);
#175=FACE_OUTER_BOUND('',#223,.T.);
#176=FACE_OUTER_BOUND('',#224,.T.);
#177=FACE_OUTER_BOUND('',#225,.T.);
#178=FACE_OUTER_BOUND('',#226,.T.);
#179=FACE_OUTER_BOUND('',#227,.T.);
#180=FACE_OUTER_BOUND('',#228,.T.);
#181=FACE_OUTER_BOUND('',#231,.T.);
#182=FACE_OUTER_BOUND('',#232,.T.);
#183=FACE_OUTER_BOUND('',#233,.T.);
#184=FACE_OUTER_BOUND('',#234,.T.);
#185=FACE_OUTER_BOUND('',#235,.T.);
#186=FACE_OUTER_BOUND('',#236,.T.);
#187=FACE_OUTER_BOUND('',#237,.T.);
#188=FACE_OUTER_BOUND('',#238,.T.);
#189=FACE_OUTER_BOUND('',#239,.T.);
#190=FACE_OUTER_BOUND('',#240,.T.);
#191=FACE_OUTER_BOUND('',#241,.T.);
#192=FACE_OUTER_BOUND('',#242,.T.);
#193=FACE_OUTER_BOUND('',#243,.T.);
#194=FACE_OUTER_BOUND('',#244,.T.);
#195=FACE_OUTER_BOUND('',#245,.T.);
#196=FACE_OUTER_BOUND('',#246,.T.);
#197=FACE_OUTER_BOUND('',#247,.T.);
#198=FACE_OUTER_BOUND('',#248,.T.);
#199=FACE_OUTER_BOUND('',#249,.T.);
#200=FACE_OUTER_BOUND('',#250,.T.);
#201=FACE_OUTER_BOUND('',#255,.T.);
#202=FACE_OUTER_BOUND('',#256,.T.);
#203=FACE_OUTER_BOUND('',#257,.T.);
#204=FACE_OUTER_BOUND('',#258,.T.);
#205=FACE_OUTER_BOUND('',#259,.T.);
#206=EDGE_LOOP('',(#503));
#207=EDGE_LOOP('',(#504));
#208=EDGE_LOOP('',(#505));
#209=EDGE_LOOP('',(#506));
#210=EDGE_LOOP('',(#507,#508,#509,#510,#511,#512,#513,#514));
#211=EDGE_LOOP('',(#515));
#212=EDGE_LOOP('',(#516));
#213=EDGE_LOOP('',(#517));
#214=EDGE_LOOP('',(#518));
#215=EDGE_LOOP('',(#519));
#216=EDGE_LOOP('',(#520,#521,#522,#523,#524,#525,#526,#527));
#217=EDGE_LOOP('',(#528));
#218=EDGE_LOOP('',(#529,#530,#531,#532,#533));
#219=EDGE_LOOP('',(#534,#535,#536,#537,#538));
#220=EDGE_LOOP('',(#539,#540,#541,#542,#543,#544));
#221=EDGE_LOOP('',(#545,#546,#547,#548,#549,#550));
#222=EDGE_LOOP('',(#551,#552,#553,#554,#555,#556,#557,#558,#559,#560,#561,
#562));
#223=EDGE_LOOP('',(#563,#564,#565,#566,#567,#568,#569,#570));
#224=EDGE_LOOP('',(#571,#572,#573,#574,#575,#576));
#225=EDGE_LOOP('',(#577,#578,#579,#580));
#226=EDGE_LOOP('',(#581,#582,#583,#584,#585,#586));
#227=EDGE_LOOP('',(#587,#588,#589,#590));
#228=EDGE_LOOP('',(#591,#592,#593,#594,#595,#596,#597,#598,#599,#600,#601));
#229=EDGE_LOOP('',(#602));
#230=EDGE_LOOP('',(#603));
#231=EDGE_LOOP('',(#604,#605,#606,#607,#608));
#232=EDGE_LOOP('',(#609,#610,#611,#612,#613));
#233=EDGE_LOOP('',(#614,#615,#616,#617));
#234=EDGE_LOOP('',(#618,#619,#620,#621,#622));
#235=EDGE_LOOP('',(#623,#624,#625,#626,#627,#628,#629,#630,#631,#632,#633,
#634));
#236=EDGE_LOOP('',(#635,#636,#637,#638));
#237=EDGE_LOOP('',(#639,#640,#641,#642,#643,#644,#645));
#238=EDGE_LOOP('',(#646,#647,#648,#649));
#239=EDGE_LOOP('',(#650,#651,#652,#653,#654,#655));
#240=EDGE_LOOP('',(#656,#657,#658,#659,#660,#661));
#241=EDGE_LOOP('',(#662,#663,#664,#665));
#242=EDGE_LOOP('',(#666,#667,#668,#669));
#243=EDGE_LOOP('',(#670,#671,#672,#673));
#244=EDGE_LOOP('',(#674,#675,#676,#677,#678,#679));
#245=EDGE_LOOP('',(#680,#681,#682,#683));
#246=EDGE_LOOP('',(#684,#685,#686,#687));
#247=EDGE_LOOP('',(#688,#689,#690,#691));
#248=EDGE_LOOP('',(#692,#693,#694,#695));
#249=EDGE_LOOP('',(#696,#697,#698,#699));
#250=EDGE_LOOP('',(#700,#701,#702,#703,#704,#705));
#251=EDGE_LOOP('',(#706));
#252=EDGE_LOOP('',(#707));
#253=EDGE_LOOP('',(#708));
#254=EDGE_LOOP('',(#709));
#255=EDGE_LOOP('',(#710,#711,#712,#713,#714));
#256=EDGE_LOOP('',(#715,#716,#717,#718));
#257=EDGE_LOOP('',(#719,#720,#721,#722));
#258=EDGE_LOOP('',(#723,#724,#725,#726));
#259=EDGE_LOOP('',(#727,#728,#729,#730));
#260=CIRCLE('',#818,1.25);
#261=CIRCLE('',#820,1.25);
#262=CIRCLE('',#822,1.25);
#263=CIRCLE('',#824,1.25);
#264=CIRCLE('',#826,19.8);
#265=CIRCLE('',#827,19.8);
#266=CIRCLE('',#828,19.8);
#267=CIRCLE('',#829,19.8);
#268=CIRCLE('',#832,1.25);
#269=CIRCLE('',#834,1.25);
#270=CIRCLE('',#836,1.25);
#271=CIRCLE('',#838,1.25);
#272=CIRCLE('',#840,19.8);
#273=CIRCLE('',#841,19.8);
#274=CIRCLE('',#842,19.8);
#275=CIRCLE('',#843,19.8);
#276=CIRCLE('',#846,15.);
#277=CIRCLE('',#850,15.);
#278=CIRCLE('',#851,15.);
#279=CIRCLE('',#853,12.5);
#280=CIRCLE('',#854,12.5);
#281=CIRCLE('',#855,25.);
#282=CIRCLE('',#856,25.);
#283=CIRCLE('',#857,24.142135623731);
#284=CIRCLE('',#858,25.);
#285=CIRCLE('',#859,15.);
#286=CIRCLE('',#860,10.);
#287=CIRCLE('',#861,10.);
#288=CIRCLE('',#863,1.25);
#289=CIRCLE('',#864,1.25);
#290=CIRCLE('',#866,1.25);
#291=CIRCLE('',#868,1.25);
#292=CIRCLE('',#870,1.25);
#293=CIRCLE('',#872,10.);
#294=CIRCLE('',#873,10.);
#295=CIRCLE('',#876,12.5);
#296=CIRCLE('',#878,17.5);
#297=CIRCLE('',#879,17.5);
#298=CIRCLE('',#881,17.247448713916);
#299=CIRCLE('',#883,15.);
#300=CIRCLE('',#884,17.5);
#301=CIRCLE('',#886,15.);
#302=CIRCLE('',#887,15.);
#303=CIRCLE('',#888,25.);
#304=CIRCLE('',#891,12.5);
#305=CIRCLE('',#892,12.5);
#306=CIRCLE('',#893,5.);
#307=CIRCLE('',#895,12.5);
#308=CIRCLE('',#896,12.5);
#309=CIRCLE('',#897,5.);
#310=CIRCLE('',#898,17.5);
#311=CIRCLE('',#907,1.25);
#312=CIRCLE('',#908,1.25);
#313=CIRCLE('',#909,1.25);
#314=CIRCLE('',#910,1.25);
#315=VERTEX_POINT('',#1172);
#316=VERTEX_POINT('',#1175);
#317=VERTEX_POINT('',#1178);
#318=VERTEX_POINT('',#1181);
#319=VERTEX_POINT('',#1184);
#320=VERTEX_POINT('',#1186);
#321=VERTEX_POINT('',#1188);
#322=VERTEX_POINT('',#1190);
#323=VERTEX_POINT('',#1192);
#324=VERTEX_POINT('',#1194);
#325=VERTEX_POINT('',#1199);
#326=VERTEX_POINT('',#1202);
#327=VERTEX_POINT('',#1205);
#328=VERTEX_POINT('',#1208);
#329=VERTEX_POINT('',#1211);
#330=VERTEX_POINT('',#1213);
#331=VERTEX_POINT('',#1215);
#332=VERTEX_POINT('',#1217);
#333=VERTEX_POINT('',#1219);
#334=VERTEX_POINT('',#1221);
#335=VERTEX_POINT('',#1226);
#336=VERTEX_POINT('',#1228);
#337=VERTEX_POINT('',#1230);
#338=VERTEX_POINT('',#1234);
#339=VERTEX_POINT('',#1236);
#340=VERTEX_POINT('',#1238);
#341=VERTEX_POINT('',#1247);
#342=VERTEX_POINT('',#1249);
#343=VERTEX_POINT('',#1251);
#344=VERTEX_POINT('',#1253);
#345=VERTEX_POINT('',#1257);
#346=VERTEX_POINT('',#1259);
#347=VERTEX_POINT('',#1261);
#348=VERTEX_POINT('',#1265);
#349=VERTEX_POINT('',#1267);
#350=VERTEX_POINT('',#1269);
#351=VERTEX_POINT('',#1271);
#352=VERTEX_POINT('',#1273);
#353=VERTEX_POINT('',#1275);
#354=VERTEX_POINT('',#1288);
#355=VERTEX_POINT('',#1290);
#356=VERTEX_POINT('',#1292);
#357=VERTEX_POINT('',#1294);
#358=VERTEX_POINT('',#1321);
#359=VERTEX_POINT('',#1326);
#360=VERTEX_POINT('',#1330);
#361=VERTEX_POINT('',#1332);
#362=VERTEX_POINT('',#1341);
#363=VERTEX_POINT('',#1360);
#364=VERTEX_POINT('',#1364);
#365=VERTEX_POINT('',#1367);
#366=VERTEX_POINT('',#1369);
#367=VERTEX_POINT('',#1373);
#368=VERTEX_POINT('',#1374);
#369=VERTEX_POINT('',#1382);
#370=VERTEX_POINT('',#1386);
#371=VERTEX_POINT('',#1391);
#372=VERTEX_POINT('',#1393);
#373=VERTEX_POINT('',#1397);
#374=VERTEX_POINT('',#1401);
#375=VERTEX_POINT('',#1403);
#376=VERTEX_POINT('',#1405);
#377=VERTEX_POINT('',#1409);
#378=VERTEX_POINT('',#1421);
#379=VERTEX_POINT('',#1427);
#380=VERTEX_POINT('',#1439);
#381=VERTEX_POINT('',#1443);
#382=VERTEX_POINT('',#1444);
#383=VERTEX_POINT('',#1457);
#384=VERTEX_POINT('',#1458);
#385=VERTEX_POINT('',#1477);
#386=VERTEX_POINT('',#1479);
#387=VERTEX_POINT('',#1481);
#388=VERTEX_POINT('',#1483);
#389=EDGE_CURVE('',#315,#315,#260,.T.);
#390=EDGE_CURVE('',#316,#316,#261,.T.);
#391=EDGE_CURVE('',#317,#317,#262,.T.);
#392=EDGE_CURVE('',#318,#318,#263,.T.);
#393=EDGE_CURVE('',#319,#319,#264,.T.);
#394=EDGE_CURVE('',#319,#320,#30,.T.);
#395=EDGE_CURVE('',#321,#320,#265,.T.);
#396=EDGE_CURVE('',#321,#322,#31,.T.);
#397=EDGE_CURVE('',#323,#322,#266,.T.);
#398=EDGE_CURVE('',#323,#324,#32,.T.);
#399=EDGE_CURVE('',#320,#324,#267,.T.);
#400=EDGE_CURVE('',#325,#325,#268,.T.);
#401=EDGE_CURVE('',#326,#326,#269,.T.);
#402=EDGE_CURVE('',#327,#327,#270,.T.);
#403=EDGE_CURVE('',#328,#328,#271,.T.);
#404=EDGE_CURVE('',#329,#329,#272,.T.);
#405=EDGE_CURVE('',#329,#330,#33,.T.);
#406=EDGE_CURVE('',#331,#330,#273,.T.);
#407=EDGE_CURVE('',#331,#332,#34,.T.);
#408=EDGE_CURVE('',#333,#332,#274,.T.);
#409=EDGE_CURVE('',#333,#334,#35,.T.);
#410=EDGE_CURVE('',#330,#334,#275,.T.);
#411=EDGE_CURVE('',#335,#323,#36,.T.);
#412=EDGE_CURVE('',#336,#335,#276,.T.);
#413=EDGE_CURVE('',#337,#336,#37,.T.);
#414=EDGE_CURVE('',#324,#337,#38,.T.);
#415=EDGE_CURVE('',#338,#321,#39,.T.);
#416=EDGE_CURVE('',#339,#338,#40,.T.);
#417=EDGE_CURVE('',#340,#339,#25,.T.);
#418=EDGE_CURVE('',#340,#322,#41,.T.);
#419=EDGE_CURVE('',#341,#336,#42,.T.);
#420=EDGE_CURVE('',#342,#341,#43,.T.);
#421=EDGE_CURVE('',#342,#343,#44,.T.);
#422=EDGE_CURVE('',#344,#343,#45,.T.);
#423=EDGE_CURVE('',#344,#337,#46,.T.);
#424=EDGE_CURVE('',#335,#345,#47,.T.);
#425=EDGE_CURVE('',#346,#345,#277,.T.);
#426=EDGE_CURVE('',#346,#347,#48,.T.);
#427=EDGE_CURVE('',#347,#341,#278,.T.);
#428=EDGE_CURVE('',#348,#344,#279,.F.);
#429=EDGE_CURVE('',#349,#348,#49,.T.);
#430=EDGE_CURVE('',#350,#349,#280,.F.);
#431=EDGE_CURVE('',#350,#351,#50,.T.);
#432=EDGE_CURVE('',#352,#351,#281,.T.);
#433=EDGE_CURVE('',#352,#353,#51,.T.);
#434=EDGE_CURVE('',#338,#353,#282,.T.);
#435=EDGE_CURVE('',#345,#340,#283,.T.);
#436=EDGE_CURVE('',#339,#354,#284,.T.);
#437=EDGE_CURVE('',#355,#354,#285,.T.);
#438=EDGE_CURVE('',#355,#356,#286,.T.);
#439=EDGE_CURVE('',#356,#357,#26,.T.);
#440=EDGE_CURVE('',#357,#346,#287,.T.);
#441=EDGE_CURVE('',#318,#358,#52,.T.);
#442=EDGE_CURVE('',#357,#358,#288,.T.);
#443=EDGE_CURVE('',#358,#356,#289,.T.);
#444=EDGE_CURVE('',#317,#359,#53,.T.);
#445=EDGE_CURVE('',#359,#359,#290,.T.);
#446=EDGE_CURVE('',#316,#360,#54,.T.);
#447=EDGE_CURVE('',#361,#360,#27,.T.);
#448=EDGE_CURVE('',#362,#361,#291,.T.);
#449=EDGE_CURVE('',#360,#362,#28,.T.);
#450=EDGE_CURVE('',#315,#363,#55,.T.);
#451=EDGE_CURVE('',#363,#363,#292,.T.);
#452=EDGE_CURVE('',#364,#355,#56,.T.);
#453=EDGE_CURVE('',#362,#364,#293,.T.);
#454=EDGE_CURVE('',#365,#361,#294,.T.);
#455=EDGE_CURVE('',#366,#365,#57,.T.);
#456=EDGE_CURVE('',#347,#366,#58,.T.);
#457=EDGE_CURVE('',#367,#368,#29,.T.);
#458=EDGE_CURVE('',#367,#332,#59,.T.);
#459=EDGE_CURVE('',#369,#331,#60,.T.);
#460=EDGE_CURVE('',#368,#369,#61,.T.);
#461=EDGE_CURVE('',#343,#370,#295,.T.);
#462=EDGE_CURVE('',#334,#342,#62,.T.);
#463=EDGE_CURVE('',#370,#333,#63,.T.);
#464=EDGE_CURVE('',#369,#371,#296,.T.);
#465=EDGE_CURVE('',#371,#372,#64,.T.);
#466=EDGE_CURVE('',#368,#372,#297,.T.);
#467=EDGE_CURVE('',#373,#367,#298,.T.);
#468=EDGE_CURVE('',#370,#373,#65,.T.);
#469=EDGE_CURVE('',#374,#366,#299,.T.);
#470=EDGE_CURVE('',#374,#375,#66,.T.);
#471=EDGE_CURVE('',#376,#375,#300,.T.);
#472=EDGE_CURVE('',#376,#371,#67,.T.);
#473=EDGE_CURVE('',#365,#377,#301,.T.);
#474=EDGE_CURVE('',#377,#374,#68,.T.);
#475=EDGE_CURVE('',#364,#378,#302,.T.);
#476=EDGE_CURVE('',#378,#377,#303,.T.);
#477=EDGE_CURVE('',#354,#378,#69,.T.);
#478=EDGE_CURVE('',#373,#379,#304,.T.);
#479=EDGE_CURVE('',#379,#348,#70,.T.);
#480=EDGE_CURVE('',#372,#380,#305,.T.);
#481=EDGE_CURVE('',#380,#379,#306,.T.);
#482=EDGE_CURVE('',#381,#382,#307,.T.);
#483=EDGE_CURVE('',#382,#380,#71,.T.);
#484=EDGE_CURVE('',#372,#381,#72,.T.);
#485=EDGE_CURVE('',#383,#384,#308,.T.);
#486=EDGE_CURVE('',#384,#382,#309,.T.);
#487=EDGE_CURVE('',#381,#383,#310,.T.);
#488=EDGE_CURVE('',#349,#384,#73,.T.);
#489=EDGE_CURVE('',#383,#350,#74,.T.);
#490=EDGE_CURVE('',#351,#377,#75,.T.);
#491=EDGE_CURVE('',#375,#383,#76,.T.);
#492=EDGE_CURVE('',#381,#376,#77,.T.);
#493=EDGE_CURVE('',#378,#352,#78,.T.);
#494=EDGE_CURVE('',#353,#354,#79,.T.);
#495=EDGE_CURVE('',#385,#385,#311,.T.);
#496=EDGE_CURVE('',#386,#386,#312,.T.);
#497=EDGE_CURVE('',#387,#387,#313,.T.);
#498=EDGE_CURVE('',#388,#388,#314,.T.);
#499=EDGE_CURVE('',#388,#328,#80,.T.);
#500=EDGE_CURVE('',#387,#327,#81,.T.);
#501=EDGE_CURVE('',#386,#326,#82,.T.);
#502=EDGE_CURVE('',#385,#325,#83,.T.);
#503=ORIENTED_EDGE('',*,*,#389,.F.);
#504=ORIENTED_EDGE('',*,*,#390,.F.);
#505=ORIENTED_EDGE('',*,*,#391,.F.);
#506=ORIENTED_EDGE('',*,*,#392,.F.);
#507=ORIENTED_EDGE('',*,*,#393,.F.);
#508=ORIENTED_EDGE('',*,*,#394,.T.);
#509=ORIENTED_EDGE('',*,*,#395,.F.);
#510=ORIENTED_EDGE('',*,*,#396,.T.);
#511=ORIENTED_EDGE('',*,*,#397,.F.);
#512=ORIENTED_EDGE('',*,*,#398,.T.);
#513=ORIENTED_EDGE('',*,*,#399,.F.);
#514=ORIENTED_EDGE('',*,*,#394,.F.);
#515=ORIENTED_EDGE('',*,*,#393,.T.);
#516=ORIENTED_EDGE('',*,*,#400,.F.);
#517=ORIENTED_EDGE('',*,*,#401,.F.);
#518=ORIENTED_EDGE('',*,*,#402,.F.);
#519=ORIENTED_EDGE('',*,*,#403,.F.);
#520=ORIENTED_EDGE('',*,*,#404,.F.);
#521=ORIENTED_EDGE('',*,*,#405,.T.);
#522=ORIENTED_EDGE('',*,*,#406,.F.);
#523=ORIENTED_EDGE('',*,*,#407,.T.);
#524=ORIENTED_EDGE('',*,*,#408,.F.);
#525=ORIENTED_EDGE('',*,*,#409,.T.);
#526=ORIENTED_EDGE('',*,*,#410,.F.);
#527=ORIENTED_EDGE('',*,*,#405,.F.);
#528=ORIENTED_EDGE('',*,*,#404,.T.);
#529=ORIENTED_EDGE('',*,*,#398,.F.);
#530=ORIENTED_EDGE('',*,*,#411,.F.);
#531=ORIENTED_EDGE('',*,*,#412,.F.);
#532=ORIENTED_EDGE('',*,*,#413,.F.);
#533=ORIENTED_EDGE('',*,*,#414,.F.);
#534=ORIENTED_EDGE('',*,*,#396,.F.);
#535=ORIENTED_EDGE('',*,*,#415,.F.);
#536=ORIENTED_EDGE('',*,*,#416,.F.);
#537=ORIENTED_EDGE('',*,*,#417,.F.);
#538=ORIENTED_EDGE('',*,*,#418,.T.);
#539=ORIENTED_EDGE('',*,*,#413,.T.);
#540=ORIENTED_EDGE('',*,*,#419,.F.);
#541=ORIENTED_EDGE('',*,*,#420,.F.);
#542=ORIENTED_EDGE('',*,*,#421,.T.);
#543=ORIENTED_EDGE('',*,*,#422,.F.);
#544=ORIENTED_EDGE('',*,*,#423,.T.);
#545=ORIENTED_EDGE('',*,*,#412,.T.);
#546=ORIENTED_EDGE('',*,*,#424,.T.);
#547=ORIENTED_EDGE('',*,*,#425,.F.);
#548=ORIENTED_EDGE('',*,*,#426,.T.);
#549=ORIENTED_EDGE('',*,*,#427,.T.);
#550=ORIENTED_EDGE('',*,*,#419,.T.);
#551=ORIENTED_EDGE('',*,*,#414,.T.);
#552=ORIENTED_EDGE('',*,*,#423,.F.);
#553=ORIENTED_EDGE('',*,*,#428,.F.);
#554=ORIENTED_EDGE('',*,*,#429,.F.);
#555=ORIENTED_EDGE('',*,*,#430,.F.);
#556=ORIENTED_EDGE('',*,*,#431,.T.);
#557=ORIENTED_EDGE('',*,*,#432,.F.);
#558=ORIENTED_EDGE('',*,*,#433,.T.);
#559=ORIENTED_EDGE('',*,*,#434,.F.);
#560=ORIENTED_EDGE('',*,*,#415,.T.);
#561=ORIENTED_EDGE('',*,*,#395,.T.);
#562=ORIENTED_EDGE('',*,*,#399,.T.);
#563=ORIENTED_EDGE('',*,*,#435,.T.);
#564=ORIENTED_EDGE('',*,*,#417,.T.);
#565=ORIENTED_EDGE('',*,*,#436,.T.);
#566=ORIENTED_EDGE('',*,*,#437,.F.);
#567=ORIENTED_EDGE('',*,*,#438,.T.);
#568=ORIENTED_EDGE('',*,*,#439,.T.);
#569=ORIENTED_EDGE('',*,*,#440,.T.);
#570=ORIENTED_EDGE('',*,*,#425,.T.);
#571=ORIENTED_EDGE('',*,*,#392,.T.);
#572=ORIENTED_EDGE('',*,*,#441,.T.);
#573=ORIENTED_EDGE('',*,*,#442,.F.);
#574=ORIENTED_EDGE('',*,*,#439,.F.);
#575=ORIENTED_EDGE('',*,*,#443,.F.);
#576=ORIENTED_EDGE('',*,*,#441,.F.);
#577=ORIENTED_EDGE('',*,*,#391,.T.);
#578=ORIENTED_EDGE('',*,*,#444,.T.);
#579=ORIENTED_EDGE('',*,*,#445,.F.);
#580=ORIENTED_EDGE('',*,*,#444,.F.);
#581=ORIENTED_EDGE('',*,*,#390,.T.);
#582=ORIENTED_EDGE('',*,*,#446,.T.);
#583=ORIENTED_EDGE('',*,*,#447,.F.);
#584=ORIENTED_EDGE('',*,*,#448,.F.);
#585=ORIENTED_EDGE('',*,*,#449,.F.);
#586=ORIENTED_EDGE('',*,*,#446,.F.);
#587=ORIENTED_EDGE('',*,*,#389,.T.);
#588=ORIENTED_EDGE('',*,*,#450,.T.);
#589=ORIENTED_EDGE('',*,*,#451,.F.);
#590=ORIENTED_EDGE('',*,*,#450,.F.);
#591=ORIENTED_EDGE('',*,*,#442,.T.);
#592=ORIENTED_EDGE('',*,*,#443,.T.);
#593=ORIENTED_EDGE('',*,*,#438,.F.);
#594=ORIENTED_EDGE('',*,*,#452,.F.);
#595=ORIENTED_EDGE('',*,*,#453,.F.);
#596=ORIENTED_EDGE('',*,*,#448,.T.);
#597=ORIENTED_EDGE('',*,*,#454,.F.);
#598=ORIENTED_EDGE('',*,*,#455,.F.);
#599=ORIENTED_EDGE('',*,*,#456,.F.);
#600=ORIENTED_EDGE('',*,*,#426,.F.);
#601=ORIENTED_EDGE('',*,*,#440,.F.);
#602=ORIENTED_EDGE('',*,*,#451,.T.);
#603=ORIENTED_EDGE('',*,*,#445,.T.);
#604=ORIENTED_EDGE('',*,*,#457,.F.);
#605=ORIENTED_EDGE('',*,*,#458,.T.);
#606=ORIENTED_EDGE('',*,*,#407,.F.);
#607=ORIENTED_EDGE('',*,*,#459,.F.);
#608=ORIENTED_EDGE('',*,*,#460,.F.);
#609=ORIENTED_EDGE('',*,*,#461,.F.);
#610=ORIENTED_EDGE('',*,*,#421,.F.);
#611=ORIENTED_EDGE('',*,*,#462,.F.);
#612=ORIENTED_EDGE('',*,*,#409,.F.);
#613=ORIENTED_EDGE('',*,*,#463,.F.);
#614=ORIENTED_EDGE('',*,*,#460,.T.);
#615=ORIENTED_EDGE('',*,*,#464,.T.);
#616=ORIENTED_EDGE('',*,*,#465,.T.);
#617=ORIENTED_EDGE('',*,*,#466,.F.);
#618=ORIENTED_EDGE('',*,*,#408,.T.);
#619=ORIENTED_EDGE('',*,*,#458,.F.);
#620=ORIENTED_EDGE('',*,*,#467,.F.);
#621=ORIENTED_EDGE('',*,*,#468,.F.);
#622=ORIENTED_EDGE('',*,*,#463,.T.);
#623=ORIENTED_EDGE('',*,*,#459,.T.);
#624=ORIENTED_EDGE('',*,*,#406,.T.);
#625=ORIENTED_EDGE('',*,*,#410,.T.);
#626=ORIENTED_EDGE('',*,*,#462,.T.);
#627=ORIENTED_EDGE('',*,*,#420,.T.);
#628=ORIENTED_EDGE('',*,*,#427,.F.);
#629=ORIENTED_EDGE('',*,*,#456,.T.);
#630=ORIENTED_EDGE('',*,*,#469,.F.);
#631=ORIENTED_EDGE('',*,*,#470,.T.);
#632=ORIENTED_EDGE('',*,*,#471,.F.);
#633=ORIENTED_EDGE('',*,*,#472,.T.);
#634=ORIENTED_EDGE('',*,*,#464,.F.);
#635=ORIENTED_EDGE('',*,*,#469,.T.);
#636=ORIENTED_EDGE('',*,*,#455,.T.);
#637=ORIENTED_EDGE('',*,*,#473,.T.);
#638=ORIENTED_EDGE('',*,*,#474,.T.);
#639=ORIENTED_EDGE('',*,*,#447,.T.);
#640=ORIENTED_EDGE('',*,*,#449,.T.);
#641=ORIENTED_EDGE('',*,*,#453,.T.);
#642=ORIENTED_EDGE('',*,*,#475,.T.);
#643=ORIENTED_EDGE('',*,*,#476,.T.);
#644=ORIENTED_EDGE('',*,*,#473,.F.);
#645=ORIENTED_EDGE('',*,*,#454,.T.);
#646=ORIENTED_EDGE('',*,*,#437,.T.);
#647=ORIENTED_EDGE('',*,*,#477,.T.);
#648=ORIENTED_EDGE('',*,*,#475,.F.);
#649=ORIENTED_EDGE('',*,*,#452,.T.);
#650=ORIENTED_EDGE('',*,*,#468,.T.);
#651=ORIENTED_EDGE('',*,*,#478,.T.);
#652=ORIENTED_EDGE('',*,*,#479,.T.);
#653=ORIENTED_EDGE('',*,*,#428,.T.);
#654=ORIENTED_EDGE('',*,*,#422,.T.);
#655=ORIENTED_EDGE('',*,*,#461,.T.);
#656=ORIENTED_EDGE('',*,*,#457,.T.);
#657=ORIENTED_EDGE('',*,*,#466,.T.);
#658=ORIENTED_EDGE('',*,*,#480,.T.);
#659=ORIENTED_EDGE('',*,*,#481,.T.);
#660=ORIENTED_EDGE('',*,*,#478,.F.);
#661=ORIENTED_EDGE('',*,*,#467,.T.);
#662=ORIENTED_EDGE('',*,*,#482,.T.);
#663=ORIENTED_EDGE('',*,*,#483,.T.);
#664=ORIENTED_EDGE('',*,*,#480,.F.);
#665=ORIENTED_EDGE('',*,*,#484,.T.);
#666=ORIENTED_EDGE('',*,*,#485,.T.);
#667=ORIENTED_EDGE('',*,*,#486,.T.);
#668=ORIENTED_EDGE('',*,*,#482,.F.);
#669=ORIENTED_EDGE('',*,*,#487,.T.);
#670=ORIENTED_EDGE('',*,*,#430,.T.);
#671=ORIENTED_EDGE('',*,*,#488,.T.);
#672=ORIENTED_EDGE('',*,*,#485,.F.);
#673=ORIENTED_EDGE('',*,*,#489,.T.);
#674=ORIENTED_EDGE('',*,*,#474,.F.);
#675=ORIENTED_EDGE('',*,*,#490,.F.);
#676=ORIENTED_EDGE('',*,*,#431,.F.);
#677=ORIENTED_EDGE('',*,*,#489,.F.);
#678=ORIENTED_EDGE('',*,*,#491,.F.);
#679=ORIENTED_EDGE('',*,*,#470,.F.);
#680=ORIENTED_EDGE('',*,*,#487,.F.);
#681=ORIENTED_EDGE('',*,*,#492,.T.);
#682=ORIENTED_EDGE('',*,*,#471,.T.);
#683=ORIENTED_EDGE('',*,*,#491,.T.);
#684=ORIENTED_EDGE('',*,*,#484,.F.);
#685=ORIENTED_EDGE('',*,*,#465,.F.);
#686=ORIENTED_EDGE('',*,*,#472,.F.);
#687=ORIENTED_EDGE('',*,*,#492,.F.);
#688=ORIENTED_EDGE('',*,*,#476,.F.);
#689=ORIENTED_EDGE('',*,*,#493,.T.);
#690=ORIENTED_EDGE('',*,*,#432,.T.);
#691=ORIENTED_EDGE('',*,*,#490,.T.);
#692=ORIENTED_EDGE('',*,*,#477,.F.);
#693=ORIENTED_EDGE('',*,*,#494,.F.);
#694=ORIENTED_EDGE('',*,*,#433,.F.);
#695=ORIENTED_EDGE('',*,*,#493,.F.);
#696=ORIENTED_EDGE('',*,*,#416,.T.);
#697=ORIENTED_EDGE('',*,*,#434,.T.);
#698=ORIENTED_EDGE('',*,*,#494,.T.);
#699=ORIENTED_EDGE('',*,*,#436,.F.);
#700=ORIENTED_EDGE('',*,*,#488,.F.);
#701=ORIENTED_EDGE('',*,*,#429,.T.);
#702=ORIENTED_EDGE('',*,*,#479,.F.);
#703=ORIENTED_EDGE('',*,*,#481,.F.);
#704=ORIENTED_EDGE('',*,*,#483,.F.);
#705=ORIENTED_EDGE('',*,*,#486,.F.);
#706=ORIENTED_EDGE('',*,*,#495,.T.);
#707=ORIENTED_EDGE('',*,*,#496,.T.);
#708=ORIENTED_EDGE('',*,*,#497,.T.);
#709=ORIENTED_EDGE('',*,*,#498,.T.);
#710=ORIENTED_EDGE('',*,*,#397,.T.);
#711=ORIENTED_EDGE('',*,*,#418,.F.);
#712=ORIENTED_EDGE('',*,*,#435,.F.);
#713=ORIENTED_EDGE('',*,*,#424,.F.);
#714=ORIENTED_EDGE('',*,*,#411,.T.);
#715=ORIENTED_EDGE('',*,*,#498,.F.);
#716=ORIENTED_EDGE('',*,*,#499,.T.);
#717=ORIENTED_EDGE('',*,*,#403,.T.);
#718=ORIENTED_EDGE('',*,*,#499,.F.);
#719=ORIENTED_EDGE('',*,*,#497,.F.);
#720=ORIENTED_EDGE('',*,*,#500,.T.);
#721=ORIENTED_EDGE('',*,*,#402,.T.);
#722=ORIENTED_EDGE('',*,*,#500,.F.);
#723=ORIENTED_EDGE('',*,*,#496,.F.);
#724=ORIENTED_EDGE('',*,*,#501,.T.);
#725=ORIENTED_EDGE('',*,*,#401,.T.);
#726=ORIENTED_EDGE('',*,*,#501,.F.);
#727=ORIENTED_EDGE('',*,*,#495,.F.);
#728=ORIENTED_EDGE('',*,*,#502,.T.);
#729=ORIENTED_EDGE('',*,*,#400,.T.);
#730=ORIENTED_EDGE('',*,*,#502,.F.);
#731=PLANE('',#817);
#732=PLANE('',#819);
#733=PLANE('',#821);
#734=PLANE('',#823);
#735=PLANE('',#830);
#736=PLANE('',#831);
#737=PLANE('',#833);
#738=PLANE('',#835);
#739=PLANE('',#837);
#740=PLANE('',#844);
#741=PLANE('',#845);
#742=PLANE('',#847);
#743=PLANE('',#848);
#744=PLANE('',#852);
#745=PLANE('',#871);
#746=PLANE('',#874);
#747=PLANE('',#875);
#748=PLANE('',#880);
#749=PLANE('',#882);
#750=PLANE('',#900);
#751=PLANE('',#902);
#752=PLANE('',#904);
#753=PLANE('',#906);
#754=PLANE('',#911);
#755=ADVANCED_FACE('',(#158),#731,.T.);
#756=ADVANCED_FACE('',(#159),#732,.T.);
#757=ADVANCED_FACE('',(#160),#733,.T.);
#758=ADVANCED_FACE('',(#161),#734,.T.);
#759=ADVANCED_FACE('',(#162),#138,.T.);
#760=ADVANCED_FACE('',(#163),#735,.T.);
#761=ADVANCED_FACE('',(#164),#736,.T.);
#762=ADVANCED_FACE('',(#165),#737,.T.);
#763=ADVANCED_FACE('',(#166),#738,.T.);
#764=ADVANCED_FACE('',(#167),#739,.T.);
#765=ADVANCED_FACE('',(#168),#139,.T.);
#766=ADVANCED_FACE('',(#169),#740,.T.);
#767=ADVANCED_FACE('',(#170),#741,.F.);
#768=ADVANCED_FACE('',(#171),#742,.F.);
#769=ADVANCED_FACE('',(#172),#743,.T.);
#770=ADVANCED_FACE('',(#173),#140,.T.);
#771=ADVANCED_FACE('',(#174),#744,.T.);
#772=ADVANCED_FACE('',(#175),#21,.F.);
#773=ADVANCED_FACE('',(#176),#141,.F.);
#774=ADVANCED_FACE('',(#177),#142,.F.);
#775=ADVANCED_FACE('',(#178),#143,.F.);
#776=ADVANCED_FACE('',(#179),#144,.F.);
#777=ADVANCED_FACE('',(#180,#15,#16),#745,.F.);
#778=ADVANCED_FACE('',(#181),#746,.F.);
#779=ADVANCED_FACE('',(#182),#747,.F.);
#780=ADVANCED_FACE('',(#183),#145,.T.);
#781=ADVANCED_FACE('',(#184),#748,.F.);
#782=ADVANCED_FACE('',(#185),#749,.F.);
#783=ADVANCED_FACE('',(#186),#146,.T.);
#784=ADVANCED_FACE('',(#187),#22,.F.);
#785=ADVANCED_FACE('',(#188),#147,.T.);
#786=ADVANCED_FACE('',(#189),#148,.T.);
#787=ADVANCED_FACE('',(#190),#23,.F.);
#788=ADVANCED_FACE('',(#191),#149,.T.);
#789=ADVANCED_FACE('',(#192),#24,.F.);
#790=ADVANCED_FACE('',(#193),#150,.T.);
#791=ADVANCED_FACE('',(#194),#750,.T.);
#792=ADVANCED_FACE('',(#195),#151,.T.);
#793=ADVANCED_FACE('',(#196),#751,.T.);
#794=ADVANCED_FACE('',(#197),#152,.T.);
#795=ADVANCED_FACE('',(#198),#752,.F.);
#796=ADVANCED_FACE('',(#199),#153,.T.);
#797=ADVANCED_FACE('',(#200,#17,#18,#19,#20),#753,.T.);
#798=ADVANCED_FACE('',(#201),#754,.T.);
#799=ADVANCED_FACE('',(#202),#154,.F.);
#800=ADVANCED_FACE('',(#203),#155,.F.);
#801=ADVANCED_FACE('',(#204),#156,.F.);
#802=ADVANCED_FACE('',(#205),#157,.F.);
#803=CLOSED_SHELL('',(#755,#756,#757,#758,#759,#760,#761,#762,#763,#764,
#765,#766,#767,#768,#769,#770,#771,#772,#773,#774,#775,#776,#777,#778,#779,
#780,#781,#782,#783,#784,#785,#786,#787,#788,#789,#790,#791,#792,#793,#794,
#795,#796,#797,#798,#799,#800,#801,#802));
#804=DERIVED_UNIT_ELEMENT(#806,1.);
#805=DERIVED_UNIT_ELEMENT(#1499,-3.);
#806=(
MASS_UNIT()
NAMED_UNIT(*)
SI_UNIT(.KILO.,.GRAM.)
);
#807=DERIVED_UNIT((#804,#805));
#808=MEASURE_REPRESENTATION_ITEM('density measure',
POSITIVE_RATIO_MEASURE(7850.),#807);
#809=PROPERTY_DEFINITION_REPRESENTATION(#814,#811);
#810=PROPERTY_DEFINITION_REPRESENTATION(#815,#812);
#811=REPRESENTATION('material name',(#813),#1496);
#812=REPRESENTATION('density',(#808),#1496);
#813=DESCRIPTIVE_REPRESENTATION_ITEM('\X2\AC15CCA0\X0\','\X2\AC15CCA0\X0\');
#814=PROPERTY_DEFINITION('material property','material name',#1506);
#815=PROPERTY_DEFINITION('material property','density of part',#1506);
#816=AXIS2_PLACEMENT_3D('',#1170,#916,#917);
#817=AXIS2_PLACEMENT_3D('',#1171,#918,#919);
#818=AXIS2_PLACEMENT_3D('',#1173,#920,#921);
#819=AXIS2_PLACEMENT_3D('',#1174,#922,#923);
#820=AXIS2_PLACEMENT_3D('',#1176,#924,#925);
#821=AXIS2_PLACEMENT_3D('',#1177,#926,#927);
#822=AXIS2_PLACEMENT_3D('',#1179,#928,#929);
#823=AXIS2_PLACEMENT_3D('',#1180,#930,#931);
#824=AXIS2_PLACEMENT_3D('',#1182,#932,#933);
#825=AXIS2_PLACEMENT_3D('',#1183,#934,#935);
#826=AXIS2_PLACEMENT_3D('',#1185,#936,#937);
#827=AXIS2_PLACEMENT_3D('',#1189,#939,#940);
#828=AXIS2_PLACEMENT_3D('',#1193,#942,#943);
#829=AXIS2_PLACEMENT_3D('',#1196,#945,#946);
#830=AXIS2_PLACEMENT_3D('',#1197,#947,#948);
#831=AXIS2_PLACEMENT_3D('',#1198,#949,#950);
#832=AXIS2_PLACEMENT_3D('',#1200,#951,#952);
#833=AXIS2_PLACEMENT_3D('',#1201,#953,#954);
#834=AXIS2_PLACEMENT_3D('',#1203,#955,#956);
#835=AXIS2_PLACEMENT_3D('',#1204,#957,#958);
#836=AXIS2_PLACEMENT_3D('',#1206,#959,#960);
#837=AXIS2_PLACEMENT_3D('',#1207,#961,#962);
#838=AXIS2_PLACEMENT_3D('',#1209,#963,#964);
#839=AXIS2_PLACEMENT_3D('',#1210,#965,#966);
#840=AXIS2_PLACEMENT_3D('',#1212,#967,#968);
#841=AXIS2_PLACEMENT_3D('',#1216,#970,#971);
#842=AXIS2_PLACEMENT_3D('',#1220,#973,#974);
#843=AXIS2_PLACEMENT_3D('',#1223,#976,#977);
#844=AXIS2_PLACEMENT_3D('',#1224,#978,#979);
#845=AXIS2_PLACEMENT_3D('',#1225,#980,#981);
#846=AXIS2_PLACEMENT_3D('',#1229,#983,#984);
#847=AXIS2_PLACEMENT_3D('',#1233,#987,#988);
#848=AXIS2_PLACEMENT_3D('',#1246,#992,#993);
#849=AXIS2_PLACEMENT_3D('',#1256,#999,#1000);
#850=AXIS2_PLACEMENT_3D('',#1260,#1002,#1003);
#851=AXIS2_PLACEMENT_3D('',#1263,#1005,#1006);
#852=AXIS2_PLACEMENT_3D('',#1264,#1007,#1008);
#853=AXIS2_PLACEMENT_3D('',#1266,#1009,#1010);
#854=AXIS2_PLACEMENT_3D('',#1270,#1012,#1013);
#855=AXIS2_PLACEMENT_3D('',#1274,#1015,#1016);
#856=AXIS2_PLACEMENT_3D('',#1277,#1018,#1019);
#857=AXIS2_PLACEMENT_3D('',#1287,#1020,#1021);
#858=AXIS2_PLACEMENT_3D('',#1289,#1022,#1023);
#859=AXIS2_PLACEMENT_3D('',#1291,#1024,#1025);
#860=AXIS2_PLACEMENT_3D('',#1293,#1026,#1027);
#861=AXIS2_PLACEMENT_3D('',#1319,#1028,#1029);
#862=AXIS2_PLACEMENT_3D('',#1320,#1030,#1031);
#863=AXIS2_PLACEMENT_3D('',#1323,#1033,#1034);
#864=AXIS2_PLACEMENT_3D('',#1324,#1035,#1036);
#865=AXIS2_PLACEMENT_3D('',#1325,#1037,#1038);
#866=AXIS2_PLACEMENT_3D('',#1328,#1040,#1041);
#867=AXIS2_PLACEMENT_3D('',#1329,#1042,#1043);
#868=AXIS2_PLACEMENT_3D('',#1342,#1045,#1046);
#869=AXIS2_PLACEMENT_3D('',#1359,#1047,#1048);
#870=AXIS2_PLACEMENT_3D('',#1362,#1050,#1051);
#871=AXIS2_PLACEMENT_3D('',#1363,#1052,#1053);
#872=AXIS2_PLACEMENT_3D('',#1366,#1055,#1056);
#873=AXIS2_PLACEMENT_3D('',#1368,#1057,#1058);
#874=AXIS2_PLACEMENT_3D('',#1372,#1061,#1062);
#875=AXIS2_PLACEMENT_3D('',#1385,#1066,#1067);
#876=AXIS2_PLACEMENT_3D('',#1387,#1068,#1069);
#877=AXIS2_PLACEMENT_3D('',#1390,#1072,#1073);
#878=AXIS2_PLACEMENT_3D('',#1392,#1074,#1075);
#879=AXIS2_PLACEMENT_3D('',#1395,#1077,#1078);
#880=AXIS2_PLACEMENT_3D('',#1396,#1079,#1080);
#881=AXIS2_PLACEMENT_3D('',#1398,#1081,#1082);
#882=AXIS2_PLACEMENT_3D('',#1400,#1084,#1085);
#883=AXIS2_PLACEMENT_3D('',#1402,#1086,#1087);
#884=AXIS2_PLACEMENT_3D('',#1406,#1089,#1090);
#885=AXIS2_PLACEMENT_3D('',#1408,#1092,#1093);
#886=AXIS2_PLACEMENT_3D('',#1410,#1094,#1095);
#887=AXIS2_PLACEMENT_3D('',#1422,#1097,#1098);
#888=AXIS2_PLACEMENT_3D('',#1423,#1099,#1100);
#889=AXIS2_PLACEMENT_3D('',#1424,#1101,#1102);
#890=AXIS2_PLACEMENT_3D('',#1426,#1104,#1105);
#891=AXIS2_PLACEMENT_3D('',#1428,#1106,#1107);
#892=AXIS2_PLACEMENT_3D('',#1440,#1109,#1110);
#893=AXIS2_PLACEMENT_3D('',#1441,#1111,#1112);
#894=AXIS2_PLACEMENT_3D('',#1442,#1113,#1114);
#895=AXIS2_PLACEMENT_3D('',#1445,#1115,#1116);
#896=AXIS2_PLACEMENT_3D('',#1459,#1119,#1120);
#897=AXIS2_PLACEMENT_3D('',#1460,#1121,#1122);
#898=AXIS2_PLACEMENT_3D('',#1461,#1123,#1124);
#899=AXIS2_PLACEMENT_3D('',#1462,#1125,#1126);
#900=AXIS2_PLACEMENT_3D('',#1465,#1129,#1130);
#901=AXIS2_PLACEMENT_3D('',#1468,#1133,#1134);
#902=AXIS2_PLACEMENT_3D('',#1470,#1136,#1137);
#903=AXIS2_PLACEMENT_3D('',#1471,#1138,#1139);
#904=AXIS2_PLACEMENT_3D('',#1473,#1141,#1142);
#905=AXIS2_PLACEMENT_3D('',#1475,#1144,#1145);
#906=AXIS2_PLACEMENT_3D('',#1476,#1146,#1147);
#907=AXIS2_PLACEMENT_3D('',#1478,#1148,#1149);
#908=AXIS2_PLACEMENT_3D('',#1480,#1150,#1151);
#909=AXIS2_PLACEMENT_3D('',#1482,#1152,#1153);
#910=AXIS2_PLACEMENT_3D('',#1484,#1154,#1155);
#911=AXIS2_PLACEMENT_3D('',#1485,#1156,#1157);
#912=AXIS2_PLACEMENT_3D('',#1486,#1158,#1159);
#913=AXIS2_PLACEMENT_3D('',#1488,#1161,#1162);
#914=AXIS2_PLACEMENT_3D('',#1490,#1164,#1165);
#915=AXIS2_PLACEMENT_3D('',#1492,#1167,#1168);
#916=DIRECTION('axis',(0.,0.,1.));
#917=DIRECTION('refdir',(1.,0.,0.));
#918=DIRECTION('center_axis',(-5.55111512314544E-17,1.,2.16257574743088E-15));
#919=DIRECTION('ref_axis',(-1.,-5.55111512313371E-17,-5.42482725407465E-14));
#920=DIRECTION('center_axis',(5.55111512314544E-17,-1.,-2.16257574743088E-15));
#921=DIRECTION('ref_axis',(-1.,-5.55111512313371E-17,-5.42482725407465E-14));
#922=DIRECTION('center_axis',(-5.55111512314544E-17,1.,2.16257574743088E-15));
#923=DIRECTION('ref_axis',(-1.,-5.55111512313371E-17,-5.42482725407465E-14));
#924=DIRECTION('center_axis',(5.55111512314544E-17,-1.,-2.16257574743088E-15));
#925=DIRECTION('ref_axis',(-1.,-5.55111512313371E-17,-5.42482725407466E-14));
#926=DIRECTION('center_axis',(-5.55111512314544E-17,1.,2.16257574743088E-15));
#927=DIRECTION('ref_axis',(-1.,-5.55111512313371E-17,-5.42482725407465E-14));
#928=DIRECTION('center_axis',(5.55111512314544E-17,-1.,-2.16257574743088E-15));
#929=DIRECTION('ref_axis',(-1.,-5.55111512313371E-17,-5.42482725407465E-14));
#930=DIRECTION('center_axis',(-5.55111512314544E-17,1.,2.16257574743088E-15));
#931=DIRECTION('ref_axis',(-1.,-5.55111512313371E-17,-5.42482725407465E-14));
#932=DIRECTION('center_axis',(5.55111512314544E-17,-1.,-2.16257574743088E-15));
#933=DIRECTION('ref_axis',(-1.,-5.55111512313371E-17,-5.42482725407465E-14));
#934=DIRECTION('center_axis',(5.55111512314544E-17,-1.,-2.16257574743088E-15));
#935=DIRECTION('ref_axis',(-1.,-5.55111512313371E-17,-5.42482725407466E-14));
#936=DIRECTION('center_axis',(5.55111512314544E-17,-1.,-2.16257574743088E-15));
#937=DIRECTION('ref_axis',(-1.,-5.55111512313371E-17,-5.42482725407466E-14));
#938=DIRECTION('',(-5.55111512314544E-17,1.,2.16257574743088E-15));
#939=DIRECTION('center_axis',(0.,1.,0.));
#940=DIRECTION('ref_axis',(-1.,-5.55111512313371E-17,-5.42482725407466E-14));
#941=DIRECTION('',(-5.55111512314544E-17,1.,2.16257574743088E-15));
#942=DIRECTION('center_axis',(-5.55111512314544E-17,1.,2.16257574743088E-15));
#943=DIRECTION('ref_axis',(-1.,-5.55111512313371E-17,-5.42482725407466E-14));
#944=DIRECTION('',(5.55111512314544E-17,-1.,-2.16257574743088E-15));
#945=DIRECTION('center_axis',(0.,1.,0.));
#946=DIRECTION('ref_axis',(-1.,-5.55111512313371E-17,-5.42482725407466E-14));
#947=DIRECTION('center_axis',(5.55111512314544E-17,-1.,-2.16257574743088E-15));
#948=DIRECTION('ref_axis',(-1.,-5.55111512313371E-17,-5.42482725407465E-14));
#949=DIRECTION('center_axis',(-5.42482725407467E-14,-2.77555756156295E-17,
1.));
#950=DIRECTION('ref_axis',(-1.,5.55111512312563E-17,-5.42482725407467E-14));
#951=DIRECTION('center_axis',(5.42482725407467E-14,2.77555756156295E-17,
-1.));
#952=DIRECTION('ref_axis',(-1.,5.55111512312563E-17,-5.42482725407467E-14));
#953=DIRECTION('center_axis',(-5.42482725407467E-14,-2.77555756156295E-17,
1.));
#954=DIRECTION('ref_axis',(-1.,5.55111512312563E-17,-5.42482725407467E-14));
#955=DIRECTION('center_axis',(5.42482725407467E-14,2.77555756156295E-17,
-1.));
#956=DIRECTION('ref_axis',(-1.,5.55111512312563E-17,-5.42482725407467E-14));
#957=DIRECTION('center_axis',(-5.42482725407467E-14,-2.77555756156295E-17,
1.));
#958=DIRECTION('ref_axis',(-1.,5.55111512312563E-17,-5.42482725407467E-14));
#959=DIRECTION('center_axis',(5.42482725407467E-14,2.77555756156295E-17,
-1.));
#960=DIRECTION('ref_axis',(-1.,5.55111512312563E-17,-5.42482725407467E-14));
#961=DIRECTION('center_axis',(-5.42482725407467E-14,-2.77555756156295E-17,
1.));
#962=DIRECTION('ref_axis',(-1.,5.55111512312563E-17,-5.42482725407467E-14));
#963=DIRECTION('center_axis',(5.42482725407467E-14,2.77555756156295E-17,
-1.));
#964=DIRECTION('ref_axis',(-1.,5.55111512312563E-17,-5.42482725407467E-14));
#965=DIRECTION('center_axis',(5.42482725407467E-14,2.77555756156295E-17,
-1.));
#966=DIRECTION('ref_axis',(-1.,5.55111512312563E-17,-5.42482725407467E-14));
#967=DIRECTION('center_axis',(5.42482725407467E-14,2.77555756156295E-17,
-1.));
#968=DIRECTION('ref_axis',(-1.,5.55111512312563E-17,-5.42482725407467E-14));
#969=DIRECTION('',(-5.42482725407467E-14,-2.77555756156295E-17,1.));
#970=DIRECTION('center_axis',(-5.42482725407467E-14,2.77555756156348E-17,
1.));
#971=DIRECTION('ref_axis',(-1.,-6.16297582203986E-33,-5.42482725407467E-14));
#972=DIRECTION('',(-5.42423249174006E-14,0.,1.));
#973=DIRECTION('center_axis',(-5.42482725407467E-14,2.77555756156348E-17,
1.));
#974=DIRECTION('ref_axis',(-1.,5.55111512312563E-17,-5.42482725407467E-14));
#975=DIRECTION('',(5.42423249174006E-14,0.,-1.));
#976=DIRECTION('center_axis',(-5.42482725407467E-14,2.77555756156348E-17,
1.));
#977=DIRECTION('ref_axis',(-1.,-6.16297582203986E-33,-5.42482725407467E-14));
#978=DIRECTION('center_axis',(5.42482725407467E-14,2.77555756156295E-17,
-1.));
#979=DIRECTION('ref_axis',(-1.,5.55111512312563E-17,-5.42482725407467E-14));
#980=DIRECTION('center_axis',(0.,0.,-1.));
#981=DIRECTION('ref_axis',(0.,1.,0.));
#982=DIRECTION('',(1.,0.,0.));
#983=DIRECTION('center_axis',(0.,0.,-1.));
#984=DIRECTION('ref_axis',(-0.707106781186547,0.707106781186547,0.));
#985=DIRECTION('',(0.,1.,0.));
#986=DIRECTION('',(-1.,0.,0.));
#987=DIRECTION('center_axis',(0.,0.,1.));
#988=DIRECTION('ref_axis',(0.,-1.,0.));
#989=DIRECTION('',(1.,0.,0.));
#990=DIRECTION('',(0.,-1.,0.));
#991=DIRECTION('',(1.,0.,0.));
#992=DIRECTION('center_axis',(-1.,0.,0.));
#993=DIRECTION('ref_axis',(0.,-1.,0.));
#994=DIRECTION('',(0.,0.,1.));
#995=DIRECTION('',(1.49952905470022E-30,1.,-2.77555756156348E-17));
#996=DIRECTION('',(0.,0.,1.));
#997=DIRECTION('',(0.,-1.,2.77555756156348E-17));
#998=DIRECTION('',(0.,0.,1.));
#999=DIRECTION('center_axis',(0.,0.,-1.));
#1000=DIRECTION('ref_axis',(-0.707106781186547,0.707106781186547,0.));
#1001=DIRECTION('',(0.,0.,1.));
#1002=DIRECTION('center_axis',(0.,0.,1.));
#1003=DIRECTION('ref_axis',(0.,1.,0.));
#1004=DIRECTION('',(0.,0.,-1.));
#1005=DIRECTION('center_axis',(-5.42482725407467E-14,2.77555756156348E-17,
1.));
#1006=DIRECTION('ref_axis',(-0.707106781186547,0.707106781186547,0.));
#1007=DIRECTION('center_axis',(0.,-1.,0.));
#1008=DIRECTION('ref_axis',(1.,0.,0.));
#1009=DIRECTION('center_axis',(0.,1.,0.));
#1010=DIRECTION('ref_axis',(-0.707106781186567,0.,0.707106781186528));
#1011=DIRECTION('',(-1.,0.,0.));
#1012=DIRECTION('center_axis',(0.,1.,0.));
#1013=DIRECTION('ref_axis',(0.707106781186528,0.,0.707106781186567));
#1014=DIRECTION('',(0.,0.,1.));
#1015=DIRECTION('center_axis',(0.,1.,0.));
#1016=DIRECTION('ref_axis',(0.707106781186547,0.,0.707106781186547));
#1017=DIRECTION('',(-1.,0.,0.));
#1018=DIRECTION('center_axis',(0.,1.,0.));
#1019=DIRECTION('ref_axis',(-0.707106781186547,0.,0.707106781186547));
#1020=DIRECTION('center_axis',(0.,1.,0.));
#1021=DIRECTION('ref_axis',(0.,0.,-1.));
#1022=DIRECTION('center_axis',(0.,1.,0.));
#1023=DIRECTION('ref_axis',(-0.707106781186548,0.,0.707106781186547));
#1024=DIRECTION('center_axis',(1.,0.,0.));
#1025=DIRECTION('ref_axis',(0.,1.,0.));
#1026=DIRECTION('center_axis',(0.,-1.,0.));
#1027=DIRECTION('ref_axis',(-0.707106781186548,0.,0.707106781186547));
#1028=DIRECTION('center_axis',(0.,-1.,0.));
#1029=DIRECTION('ref_axis',(-0.707106781186548,0.,0.707106781186547));
#1030=DIRECTION('center_axis',(0.,1.,2.12390491667421E-15));
#1031=DIRECTION('ref_axis',(-1.,0.,6.42878764879883E-30));
#1032=DIRECTION('',(0.,1.,2.12390491667421E-15));
#1033=DIRECTION('center_axis',(0.,-1.,0.));
#1034=DIRECTION('ref_axis',(-1.,0.,6.42878764879883E-30));
#1035=DIRECTION('center_axis',(0.,-1.,0.));
#1036=DIRECTION('ref_axis',(-1.,0.,6.42878764879883E-30));
#1037=DIRECTION('center_axis',(0.,1.,2.31698718182641E-15));
#1038=DIRECTION('ref_axis',(-1.,0.,6.4395058676198E-30));
#1039=DIRECTION('',(0.,1.,2.31698718182641E-15));
#1040=DIRECTION('center_axis',(0.,-1.,0.));
#1041=DIRECTION('ref_axis',(-1.,0.,6.4395058676198E-30));
#1042=DIRECTION('center_axis',(0.,1.,2.12390491667421E-15));
#1043=DIRECTION('ref_axis',(-1.,0.,6.42878764879883E-30));
#1044=DIRECTION('',(0.,1.,2.12390491667421E-15));
#1045=DIRECTION('center_axis',(0.,-1.,0.));
#1046=DIRECTION('ref_axis',(-1.,0.,6.42878764879883E-30));
#1047=DIRECTION('center_axis',(0.,1.,2.31698718182641E-15));
#1048=DIRECTION('ref_axis',(-1.,0.,6.4395058676198E-30));
#1049=DIRECTION('',(0.,1.,2.31698718182641E-15));
#1050=DIRECTION('center_axis',(0.,-1.,0.));
#1051=DIRECTION('ref_axis',(-1.,0.,6.4395058676198E-30));
#1052=DIRECTION('center_axis',(0.,-1.,0.));
#1053=DIRECTION('ref_axis',(0.,0.,-1.));
#1054=DIRECTION('',(-1.,0.,0.));
#1055=DIRECTION('center_axis',(0.,-1.,0.));
#1056=DIRECTION('ref_axis',(0.707106781186548,0.,0.707106781186547));
#1057=DIRECTION('center_axis',(0.,-1.,0.));
#1058=DIRECTION('ref_axis',(0.707106781186548,0.,0.707106781186547));
#1059=DIRECTION('',(0.,0.,1.));
#1060=DIRECTION('',(1.,0.,5.42482725407467E-14));
#1061=DIRECTION('center_axis',(0.,-1.,0.));
#1062=DIRECTION('ref_axis',(0.,0.,-1.));
#1063=DIRECTION('',(1.,0.,0.));
#1064=DIRECTION('',(1.,0.,5.42482725407467E-14));
#1065=DIRECTION('',(0.,-3.33903149702436E-46,-1.));
#1066=DIRECTION('center_axis',(0.,1.,0.));
#1067=DIRECTION('ref_axis',(0.,0.,1.));
#1068=DIRECTION('center_axis',(0.,1.,0.));
#1069=DIRECTION('ref_axis',(-0.707106781186567,0.,0.707106781186528));
#1070=DIRECTION('',(-1.,0.,-5.42482725407467E-14));
#1071=DIRECTION('',(1.,0.,0.));
#1072=DIRECTION('center_axis',(0.,3.33903149702436E-46,1.));
#1073=DIRECTION('ref_axis',(-0.707106781186548,-0.707106781186548,0.));
#1074=DIRECTION('center_axis',(-5.42482725407467E-14,2.77555756156348E-17,
1.));
#1075=DIRECTION('ref_axis',(-0.707106781186548,-0.707106781186548,0.));
#1076=DIRECTION('',(0.,3.33903149702436E-46,1.));
#1077=DIRECTION('center_axis',(-5.42482725407467E-14,2.77555756156348E-17,
1.));
#1078=DIRECTION('ref_axis',(-0.707106781186528,-0.707106781186567,-3.83185546784922E-14));
#1079=DIRECTION('center_axis',(-5.42482725407467E-14,2.77555756156348E-17,
1.));
#1080=DIRECTION('ref_axis',(-1.,-6.16297582203986E-33,-5.42482725407467E-14));
#1081=DIRECTION('center_axis',(-2.71241362703734E-14,1.38777878078174E-17,
1.));
#1082=DIRECTION('ref_axis',(-1.,0.,-2.71241362703734E-14));
#1083=DIRECTION('',(0.,-1.,2.77555756156348E-17));
#1084=DIRECTION('center_axis',(-5.42482725407467E-14,2.77555756156348E-17,
1.));
#1085=DIRECTION('ref_axis',(-1.,-6.16297582203986E-33,-5.42482725407467E-14));
#1086=DIRECTION('center_axis',(-5.42482725407467E-14,2.77555756156348E-17,
1.));
#1087=DIRECTION('ref_axis',(0.707106781186547,0.707106781186547,0.));
#1088=DIRECTION('',(-1.49952905470022E-30,-1.,2.77555756156348E-17));
#1089=DIRECTION('center_axis',(-5.42482725407467E-14,2.77555756156348E-17,
1.));
#1090=DIRECTION('ref_axis',(0.707106781186548,-0.707106781186548,0.));
#1091=DIRECTION('',(-1.,-6.16297582203986E-33,-5.42482725407467E-14));
#1092=DIRECTION('center_axis',(0.,0.,1.));
#1093=DIRECTION('ref_axis',(0.707106781186547,0.707106781186547,0.));
#1094=DIRECTION('center_axis',(0.,0.,-1.));
#1095=DIRECTION('ref_axis',(0.,1.,0.));
#1096=DIRECTION('',(0.,0.,-1.));
#1097=DIRECTION('center_axis',(1.,0.,0.));
#1098=DIRECTION('ref_axis',(0.,1.,0.));
#1099=DIRECTION('center_axis',(0.,1.,0.));
#1100=DIRECTION('ref_axis',(0.707106781186548,0.,0.707106781186547));
#1101=DIRECTION('center_axis',(1.,0.,0.));
#1102=DIRECTION('ref_axis',(0.,0.707106781186547,0.707106781186547));
#1103=DIRECTION('',(1.,0.,0.));
#1104=DIRECTION('center_axis',(0.,-1.,2.77555756156348E-17));
#1105=DIRECTION('ref_axis',(-0.707106781186567,0.,0.707106781186528));
#1106=DIRECTION('center_axis',(0.,1.,0.));
#1107=DIRECTION('ref_axis',(-1.,0.,0.));
#1108=DIRECTION('',(0.,1.,-2.77555756156348E-17));
#1109=DIRECTION('center_axis',(-1.,0.,-5.40012479177752E-14));
#1110=DIRECTION('ref_axis',(0.,-1.,0.));
#1111=DIRECTION('center_axis',(5.42482725407467E-14,-2.77555756156348E-17,
-1.));
#1112=DIRECTION('ref_axis',(-0.707106781186528,-0.707106781186567,-3.83396952254834E-14));
#1113=DIRECTION('center_axis',(1.,6.16297582203986E-33,5.42482725407467E-14));
#1114=DIRECTION('ref_axis',(-3.81846485951894E-14,-0.707106781186547,0.707106781186547));
#1115=DIRECTION('center_axis',(-1.,0.,-5.40012479177676E-14));
#1116=DIRECTION('ref_axis',(0.,-1.,0.));
#1117=DIRECTION('',(-1.,-6.16297582203986E-33,-5.42482725407467E-14));
#1118=DIRECTION('',(1.,6.16297582203986E-33,5.42482725407467E-14));
#1119=DIRECTION('center_axis',(0.,-1.,0.));
#1120=DIRECTION('ref_axis',(1.,0.,5.25801624462474E-14));
#1121=DIRECTION('center_axis',(5.42482725407467E-14,-2.77555756156348E-17,
-1.));
#1122=DIRECTION('ref_axis',(0.707106781186567,-0.707106781186528,3.83789475369526E-14));
#1123=DIRECTION('center_axis',(-5.42482725407467E-14,2.77555756156348E-17,
1.));
#1124=DIRECTION('ref_axis',(0.707106781186567,-0.707106781186528,3.83185546784901E-14));
#1125=DIRECTION('center_axis',(0.,1.,-2.77555756156348E-17));
#1126=DIRECTION('ref_axis',(0.707106781186528,0.,0.707106781186567));
#1127=DIRECTION('',(0.,-1.,2.77555756156348E-17));
#1128=DIRECTION('',(0.,1.,-2.77555756156348E-17));
#1129=DIRECTION('center_axis',(1.,0.,0.));
#1130=DIRECTION('ref_axis',(0.,1.,0.));
#1131=DIRECTION('',(0.,1.,0.));
#1132=DIRECTION('',(0.,3.33903149702436E-46,1.));
#1133=DIRECTION('center_axis',(0.,-3.33903149702436E-46,-1.));
#1134=DIRECTION('ref_axis',(0.707106781186548,-0.707106781186548,0.));
#1135=DIRECTION('',(0.,-3.33903149702436E-46,-1.));
#1136=DIRECTION('center_axis',(6.16297582203986E-33,-1.,3.33903149702436E-46));
#1137=DIRECTION('ref_axis',(1.,6.16297582203986E-33,5.42482725407467E-14));
#1138=DIRECTION('center_axis',(0.,-1.,0.));
#1139=DIRECTION('ref_axis',(0.707106781186547,0.,0.707106781186547));
#1140=DIRECTION('',(0.,-1.,0.));
#1141=DIRECTION('center_axis',(0.,0.,-1.));
#1142=DIRECTION('ref_axis',(-1.,0.,0.));
#1143=DIRECTION('',(0.,1.,0.));
#1144=DIRECTION('center_axis',(0.,1.,0.));
#1145=DIRECTION('ref_axis',(-0.707106781186547,0.,0.707106781186547));
#1146=DIRECTION('center_axis',(-5.42482725407467E-14,2.77555756156348E-17,
1.));
#1147=DIRECTION('ref_axis',(-1.,-6.16297582203986E-33,-5.42482725407467E-14));
#1148=DIRECTION('center_axis',(5.42482725407467E-14,-2.77555756156348E-17,
-1.));
#1149=DIRECTION('ref_axis',(1.,6.16297582203986E-33,5.42482725407467E-14));
#1150=DIRECTION('center_axis',(5.42482725407467E-14,-2.77555756156348E-17,
-1.));
#1151=DIRECTION('ref_axis',(1.,6.16297582203986E-33,5.42482725407467E-14));
#1152=DIRECTION('center_axis',(5.42482725407467E-14,-2.77555756156348E-17,
-1.));
#1153=DIRECTION('ref_axis',(1.,6.16297582203986E-33,5.42482725407467E-14));
#1154=DIRECTION('center_axis',(5.42482725407467E-14,-2.77555756156348E-17,
-1.));
#1155=DIRECTION('ref_axis',(1.,6.16297582203986E-33,5.42482725407467E-14));
#1156=DIRECTION('center_axis',(5.55111512314544E-17,-1.,-2.16257574743088E-15));
#1157=DIRECTION('ref_axis',(-1.,-5.55111512313371E-17,-5.42482725407465E-14));
#1158=DIRECTION('center_axis',(-5.41788836017076E-14,0.,1.));
#1159=DIRECTION('ref_axis',(1.,6.16297582203986E-33,5.41788836017076E-14));
#1160=DIRECTION('',(5.41788836017076E-14,0.,-1.));
#1161=DIRECTION('center_axis',(-5.41788836017076E-14,0.,1.));
#1162=DIRECTION('ref_axis',(1.,6.16297582203986E-33,5.41788836017076E-14));
#1163=DIRECTION('',(5.41788836017076E-14,0.,-1.));
#1164=DIRECTION('center_axis',(-5.41788836017076E-14,0.,1.));
#1165=DIRECTION('ref_axis',(1.,6.16297582203986E-33,5.41788836017076E-14));
#1166=DIRECTION('',(5.41788836017076E-14,0.,-1.));
#1167=DIRECTION('center_axis',(-5.41788836017076E-14,0.,1.));
#1168=DIRECTION('ref_axis',(1.,6.16297582203986E-33,5.41788836017076E-14));
#1169=DIRECTION('',(5.41788836017076E-14,0.,-1.));
#1170=CARTESIAN_POINT('',(0.,0.,0.));
#1171=CARTESIAN_POINT('Origin',(-55.3846981263852,58.1188955377818,-50.5460577188965));
#1172=CARTESIAN_POINT('',(-54.1346981263852,58.1188955377818,-50.5460577188965));
#1173=CARTESIAN_POINT('Origin',(-55.3846981263852,58.1188955377818,-50.5460577188965));
#1174=CARTESIAN_POINT('Origin',(-35.3846981263863,58.1188955377818,-30.5460577188954));
#1175=CARTESIAN_POINT('',(-34.1346981263863,58.1188955377818,-30.5460577188954));
#1176=CARTESIAN_POINT('Origin',(-35.3846981263863,58.1188955377818,-30.5460577188954));
#1177=CARTESIAN_POINT('Origin',(-35.3846981263852,58.1188955377818,-50.5460577188954));
#1178=CARTESIAN_POINT('',(-34.1346981263852,58.1188955377818,-50.5460577188954));
#1179=CARTESIAN_POINT('Origin',(-35.3846981263852,58.1188955377818,-50.5460577188954));
#1180=CARTESIAN_POINT('Origin',(-55.3846981263863,58.1188955377818,-30.5460577188965));
#1181=CARTESIAN_POINT('',(-54.1346981263863,58.1188955377818,-30.5460577188965));
#1182=CARTESIAN_POINT('Origin',(-55.3846981263863,58.1188955377818,-30.5460577188965));
#1183=CARTESIAN_POINT('Origin',(-45.3846981263857,66.1188955377818,-40.546057718896));
#1184=CARTESIAN_POINT('',(-25.5846981263857,53.1188955377818,-40.5460577188949));
#1185=CARTESIAN_POINT('Origin',(-45.3846981263857,53.1188955377818,-40.546057718896));
#1186=CARTESIAN_POINT('',(-25.5846981263857,56.1188955377818,-40.5460577188949));
#1187=CARTESIAN_POINT('',(-25.5846981263857,66.1188955377818,-40.5460577188949));
#1188=CARTESIAN_POINT('',(-63.4965726842552,56.1188955377818,-32.546057718896));
#1189=CARTESIAN_POINT('Origin',(-45.3846981263857,56.1188955377818,-40.546057718896));
#1190=CARTESIAN_POINT('',(-63.4965726842552,66.1188955377818,-32.546057718896));
#1191=CARTESIAN_POINT('',(-63.4965726842552,66.1188955377818,-32.546057718896));
#1192=CARTESIAN_POINT('',(-63.4965726842552,66.1188955377818,-48.546057718896));
#1193=CARTESIAN_POINT('Origin',(-45.3846981263857,66.1188955377818,-40.546057718896));
#1194=CARTESIAN_POINT('',(-63.4965726842552,56.1188955377818,-48.546057718896));
#1195=CARTESIAN_POINT('',(-63.4965726842552,66.1188955377818,-48.546057718896));
#1196=CARTESIAN_POINT('Origin',(-45.3846981263857,56.1188955377818,-40.546057718896));
#1197=CARTESIAN_POINT('Origin',(-45.3846981263857,53.1188955377818,-40.546057718896));
#1198=CARTESIAN_POINT('Origin',(-53.6826753121251,-9.03465189462996,-120.000000000001));
#1199=CARTESIAN_POINT('',(-54.9326753121251,-9.03465189462996,-120.000000000001));
#1200=CARTESIAN_POINT('Origin',(-53.6826753121251,-9.03465189462996,-120.000000000001));
#1201=CARTESIAN_POINT('Origin',(-33.6826753121251,-29.03465189463,-119.999999999999));
#1202=CARTESIAN_POINT('',(-34.9326753121251,-29.03465189463,-120.));
#1203=CARTESIAN_POINT('Origin',(-33.6826753121251,-29.03465189463,-119.999999999999));
#1204=CARTESIAN_POINT('Origin',(-33.6826753121251,-9.03465189462996,-119.999999999999));
#1205=CARTESIAN_POINT('',(-34.9326753121251,-9.03465189462996,-120.));
#1206=CARTESIAN_POINT('Origin',(-33.6826753121251,-9.03465189462996,-119.999999999999));
#1207=CARTESIAN_POINT('Origin',(-53.6826753121251,-29.03465189463,-120.000000000001));
#1208=CARTESIAN_POINT('',(-54.9326753121251,-29.03465189463,-120.000000000001));
#1209=CARTESIAN_POINT('Origin',(-53.6826753121251,-29.03465189463,-120.000000000001));
#1210=CARTESIAN_POINT('Origin',(-43.6826753121255,-19.03465189463,-112.));
#1211=CARTESIAN_POINT('',(-23.8826753121248,-19.03465189463,-124.999999999999));
#1212=CARTESIAN_POINT('Origin',(-43.6826753121248,-19.03465189463,-125.));
#1213=CARTESIAN_POINT('',(-23.8826753121246,-19.03465189463,-118.999999999999));
#1214=CARTESIAN_POINT('',(-23.8826753121255,-19.03465189463,-111.999999999999));
#1215=CARTESIAN_POINT('',(-61.794549869994,-27.03465189463,-119.000000000001));
#1216=CARTESIAN_POINT('Origin',(-43.6826753121246,-19.03465189463,-119.));
#1217=CARTESIAN_POINT('',(-61.7945498699944,-27.03465189463,-112.));
#1218=CARTESIAN_POINT('',(-61.7945498699944,-27.03465189463,-112.000000000001));
#1219=CARTESIAN_POINT('',(-61.7945498699944,-11.03465189463,-112.));
#1220=CARTESIAN_POINT('Origin',(-43.6826753121255,-19.03465189463,-112.));
#1221=CARTESIAN_POINT('',(-61.794549869994,-11.03465189463,-119.000000000001));
#1222=CARTESIAN_POINT('',(-61.7945498699944,-11.03465189463,-112.000000000001));
#1223=CARTESIAN_POINT('Origin',(-43.6826753121246,-19.03465189463,-119.));
#1224=CARTESIAN_POINT('Origin',(-43.6826753121248,-19.03465189463,-125.));
#1225=CARTESIAN_POINT('Origin',(-72.7846981263865,56.1188955377818,-48.546057718896));
#1226=CARTESIAN_POINT('',(-71.9268337501175,66.1188955377818,-48.546057718896));
#1227=CARTESIAN_POINT('',(-72.7846981263865,66.1188955377818,-48.546057718896));
#1228=CARTESIAN_POINT('',(-72.7846981263865,61.1188955377819,-48.546057718896));
#1229=CARTESIAN_POINT('Origin',(-57.7846981263865,61.1188955377819,-48.546057718896));
#1230=CARTESIAN_POINT('',(-72.7846981263865,56.1188955377818,-48.546057718896));
#1231=CARTESIAN_POINT('',(-72.7846981263865,81.1188955377819,-48.546057718896));
#1232=CARTESIAN_POINT('',(-72.7846981263865,56.1188955377819,-48.546057718896));
#1233=CARTESIAN_POINT('Origin',(-72.7846981263865,66.1188955377818,-32.546057718896));
#1234=CARTESIAN_POINT('',(-72.3847468693583,56.1188955377818,-32.546057718896));
#1235=CARTESIAN_POINT('',(-72.7846981263865,56.1188955377819,-32.546057718896));
#1236=CARTESIAN_POINT('',(-72.3847468693583,61.1188955377819,-32.546057718896));
#1237=CARTESIAN_POINT('',(-72.3847468693583,68.618895537782,-32.546057718896));
#1238=CARTESIAN_POINT('',(-71.5124268552643,66.1188955377818,-32.546057718896));
#1239=CARTESIAN_POINT('Ctrl Pts',(-71.5124268552643,66.1188955377818,-32.546057718896));
#1240=CARTESIAN_POINT('Ctrl Pts',(-71.751691719496,65.4537688034252,-32.546057718896));
#1241=CARTESIAN_POINT('Ctrl Pts',(-71.9531223651777,64.7390126418831,-32.546057718896));
#1242=CARTESIAN_POINT('Ctrl Pts',(-72.2939285491329,63.034320312663,-32.546057718896));
#1243=CARTESIAN_POINT('Ctrl Pts',(-72.3847468693583,62.0344720204525,-32.546057718896));
#1244=CARTESIAN_POINT('Ctrl Pts',(-72.3847468693583,61.1188955377819,-32.546057718896));
#1245=CARTESIAN_POINT('',(-72.7846981263865,66.1188955377818,-32.546057718896));
#1246=CARTESIAN_POINT('Origin',(-72.7846981263865,106.118895537782,-102.));
#1247=CARTESIAN_POINT('',(-72.7846981263861,61.1188955377819,-119.000000000002));
#1248=CARTESIAN_POINT('',(-72.7846981263865,61.1188955377819,-102.));
#1249=CARTESIAN_POINT('',(-72.7846981263865,-11.03465189463,-119.000000000002));
#1250=CARTESIAN_POINT('',(-72.7846981263861,56.1188955377819,-119.000000000002));
#1251=CARTESIAN_POINT('',(-72.7846981263865,-11.03465189463,-114.500000000001));
#1252=CARTESIAN_POINT('',(-72.7846981263865,-11.03465189463,-112.));
#1253=CARTESIAN_POINT('',(-72.7846981263865,56.1188955377819,-114.500000000001));
#1254=CARTESIAN_POINT('',(-72.7846981263865,68.618895537782,-114.500000000001));
#1255=CARTESIAN_POINT('',(-72.7846981263865,56.1188955377819,-102.));
#1256=CARTESIAN_POINT('Origin',(-57.7846981263865,61.1188955377819,-102.));
#1257=CARTESIAN_POINT('',(-71.9268337501175,66.1188955377818,-37.0000000000001));
#1258=CARTESIAN_POINT('',(-71.9268337501175,66.1188955377818,-102.));
#1259=CARTESIAN_POINT('',(-57.7846981263865,76.118895537782,-37.0000000000001));
#1260=CARTESIAN_POINT('Origin',(-57.7846981263865,61.1188955377819,-37.0000000000001));
#1261=CARTESIAN_POINT('',(-57.7846981263865,76.118895537782,-119.000000000001));
#1262=CARTESIAN_POINT('',(-57.7846981263865,76.118895537782,-102.));
#1263=CARTESIAN_POINT('Origin',(-57.7846981263865,61.1188955377819,-118.999999999999));
#1264=CARTESIAN_POINT('Origin',(-72.7846981263865,56.1188955377819,-102.));
#1265=CARTESIAN_POINT('',(-60.2846981263871,56.1188955377819,-102.));
#1266=CARTESIAN_POINT('Origin',(-60.2846981263865,56.1188955377819,-114.500000000001));
#1267=CARTESIAN_POINT('',(-30.2846981263871,56.1188955377819,-102.));
#1268=CARTESIAN_POINT('',(-17.7846981263865,56.1188955377819,-102.));
#1269=CARTESIAN_POINT('',(-17.7846981263865,56.1188955377819,-114.499999999999));
#1270=CARTESIAN_POINT('Origin',(-30.2846981263865,56.1188955377819,-114.499999999999));
#1271=CARTESIAN_POINT('',(-17.7846981263865,56.1188955377819,-37.0000000000001));
#1272=CARTESIAN_POINT('',(-17.7846981263865,56.1188955377819,-102.));
#1273=CARTESIAN_POINT('',(-42.7846981263865,56.1188955377819,-12.0000000000001));
#1274=CARTESIAN_POINT('Origin',(-42.7846981263865,56.1188955377819,-37.0000000000001));
#1275=CARTESIAN_POINT('',(-47.7846981263865,56.1188955377819,-12.0000000000001));
#1276=CARTESIAN_POINT('',(-59.0346981263866,56.1188955377819,-12.0000000000001));
#1277=CARTESIAN_POINT('Origin',(-47.7846981263865,56.1188955377819,-37.0000000000001));
#1278=CARTESIAN_POINT('Ctrl Pts',(-47.7846981263865,76.118895537782,-27.0000000000001));
#1279=CARTESIAN_POINT('Ctrl Pts',(-57.7846981263864,76.118895537782,-27.0000000000001));
#1280=CARTESIAN_POINT('Ctrl Pts',(-57.7846981263864,76.118895537782,-37.0000000000001));
#1281=CARTESIAN_POINT('Ctrl Pts',(-47.7846981263865,76.118895537782,-12.0000000000001));
#1282=CARTESIAN_POINT('Ctrl Pts',(-72.7846981263865,76.118895537782,-12.0000000000001));
#1283=CARTESIAN_POINT('Ctrl Pts',(-72.7846981263865,76.118895537782,-37.0000000000001));
#1284=CARTESIAN_POINT('Ctrl Pts',(-47.7846981263865,61.1188955377819,-12.0000000000001));
#1285=CARTESIAN_POINT('Ctrl Pts',(-72.7846981263865,61.1188955377819,-12.0000000000001));
#1286=CARTESIAN_POINT('Ctrl Pts',(-72.7846981263865,61.1188955377819,-37.0000000000001));
#1287=CARTESIAN_POINT('Origin',(-47.7846981263865,66.1188955377818,-37.0000000000001));
#1288=CARTESIAN_POINT('',(-47.7846981263865,61.1188955377819,-12.0000000000001));
#1289=CARTESIAN_POINT('Origin',(-47.7846981263865,61.1188955377819,-37.0000000000001));
#1290=CARTESIAN_POINT('',(-47.7846981263865,76.118895537782,-27.0000000000001));
#1291=CARTESIAN_POINT('Origin',(-47.7846981263865,61.1188955377819,-27.0000000000001));
#1292=CARTESIAN_POINT('',(-54.5388969752646,76.1188955377819,-29.6256662734989));
#1293=CARTESIAN_POINT('Origin',(-47.7846981263865,76.118895537782,-37.0000000000001));
#1294=CARTESIAN_POINT('',(-56.1558954361617,76.1188955377819,-31.5298029650833));
#1295=CARTESIAN_POINT('Ctrl Pts',(-54.5388969752646,76.118895537782,-29.6256662734989));
#1296=CARTESIAN_POINT('Ctrl Pts',(-54.5622309048453,76.118895537782,-29.6042233704837));
#1297=CARTESIAN_POINT('Ctrl Pts',(-54.5863714486102,76.1187957222666,-29.5836759096836));
#1298=CARTESIAN_POINT('Ctrl Pts',(-54.7076751663829,76.1178374075122,-29.4881350540738));
#1299=CARTESIAN_POINT('Ctrl Pts',(-54.8147191466067,76.115607738485,-29.4268286615628));
#1300=CARTESIAN_POINT('Ctrl Pts',(-55.0661195756264,76.1083922353316,-29.3283930780065));
#1301=CARTESIAN_POINT('Ctrl Pts',(-55.2116781872378,76.103013761892,-29.29936341252));
#1302=CARTESIAN_POINT('Ctrl Pts',(-55.522177517029,76.0910913298856,-29.2929530407728));
#1303=CARTESIAN_POINT('Ctrl Pts',(-55.6845708902084,76.0846380455502,-29.3216137148721));
#1304=CARTESIAN_POINT('Ctrl Pts',(-55.9907929581072,76.0744235591801,-29.4404318194247));
#1305=CARTESIAN_POINT('Ctrl Pts',(-56.1313981383174,76.0708254327062,-29.5300730245476));
#1306=CARTESIAN_POINT('Ctrl Pts',(-56.3654151446115,76.0684484869759,-29.7548165495218));
#1307=CARTESIAN_POINT('Ctrl Pts',(-56.4581359766394,76.0695262158546,-29.8860644551965));
#1308=CARTESIAN_POINT('Ctrl Pts',(-56.5861330993576,76.0755471638585,-30.1692222903789));
#1309=CARTESIAN_POINT('Ctrl Pts',(-56.6229056054727,76.0802306720991,-30.3174298871153));
#1310=CARTESIAN_POINT('Ctrl Pts',(-56.6410729420154,76.0908306448437,-30.6098964059854));
#1311=CARTESIAN_POINT('Ctrl Pts',(-56.6257713053343,76.0965483786716,-30.7517001536611));
#1312=CARTESIAN_POINT('Ctrl Pts',(-56.5522425877248,76.1064875585447,-31.0103158191606));
#1313=CARTESIAN_POINT('Ctrl Pts',(-56.4989419905104,76.1107287885541,-31.1267205929289));
#1314=CARTESIAN_POINT('Ctrl Pts',(-56.3775642600448,76.1160366288226,-31.3112139376871));
#1315=CARTESIAN_POINT('Ctrl Pts',(-56.3175485550603,76.1176296713667,-31.3833401691815));
#1316=CARTESIAN_POINT('Ctrl Pts',(-56.2200351155532,76.1187235804373,-31.4768857191555));
#1317=CARTESIAN_POINT('Ctrl Pts',(-56.1886151617599,76.118895537782,-31.504152661353));
#1318=CARTESIAN_POINT('Ctrl Pts',(-56.1558954361617,76.118895537782,-31.5298029650833));
#1319=CARTESIAN_POINT('Origin',(-47.7846981263865,76.118895537782,-37.0000000000001));
#1320=CARTESIAN_POINT('Origin',(-55.3846981263863,66.1188955377818,-30.5460577188965));
#1321=CARTESIAN_POINT('',(-54.1346981263863,76.118895537782,-30.5460577188965));
#1322=CARTESIAN_POINT('',(-54.1346981263863,66.1188955377818,-30.5460577188965));
#1323=CARTESIAN_POINT('Origin',(-55.3846981263863,76.1188955377818,-30.5460577188965));
#1324=CARTESIAN_POINT('Origin',(-55.3846981263863,76.1188955377818,-30.5460577188965));
#1325=CARTESIAN_POINT('Origin',(-35.3846981263852,66.1188955377818,-50.5460577188954));
#1326=CARTESIAN_POINT('',(-34.1346981263852,76.1188955377818,-50.5460577188954));
#1327=CARTESIAN_POINT('',(-34.1346981263852,66.1188955377818,-50.5460577188954));
#1328=CARTESIAN_POINT('Origin',(-35.3846981263852,76.1188955377818,-50.5460577188954));
#1329=CARTESIAN_POINT('Origin',(-35.3846981263863,66.1188955377818,-30.5460577188954));
#1330=CARTESIAN_POINT('',(-34.1346981263863,76.097951055642,-30.5460577188954));
#1331=CARTESIAN_POINT('',(-34.1346981263863,66.1188955377818,-30.5460577188954));
#1332=CARTESIAN_POINT('',(-34.4882058238134,76.1188955377819,-31.4171498790183));
#1333=CARTESIAN_POINT('Ctrl Pts',(-34.4882058238134,76.118895537782,-31.4171498790183));
#1334=CARTESIAN_POINT('Ctrl Pts',(-34.437065301946,76.118895537782,-31.3645181526609));
#1335=CARTESIAN_POINT('Ctrl Pts',(-34.3906250121404,76.1183768042688,-31.3074502874678));
#1336=CARTESIAN_POINT('Ctrl Pts',(-34.2681310436718,76.1155243340463,-31.1264270681054));
#1337=CARTESIAN_POINT('Ctrl Pts',(-34.2083746605864,76.1119284808848,-30.9930456289162));
#1338=CARTESIAN_POINT('Ctrl Pts',(-34.1474510010062,76.1045796220066,-30.7520626430085));
#1339=CARTESIAN_POINT('Ctrl Pts',(-34.1346981263863,76.1012121964704,-30.6491445296292));
#1340=CARTESIAN_POINT('Ctrl Pts',(-34.1346981263863,76.097951055642,-30.5460577188954));
#1341=CARTESIAN_POINT('',(-36.1258327779645,76.1188955377819,-29.5394697057391));
#1342=CARTESIAN_POINT('Origin',(-35.3846981263863,76.1188955377818,-30.5460577188954));
#1343=CARTESIAN_POINT('Ctrl Pts',(-34.1346981263863,76.097951055642,-30.5460577188954));
#1344=CARTESIAN_POINT('Ctrl Pts',(-34.1346981263863,76.0961028095587,-30.487633442177));
#1345=CARTESIAN_POINT('Ctrl Pts',(-34.1387941130684,76.0942882658636,-30.4291549930522));
#1346=CARTESIAN_POINT('Ctrl Pts',(-34.1701187555947,76.0877617771586,-30.2076142190868));
#1347=CARTESIAN_POINT('Ctrl Pts',(-34.2253778386084,76.0839111548018,-30.0503309090819));
#1348=CARTESIAN_POINT('Ctrl Pts',(-34.3917358380096,76.0802328267112,-29.7698972111869));
#1349=CARTESIAN_POINT('Ctrl Pts',(-34.4997940705579,76.0803488507299,-29.6486485320602));
#1350=CARTESIAN_POINT('Ctrl Pts',(-34.7498229396233,76.0842896814626,-29.4584403536033));
#1351=CARTESIAN_POINT('Ctrl Pts',(-34.8877675509421,76.0878871413307,-29.3888970583328));
#1352=CARTESIAN_POINT('Ctrl Pts',(-35.1729983032204,76.0964992164433,-29.305734661998));
#1353=CARTESIAN_POINT('Ctrl Pts',(-35.3171049426328,76.1013278249614,-29.2896157360742));
#1354=CARTESIAN_POINT('Ctrl Pts',(-35.591286877835,76.1097531649444,-29.3063319282825));
#1355=CARTESIAN_POINT('Ctrl Pts',(-35.7197737784763,76.1133523486674,-29.3347221460366));
#1356=CARTESIAN_POINT('Ctrl Pts',(-35.9427098156661,76.1177503926586,-29.4222522765326));
#1357=CARTESIAN_POINT('Ctrl Pts',(-36.0382836874941,76.118895537782,-29.4750087109585));
#1358=CARTESIAN_POINT('Ctrl Pts',(-36.1258327779687,76.118895537782,-29.5394697057422));
#1359=CARTESIAN_POINT('Origin',(-55.3846981263852,66.1188955377818,-50.5460577188965));
#1360=CARTESIAN_POINT('',(-54.1346981263852,76.1188955377818,-50.5460577188965));
#1361=CARTESIAN_POINT('',(-54.1346981263852,66.1188955377818,-50.5460577188965));
#1362=CARTESIAN_POINT('Origin',(-55.3846981263852,76.1188955377818,-50.5460577188965));
#1363=CARTESIAN_POINT('Origin',(-17.7846981263865,76.118895537782,-102.));
#1364=CARTESIAN_POINT('',(-42.7846981263865,76.118895537782,-27.0000000000001));
#1365=CARTESIAN_POINT('',(-31.5346981263866,76.118895537782,-27.0000000000001));
#1366=CARTESIAN_POINT('Origin',(-42.7846981263865,76.118895537782,-37.0000000000001));
#1367=CARTESIAN_POINT('',(-32.7846981263865,76.118895537782,-37.0000000000001));
#1368=CARTESIAN_POINT('Origin',(-42.7846981263865,76.118895537782,-37.0000000000001));
#1369=CARTESIAN_POINT('',(-32.7846981263865,76.118895537782,-118.999999999999));
#1370=CARTESIAN_POINT('',(-32.7846981263865,76.118895537782,-102.));
#1371=CARTESIAN_POINT('',(-20.2846981263858,76.118895537782,-118.999999999999));
#1372=CARTESIAN_POINT('Origin',(-72.7846981263865,-27.03465189463,-112.));
#1373=CARTESIAN_POINT('',(-72.5197601481128,-27.03465189463,-112.));
#1374=CARTESIAN_POINT('',(-72.7724903184726,-27.03465189463,-114.5));
#1375=CARTESIAN_POINT('Ctrl Pts',(-72.5197601481128,-27.03465189463,-112.));
#1376=CARTESIAN_POINT('Ctrl Pts',(-72.5240389751622,-27.03465189463,-112.020946831628));
#1377=CARTESIAN_POINT('Ctrl Pts',(-72.5282642437038,-27.03465189463,-112.041905722085));
#1378=CARTESIAN_POINT('Ctrl Pts',(-72.6964287758463,-27.03465189463,-112.887261739325));
#1379=CARTESIAN_POINT('Ctrl Pts',(-72.7724903184726,-27.03465189463,-113.729139808038));
#1380=CARTESIAN_POINT('Ctrl Pts',(-72.7724903184726,-27.03465189463,-114.5));
#1381=CARTESIAN_POINT('',(-72.7846981263865,-27.03465189463,-112.));
#1382=CARTESIAN_POINT('',(-72.7724903184726,-27.03465189463,-119.));
#1383=CARTESIAN_POINT('',(-47.7846981263861,-27.03465189463,-119.));
#1384=CARTESIAN_POINT('',(-72.7724903184726,-27.03465189463,-107.000000000001));
#1385=CARTESIAN_POINT('Origin',(-72.7846981263865,-11.03465189463,-122.));
#1386=CARTESIAN_POINT('',(-72.5321468403022,-11.03465189463,-112.));
#1387=CARTESIAN_POINT('Origin',(-60.2846981263865,-11.03465189463,-114.500000000001));
#1388=CARTESIAN_POINT('',(-47.7846981263863,-11.03465189463,-119.));
#1389=CARTESIAN_POINT('',(-72.7846981263865,-11.03465189463,-112.));
#1390=CARTESIAN_POINT('Origin',(-55.2846981263865,-26.3811044622181,-107.000000000001));
#1391=CARTESIAN_POINT('',(-55.2846981263865,-43.8811044622181,-119.000000000001));
#1392=CARTESIAN_POINT('Origin',(-55.2846981263865,-26.3811044622181,-118.999999999999));
#1393=CARTESIAN_POINT('',(-55.2846981263865,-43.8811044622181,-114.499999999999));
#1394=CARTESIAN_POINT('',(-55.2846981263865,-43.8811044622181,-107.000000000001));
#1395=CARTESIAN_POINT('Origin',(-55.2846981263865,-26.3811044622181,-114.499999999999));
#1396=CARTESIAN_POINT('Origin',(-22.7846981263864,31.1188955377819,-111.999999999999));
#1397=CARTESIAN_POINT('',(-72.5321468403022,-26.3811044622181,-112.));
#1398=CARTESIAN_POINT('Origin',(-55.2846981263865,-26.3811044622181,-112.));
#1399=CARTESIAN_POINT('',(-72.5321468403022,68.618895537782,-112.));
#1400=CARTESIAN_POINT('Origin',(-22.7846981263861,31.1188955377819,-118.999999999999));
#1401=CARTESIAN_POINT('',(-17.7846981263861,61.1188955377819,-118.999999999999));
#1402=CARTESIAN_POINT('Origin',(-32.7846981263865,61.1188955377819,-118.999999999999));
#1403=CARTESIAN_POINT('',(-17.7846981263861,-26.3811044622181,-118.999999999999));
#1404=CARTESIAN_POINT('',(-17.7846981263861,-43.8811044622181,-118.999999999999));
#1405=CARTESIAN_POINT('',(-35.2846981263865,-43.8811044622181,-119.));
#1406=CARTESIAN_POINT('Origin',(-35.2846981263865,-26.3811044622181,-118.999999999999));
#1407=CARTESIAN_POINT('',(-72.7846981263861,-43.8811044622181,-119.000000000002));
#1408=CARTESIAN_POINT('Origin',(-32.7846981263865,61.1188955377819,-102.));
#1409=CARTESIAN_POINT('',(-17.7846981263865,61.1188955377819,-37.0000000000001));
#1410=CARTESIAN_POINT('Origin',(-32.7846981263865,61.1188955377819,-37.0000000000001));
#1411=CARTESIAN_POINT('',(-17.7846981263865,61.1188955377819,-102.));
#1412=CARTESIAN_POINT('Ctrl Pts',(-32.7846981263915,76.118895537782,-37.0000000000001));
#1413=CARTESIAN_POINT('Ctrl Pts',(-32.7846981263915,76.118895537782,-27.0000000000052));
#1414=CARTESIAN_POINT('Ctrl Pts',(-42.7846981263865,76.118895537782,-27.0000000000052));
#1415=CARTESIAN_POINT('Ctrl Pts',(-17.7846981263865,76.118895537787,-37.0000000000001));
#1416=CARTESIAN_POINT('Ctrl Pts',(-17.7846981263865,76.118895537787,-12.0000000000001));
#1417=CARTESIAN_POINT('Ctrl Pts',(-42.7846981263865,76.118895537787,-12.0000000000001));
#1418=CARTESIAN_POINT('Ctrl Pts',(-17.7846981263865,61.1188955377819,-37.0000000000001));
#1419=CARTESIAN_POINT('Ctrl Pts',(-17.7846981263865,61.1188955377819,-12.0000000000001));
#1420=CARTESIAN_POINT('Ctrl Pts',(-42.7846981263865,61.1188955377819,-12.0000000000001));
#1421=CARTESIAN_POINT('',(-42.7846981263865,61.1188955377819,-12.0000000000001));
#1422=CARTESIAN_POINT('Origin',(-42.7846981263865,61.1188955377819,-27.0000000000001));
#1423=CARTESIAN_POINT('Origin',(-42.7846981263865,61.1188955377819,-37.0000000000001));
#1424=CARTESIAN_POINT('Origin',(-31.5346981263866,61.1188955377819,-27.0000000000001));
#1425=CARTESIAN_POINT('',(-31.5346981263866,61.1188955377819,-12.0000000000001));
#1426=CARTESIAN_POINT('Origin',(-60.2846981263865,68.618895537782,-114.500000000001));
#1427=CARTESIAN_POINT('',(-60.2846981263871,-26.3811044622181,-102.000000000001));
#1428=CARTESIAN_POINT('Origin',(-60.2846981263865,-26.3811044622181,-114.500000000001));
#1429=CARTESIAN_POINT('',(-60.2846981263871,68.618895537782,-102.000000000001));
#1430=CARTESIAN_POINT('Ctrl Pts',(-55.2846981263871,-31.381104462218,-101.999999999999));
#1431=CARTESIAN_POINT('Ctrl Pts',(-60.2846981263871,-31.381104462218,-101.999999999999));
#1432=CARTESIAN_POINT('Ctrl Pts',(-60.2846981263871,-26.3811044622181,-101.999999999999));
#1433=CARTESIAN_POINT('Ctrl Pts',(-55.2846981263871,-43.8811044622181,-101.999999999999));
#1434=CARTESIAN_POINT('Ctrl Pts',(-72.7846981263871,-43.8811044622181,-102.));
#1435=CARTESIAN_POINT('Ctrl Pts',(-72.7846981263871,-26.3811044622181,-102.));
#1436=CARTESIAN_POINT('Ctrl Pts',(-55.2846981263865,-43.8811044622181,-114.499999999999));
#1437=CARTESIAN_POINT('Ctrl Pts',(-72.7846981263865,-43.8811044622181,-114.5));
#1438=CARTESIAN_POINT('Ctrl Pts',(-72.7846981263865,-26.3811044622181,-114.5));
#1439=CARTESIAN_POINT('',(-55.2846981263871,-31.3811044622181,-102.000000000001));
#1440=CARTESIAN_POINT('Origin',(-55.2846981263865,-31.3811044622181,-114.499999999999));
#1441=CARTESIAN_POINT('Origin',(-55.2846981263871,-26.3811044622181,-102.000000000001));
#1442=CARTESIAN_POINT('Origin',(-47.7846981263863,-31.3811044622181,-114.5));
#1443=CARTESIAN_POINT('',(-35.2846981263865,-43.8811044622181,-114.5));
#1444=CARTESIAN_POINT('',(-35.2846981263871,-31.3811044622181,-102.));
#1445=CARTESIAN_POINT('Origin',(-35.2846981263865,-31.3811044622181,-114.5));
#1446=CARTESIAN_POINT('',(-47.784698126387,-31.3811044622181,-102.));
#1447=CARTESIAN_POINT('',(-47.7846981263863,-43.8811044622181,-114.5));
#1448=CARTESIAN_POINT('Ctrl Pts',(-30.2846981263871,-26.3811044622181,-101.999999999999));
#1449=CARTESIAN_POINT('Ctrl Pts',(-30.2846981263871,-31.381104462218,-101.999999999999));
#1450=CARTESIAN_POINT('Ctrl Pts',(-35.2846981263871,-31.381104462218,-101.999999999999));
#1451=CARTESIAN_POINT('Ctrl Pts',(-17.7846981263865,-26.3811044622181,-101.999999999998));
#1452=CARTESIAN_POINT('Ctrl Pts',(-17.7846981263865,-43.8811044622187,-101.999999999998));
#1453=CARTESIAN_POINT('Ctrl Pts',(-35.2846981263871,-43.8811044622187,-101.999999999999));
#1454=CARTESIAN_POINT('Ctrl Pts',(-17.7846981263865,-26.3811044622181,-114.499999999999));
#1455=CARTESIAN_POINT('Ctrl Pts',(-17.7846981263865,-43.8811044622181,-114.499999999999));
#1456=CARTESIAN_POINT('Ctrl Pts',(-35.2846981263865,-43.8811044622181,-114.5));
#1457=CARTESIAN_POINT('',(-17.7846981263865,-26.3811044622181,-114.499999999998));
#1458=CARTESIAN_POINT('',(-30.2846981263871,-26.3811044622181,-101.999999999999));
#1459=CARTESIAN_POINT('Origin',(-30.2846981263865,-26.3811044622181,-114.499999999999));
#1460=CARTESIAN_POINT('Origin',(-35.2846981263871,-26.3811044622181,-102.));
#1461=CARTESIAN_POINT('Origin',(-35.2846981263865,-26.3811044622181,-114.499999999999));
#1462=CARTESIAN_POINT('Origin',(-30.2846981263865,43.6188955377819,-114.499999999999));
#1463=CARTESIAN_POINT('',(-30.2846981263871,43.6188955377819,-101.999999999999));
#1464=CARTESIAN_POINT('',(-17.7846981263865,43.6188955377819,-114.499999999999));
#1465=CARTESIAN_POINT('Origin',(-17.7846981263865,56.1188955377819,-102.));
#1466=CARTESIAN_POINT('',(-17.7846981263865,43.6188955377819,-37.0000000000001));
#1467=CARTESIAN_POINT('',(-17.7846981263865,-26.3811044622181,-107.000000000001));
#1468=CARTESIAN_POINT('Origin',(-35.2846981263865,-26.3811044622181,-107.000000000001));
#1469=CARTESIAN_POINT('',(-35.2846981263865,-43.8811044622181,-107.000000000001));
#1470=CARTESIAN_POINT('Origin',(-72.7846981263865,-43.8811044622181,-112.000000000002));
#1471=CARTESIAN_POINT('Origin',(-42.7846981263865,43.6188955377819,-37.0000000000001));
#1472=CARTESIAN_POINT('',(-42.7846981263865,43.6188955377819,-12.0000000000001));
#1473=CARTESIAN_POINT('Origin',(-45.2846981263867,31.1188955377819,-12.0000000000001));
#1474=CARTESIAN_POINT('',(-47.7846981263865,68.618895537782,-12.0000000000001));
#1475=CARTESIAN_POINT('Origin',(-47.7846981263865,68.618895537782,-37.0000000000001));
#1476=CARTESIAN_POINT('Origin',(-22.784698126387,31.1188955377819,-101.999999999999));
#1477=CARTESIAN_POINT('',(-54.9326753121261,-9.03465189462996,-102.000000000001));
#1478=CARTESIAN_POINT('Origin',(-53.6826753121261,-9.03465189462996,-102.000000000001));
#1479=CARTESIAN_POINT('',(-34.9326753121261,-29.03465189463,-102.));
#1480=CARTESIAN_POINT('Origin',(-33.6826753121261,-29.03465189463,-101.999999999999));
#1481=CARTESIAN_POINT('',(-34.9326753121261,-9.03465189462996,-102.));
#1482=CARTESIAN_POINT('Origin',(-33.6826753121261,-9.03465189462996,-101.999999999999));
#1483=CARTESIAN_POINT('',(-54.9326753121261,-29.03465189463,-102.000000000001));
#1484=CARTESIAN_POINT('Origin',(-53.6826753121261,-29.03465189463,-102.000000000001));
#1485=CARTESIAN_POINT('Origin',(-45.3846981263857,66.1188955377818,-40.546057718896));
#1486=CARTESIAN_POINT('Origin',(-53.6826753121255,-29.03465189463,-112.000000000001));
#1487=CARTESIAN_POINT('',(-54.9326753121255,-29.03465189463,-112.000000000001));
#1488=CARTESIAN_POINT('Origin',(-33.6826753121255,-9.03465189462996,-111.999999999999));
#1489=CARTESIAN_POINT('',(-34.9326753121255,-9.03465189462996,-112.));
#1490=CARTESIAN_POINT('Origin',(-33.6826753121255,-29.03465189463,-111.999999999999));
#1491=CARTESIAN_POINT('',(-34.9326753121255,-29.03465189463,-112.));
#1492=CARTESIAN_POINT('Origin',(-53.6826753121255,-9.03465189462996,-112.000000000001));
#1493=CARTESIAN_POINT('',(-54.9326753121255,-9.03465189462996,-112.000000000001));
#1494=UNCERTAINTY_MEASURE_WITH_UNIT(LENGTH_MEASURE(0.01),#1498,
'DISTANCE_ACCURACY_VALUE',
'Maximum model space distance between geometric entities at asserted c
onnectivities');
#1495=UNCERTAINTY_MEASURE_WITH_UNIT(LENGTH_MEASURE(0.01),#1498,
'DISTANCE_ACCURACY_VALUE',
'Maximum model space distance between geometric entities at asserted c
onnectivities');
#1496=(
GEOMETRIC_REPRESENTATION_CONTEXT(3)
GLOBAL_UNCERTAINTY_ASSIGNED_CONTEXT((#1494))
GLOBAL_UNIT_ASSIGNED_CONTEXT((#1498,#1500,#1501))
REPRESENTATION_CONTEXT('','3D')
);
#1497=(
GEOMETRIC_REPRESENTATION_CONTEXT(3)
GLOBAL_UNCERTAINTY_ASSIGNED_CONTEXT((#1495))
GLOBAL_UNIT_ASSIGNED_CONTEXT((#1498,#1500,#1501))
REPRESENTATION_CONTEXT('','3D')
);
#1498=(
LENGTH_UNIT()
NAMED_UNIT(*)
SI_UNIT(.MILLI.,.METRE.)
);
#1499=(
LENGTH_UNIT()
NAMED_UNIT(*)
SI_UNIT($,.METRE.)
);
#1500=(
NAMED_UNIT(*)
PLANE_ANGLE_UNIT()
SI_UNIT($,.RADIAN.)
);
#1501=(
NAMED_UNIT(*)
SI_UNIT($,.STERADIAN.)
SOLID_ANGLE_UNIT()
);
#1502=SHAPE_DEFINITION_REPRESENTATION(#1503,#1504);
#1503=PRODUCT_DEFINITION_SHAPE('',$,#1506);
#1504=SHAPE_REPRESENTATION('',(#816),#1496);
#1505=PRODUCT_DEFINITION_CONTEXT('part definition',#1510,'design');
#1506=PRODUCT_DEFINITION('link_1dof_2dof','link_1dof_2dof',#1507,#1505);
#1507=PRODUCT_DEFINITION_FORMATION('',$,#1512);
#1508=PRODUCT_RELATED_PRODUCT_CATEGORY('link_1dof_2dof',
'link_1dof_2dof',(#1512));
#1509=APPLICATION_PROTOCOL_DEFINITION('international standard',
'automotive_design',2009,#1510);
#1510=APPLICATION_CONTEXT(
'Core Data for Automotive Mechanical Design Process');
#1511=PRODUCT_CONTEXT('part definition',#1510,'mechanical');
#1512=PRODUCT('link_1dof_2dof','link_1dof_2dof',$,(#1511));
#1513=PRESENTATION_STYLE_ASSIGNMENT((#1515));
#1514=PRESENTATION_STYLE_ASSIGNMENT((#1516));
#1515=SURFACE_STYLE_USAGE(.BOTH.,#1517);
#1516=SURFACE_STYLE_USAGE(.BOTH.,#1518);
#1517=SURFACE_SIDE_STYLE('',(#1519));
#1518=SURFACE_SIDE_STYLE('',(#1520));
#1519=SURFACE_STYLE_FILL_AREA(#1521);
#1520=SURFACE_STYLE_FILL_AREA(#1522);
#1521=FILL_AREA_STYLE('\X2\AC15CCA0\X0\ - \X2\C0C8D2F4\X0\',(#1523));
#1522=FILL_AREA_STYLE('ABS(\X2\D770C0C9\X0\)',(#1524));
#1523=FILL_AREA_STYLE_COLOUR('\X2\AC15CCA0\X0\ - \X2\C0C8D2F4\X0\',#1525);
#1524=FILL_AREA_STYLE_COLOUR('ABS(\X2\D770C0C9\X0\)',#1526);
#1525=COLOUR_RGB('\X2\AC15CCA0\X0\ - \X2\C0C8D2F4\X0\',0.627450980392157,
0.627450980392157,0.627450980392157);
#1526=COLOUR_RGB('ABS(\X2\D770C0C9\X0\)',0.964705882352941,0.964705882352941,
0.952941176470588);
ENDSEC;
END-ISO-10303-21;
